<?xml version="1.0" standalone="no"?>
<!DOCTYPE svg PUBLIC "-//W3C//DTD SVG 1.1//EN" "http://www.w3.org/Graphics/SVG/1.1/DTD/svg11.dtd" >
<svg>
<metadata>
Created by FontForge 20090622 at Tue Aug 30 20:43:50 2016
 By deploy user
&#194;&#169; 2006 Microsoft Corporation. All Rights Reserved.
</metadata>
<defs>
<font id="Georgia-BoldItalic" horiz-adv-x="1024" >
  <font-face 
    font-family="Georgia"
    font-weight="700"
    font-style="italic"
    font-stretch="normal"
    units-per-em="2048"
    panose-1="2 4 8 2 5 4 5 9 2 3"
    ascent="1638"
    descent="-410"
    x-height="986"
    cap-height="1419"
    bbox="-496 -621 2775 2037"
    underline-thickness="120"
    underline-position="-121"
    slope="-13"
    unicode-range="U+0020-U+FB02"
  />
<missing-glyph horiz-adv-x="2048" 
d="M256 0v1536h1536v-1536h-1536zM384 128h1280v1280h-1280v-1280z" />
    <glyph glyph-name=".notdef" horiz-adv-x="2048" 
d="M256 0v1536h1536v-1536h-1536zM384 128h1280v1280h-1280v-1280z" />
    <glyph glyph-name=".null" horiz-adv-x="0" 
 />
    <glyph glyph-name="nonmarkingreturn" horiz-adv-x="520" 
 />
    <glyph glyph-name="space" unicode=" " horiz-adv-x="520" 
 />
    <glyph glyph-name="space" unicode="&#xa0;" horiz-adv-x="520" 
 />
    <glyph glyph-name="exclam" unicode="!" horiz-adv-x="771" 
d="M697 1106l-119 -261t-158 -383h-77q12 255 11.5 412t-0.5 227q0 59 2 93t10 70q21 91 89 137t146 46q68 0 112.5 -41t44.5 -102q0 -32 -13.5 -78.5t-47.5 -119.5zM509 156q0 -76 -57.5 -130.5t-134.5 -54.5q-78 0 -135.5 54.5t-57.5 130.5t57.5 131.5t135.5 55.5
q77 0 134.5 -55.5t57.5 -131.5z" />
    <glyph glyph-name="quotedbl" unicode="&#x22;" horiz-adv-x="1044" 
d="M588 1219l-92 -176t-104 -220h-67q0 185 -5 299t-5 192q0 89 55.5 152t143.5 63q66 0 104.5 -35.5t38.5 -86.5q0 -30 -17 -74t-52 -114zM1061 1219l-92 -176t-104 -220h-67q0 185 -5 299t-5 192q0 89 55.5 152t143.5 63q66 0 104.5 -35.5t38.5 -86.5q0 -30 -16.5 -74
t-52.5 -114z" />
    <glyph glyph-name="numbersign" unicode="#" horiz-adv-x="1440" 
d="M1335 748h-269l-100 -257h273v-160h-335l-130 -331h-149l130 331h-230l-130 -331h-149l130 331h-207v160h269l101 257h-274v160h336l134 341h149l-134 -341h230l134 341h149l-134 -341h206v-160zM920 750h-233l-101 -261h232z" />
    <glyph glyph-name="dollar" unicode="$" horiz-adv-x="1312" 
d="M677 816l90 407q-145 -12 -220 -73t-75 -151q0 -78 51 -124.5t154 -58.5zM936 312q0 87 -59 137.5t-168 61.5l-98 -446q159 15 242 79t83 168zM512 65l100 456q-183 23 -290 108.5t-107 221.5q0 76 31 148t105 142q67 64 179.5 110t254.5 55l49 218h99l-49 -218
q193 -9 295.5 -81.5t102.5 -194.5q0 -69 -41.5 -116.5t-112.5 -47.5q-76 0 -119 43.5t-43 110.5q0 49 16 94t25 73q-27 14 -61 23.5t-80 12.5l-92 -417q202 -31 310 -118.5t108 -229.5q0 -111 -50 -197t-131 -143q-85 -61 -193.5 -94.5t-224.5 -41.5l-62 -281h-99l62 281
q-204 5 -324 96.5t-120 215.5q0 72 41 120t119 48q79 0 124.5 -44t45.5 -115q0 -50 -16.5 -99.5t-27.5 -78.5q49 -31 92 -45.5t84 -14.5z" />
    <glyph glyph-name="percent" unicode="%" horiz-adv-x="1801" 
d="M985 1145q0 -180 -134 -306.5t-324 -126.5q-149 0 -244 87t-95 228q0 182 135.5 307.5t322.5 125.5q150 0 244.5 -87t94.5 -228zM730 1219q0 82 -22 126t-75 44q-84 0 -137 -127.5t-53 -314.5q0 -78 23 -121t76 -43q81 0 134.5 124.5t53.5 311.5zM1692 398
q0 -180 -134 -306.5t-324 -126.5q-149 0 -244 87t-95 228q0 182 135.5 307.5t322.5 125.5q150 0 244.5 -87t94.5 -228zM1437 472q0 82 -22 126t-75 44q-84 0 -137 -127.5t-53 -314.5q0 -78 23 -121t76 -43q81 0 134.5 124.5t53.5 311.5zM1745 1428l-1453 -1428h-155
l1450 1428h158z" />
    <glyph glyph-name="ampersand" unicode="&#x26;" horiz-adv-x="1637" 
d="M1528 0h-586l-44 66.5t-50 81.5q-139 -107 -241.5 -145t-220.5 -38q-168 0 -270 84t-102 223q0 88 31 160t92 135q57 59 147.5 109.5t194.5 91.5q-50 86 -73 152.5t-23 126.5q0 177 139.5 293.5t336.5 116.5q142 0 229.5 -61t87.5 -170q0 -116 -85 -212.5t-265 -187.5
q73 -131 129 -219.5l113 -178.5q89 95 148.5 193.5t59.5 132.5q0 25 -42.5 42t-114.5 32l16 71h559l-16 -71q-96 -9 -140.5 -24t-92.5 -55q-27 -22 -64.5 -68.5l-71.5 -89.5l-91.5 -113t-106.5 -119q72 -111 114.5 -159t75.5 -69q38 -23 109 -37.5t135 -18.5zM1015 1218
q0 66 -36.5 104.5t-97.5 38.5q-73 0 -129 -51t-56 -139q0 -57 23.5 -119.5t72.5 -158.5q110 64 166.5 152.5t56.5 172.5zM809 213l-156 254.5l-141 235.5q-83 -66 -123 -148.5t-40 -168.5q0 -108 67 -176.5t179 -68.5q62 0 106.5 14.5t107.5 57.5z" />
    <glyph glyph-name="quotesingle" unicode="'" horiz-adv-x="551" 
d="M578 1219l-92 -176t-104 -220h-67q0 185 -5 299t-5 192q0 89 55.5 152t143.5 63q66 0 104.5 -35.5t38.5 -86.5q0 -30 -16.5 -74t-52.5 -114z" />
    <glyph glyph-name="parenleft" unicode="(" horiz-adv-x="915" 
d="M667 -328q-111 15 -215 62t-185 131q-80 83 -127.5 202.5t-47.5 278.5q0 250 85.5 467t238.5 377q139 147 315.5 234t335.5 108l-20 -90q-126 -22 -245.5 -132t-208.5 -286q-84 -167 -131 -374t-47 -415q0 -197 66 -322.5t206 -152.5z" />
    <glyph glyph-name="parenright" unicode=")" horiz-adv-x="915" 
d="M275 1532q111 -15 215 -62t185 -131q80 -83 127.5 -202.5t47.5 -278.5q0 -250 -85.5 -467t-238.5 -377q-140 -146 -316 -233.5t-335 -108.5l20 90q126 22 245.5 132t208.5 286q84 166 131 373.5t47 415.5q0 197 -66 322.5t-206 152.5z" />
    <glyph glyph-name="asterisk" unicode="*" horiz-adv-x="987" 
d="M1037 1083q0 -45 -25.5 -65.5t-64.5 -20.5q-25 0 -103.5 22t-166.5 33q58 -76 128 -143t70 -114q0 -33 -29 -57.5t-61 -24.5q-22 0 -41 12.5t-33 35.5q-13 22 -33 100t-54 160q-33 -78 -54.5 -161t-32.5 -99q-16 -25 -32.5 -36.5t-41.5 -11.5q-33 0 -61.5 23.5
t-28.5 58.5q0 47 70 114t128 143q-84 -10 -165 -32.5t-105 -22.5q-39 0 -64.5 20.5t-25.5 65.5q0 41 25.5 63.5t64.5 22.5q31 0 99.5 -20.5t170.5 -32.5q-66 84 -132 147.5t-66 109.5q0 33 29 57.5t61 24.5q23 0 41.5 -12t32.5 -35q13 -22 33.5 -101t53.5 -160
q33 82 54 161.5t33 99.5q12 21 31.5 34t42.5 13q33 0 61.5 -23.5t28.5 -58.5q0 -46 -62.5 -107.5t-134.5 -149.5q100 13 171.5 33t97.5 20q39 0 64.5 -22.5t25.5 -63.5z" />
    <glyph glyph-name="plus" unicode="+" horiz-adv-x="1440" 
d="M1275 493h-473v-473h-165v473h-473v163h473v473h165v-473h473v-163z" />
    <glyph glyph-name="comma" unicode="," horiz-adv-x="672" 
d="M511 132q0 -155 -127 -299.5t-309 -221.5l-32 71q61 30 104 55t90 71q40 38 70.5 84.5t46.5 107.5h-59q-93 0 -137 37t-44 102q0 78 62.5 139.5t144.5 61.5q98 0 144 -58t46 -150z" />
    <glyph glyph-name="hyphen" unicode="-" horiz-adv-x="776" 
d="M671 435h-606l50 219h606z" />
    <glyph glyph-name="hyphen" unicode="&#xad;" horiz-adv-x="776" 
d="M671 435h-606l50 219h606z" />
    <glyph glyph-name="period" unicode="." horiz-adv-x="672" 
d="M504 166q0 -79 -58.5 -137t-138.5 -58q-81 0 -139.5 57.5t-58.5 137.5t58.5 138.5t139.5 58.5q80 0 138.5 -59t58.5 -138z" />
    <glyph glyph-name="slash" unicode="/" horiz-adv-x="966" 
d="M1068 1523l-1034 -1947h-183l1032 1947h185z" />
    <glyph glyph-name="zero" unicode="0" horiz-adv-x="1436" 
d="M1256 973q62 -60 93 -138.5t31 -168.5q0 -150 -61.5 -281t-163.5 -222q-106 -94 -241.5 -145.5t-293.5 -51.5q-129 0 -227 35.5t-162 94.5t-97 138t-33 172q0 139 51 262t152 224q97 97 240 157t317 60q135 0 233.5 -37.5t161.5 -98.5zM916 286q50 107 76.5 232t26.5 261
q0 57 -9.5 99t-31.5 76q-21 33 -54 52.5t-80 19.5q-80 0 -151 -59.5t-132 -189.5q-49 -105 -74 -230t-25 -247q0 -63 9 -103t31 -76q20 -33 54 -53t82 -20q84 0 156 65t122 173z" />
    <glyph glyph-name="one" unicode="1" horiz-adv-x="1003" 
d="M822 0h-825l16 72q31 2 98 10t93 16q29 9 53.5 34t33.5 66l149 642h-253l21 91h28q88 0 160 19t125 46q54 27 94 58.5t59 52.5h176l-42 -154t-38 -154l-133 -572q-3 -12 -5.5 -28t-2.5 -26q0 -24 10.5 -40t29.5 -27q22 -12 80 -22t89 -12z" />
    <glyph glyph-name="two" unicode="2" horiz-adv-x="1283" 
d="M347 1014q65 43 163 69t215 26q229 0 363.5 -78.5t134.5 -233.5q0 -96 -42.5 -162t-130.5 -113q-77 -41 -192 -73.5t-268 -64.5q-86 -18 -162.5 -43t-140.5 -55l-4 -16h847l-62 -270h-1084l45 200q36 28 81 57t92 56q65 38 132.5 69.5l118.5 54.5q129 57 198.5 95
t111.5 81q49 50 66.5 103t17.5 113q0 92 -49 139t-132 47q-58 0 -94.5 -11t-66.5 -23l29 -85t15 -98q0 -71 -49 -117.5t-128 -46.5q-75 0 -119.5 49t-44.5 119q0 55 35.5 111t103.5 101z" />
    <glyph glyph-name="three" unicode="3" horiz-adv-x="1279" 
d="M768 1109q142 0 231.5 -29.5t139.5 -72.5t69.5 -95t19.5 -98q0 -51 -23.5 -110t-74.5 -111t-134.5 -96t-205.5 -68l-4 -16q65 -2 126.5 -19.5t106.5 -47.5q49 -33 80 -87t31 -131q0 -110 -57.5 -203t-157.5 -158q-106 -69 -226.5 -102.5t-276.5 -33.5q-203 0 -327.5 86
t-124.5 213q0 71 45.5 120t121.5 49q79 0 127.5 -45t48.5 -116q0 -51 -16.5 -101.5t-28.5 -80.5q23 -13 55 -23t76 -10q67 0 131.5 28t113.5 81q54 59 84 135.5t30 198.5q0 78 -41.5 130t-158.5 52h-127l28 117h90q145 0 232 99.5t87 275.5q0 80 -42 127.5t-133 47.5
q-44 0 -93 -13t-81 -30l26 -84.5t15 -93.5q0 -71 -47 -115.5t-126 -44.5q-75 0 -119.5 49t-44.5 119q0 116 160.5 211.5t394.5 95.5z" />
    <glyph glyph-name="four" unicode="4" horiz-adv-x="1330" 
d="M1197 10h-222l-88 -379h-329l88 379h-668l44 194l918 899h287l-205 -886h222zM693 217l150 643l-656 -643h506z" />
    <glyph glyph-name="five" unicode="5" horiz-adv-x="1227" 
d="M431 -369q-198 0 -333.5 87t-135.5 207q0 71 45.5 120t121.5 49q79 0 127.5 -44.5t48.5 -115.5q0 -50 -17 -106t-28 -87q17 -5 57 -11.5t79 -6.5q51 0 111 32.5t109 93.5q53 66 85 148t32 203q0 113 -57 179.5t-161 66.5q-51 0 -90.5 -13t-76.5 -34q-38 -22 -65 -43
t-57 -52l-74 27l256 746h845l-63 -275h-764l-109 -337q93 55 170 78.5t168 23.5q81 0 156 -16.5t145 -62.5q68 -45 109 -115t41 -169q0 -241 -198.5 -407t-476.5 -166z" />
    <glyph glyph-name="six" unicode="6" horiz-adv-x="1327" 
d="M595 -35q-224 0 -357.5 127t-133.5 337q0 401 300 687t792 342l5 -99l-109 -18q-126 -33 -219.5 -92t-158.5 -130q-64 -70 -107.5 -156t-77.5 -181q67 56 160 94t222 38q150 0 251.5 -100t101.5 -260q0 -239 -193.5 -414t-475.5 -175zM892 550q0 105 -48 166t-122 61
q-59 0 -111.5 -22.5t-111.5 -89.5q-7 -31 -25 -119.5t-18 -217.5q0 -132 43.5 -206t115.5 -74q112 0 194.5 146.5t82.5 355.5z" />
    <glyph glyph-name="seven" unicode="7" horiz-adv-x="1160" 
d="M1259 948l-1022 -1317h-170l947 1177h-454q-81 0 -134.5 -1.5t-95.5 -19.5q-32 -14 -66 -63.5t-71 -139.5h-73l114 493h1055z" />
    <glyph glyph-name="eight" unicode="8" horiz-adv-x="1385" 
d="M1363 1156q0 -132 -98 -224t-272 -142q156 -60 230.5 -146.5t74.5 -191.5q0 -207 -197 -348t-505 -141q-232 0 -370 91.5t-138 240.5q0 144 101 245.5t308 148.5q-122 59 -175.5 146t-53.5 182q0 94 49.5 175.5t138.5 142.5q83 57 203.5 91t244.5 34q210 0 334.5 -86.5
t124.5 -217.5zM1032 1174q0 88 -42 145t-122 57q-104 0 -177.5 -78.5t-73.5 -186.5q0 -53 24 -91t65 -68q34 -25 100.5 -60.5l120.5 -65.5q43 67 74 164t31 184zM945 338q0 58 -30 98.5t-81 73.5q-54 35 -128 70t-144 73q-48 -48 -93 -148.5t-45 -212.5q0 -113 59 -178.5
t159 -65.5q136 0 219.5 85.5t83.5 204.5z" />
    <glyph glyph-name="nine" unicode="9" horiz-adv-x="1327" 
d="M1274 641q0 -401 -297 -676t-798 -340l-6 99l110 18q128 34 221.5 90t159.5 128q65 71 112.5 158.5t76.5 173.5q-98 -74 -188 -103t-196 -29q-151 0 -253 106.5t-102 267.5q0 235 193.5 405t473.5 170q225 0 359 -128t134 -340zM923 746q0 131 -43.5 205t-111.5 74
q-113 0 -197 -142t-84 -350q0 -108 45.5 -173t119.5 -65q57 0 116 24.5t112 86.5l25 116.5t18 223.5z" />
    <glyph glyph-name="colon" unicode=":" horiz-adv-x="752" 
d="M674 799q0 -79 -58.5 -137t-138.5 -58q-81 0 -139.5 57.5t-58.5 137.5t58.5 138.5t139.5 58.5q80 0 138.5 -59t58.5 -138zM534 166q0 -79 -58.5 -137t-138.5 -58q-81 0 -139.5 57.5t-58.5 137.5t58.5 138.5t139.5 58.5q80 0 138.5 -59t58.5 -138z" />
    <glyph glyph-name="semicolon" unicode=";" horiz-adv-x="752" 
d="M541 132q0 -155 -127 -299.5t-309 -221.5l-32 71q61 30 104 55t90 71q40 38 70.5 84.5t46.5 107.5h-59q-93 0 -137 37t-44 102q0 78 62.5 139.5t144.5 61.5q98 0 144 -58t46 -150zM674 799q0 -79 -58.5 -137t-138.5 -58q-81 0 -139.5 57.5t-58.5 137.5t58.5 138.5
t139.5 58.5q80 0 138.5 -59t58.5 -138z" />
    <glyph glyph-name="semicolon" unicode="&#x37e;" horiz-adv-x="752" 
d="M541 132q0 -155 -127 -299.5t-309 -221.5l-32 71q61 30 104 55t90 71q40 38 70.5 84.5t46.5 107.5h-59q-93 0 -137 37t-44 102q0 78 62.5 139.5t144.5 61.5q98 0 144 -58t46 -150zM674 799q0 -79 -58.5 -137t-138.5 -58q-81 0 -139.5 57.5t-58.5 137.5t58.5 138.5
t139.5 58.5q80 0 138.5 -59t58.5 -138z" />
    <glyph glyph-name="less" unicode="&#x3c;" horiz-adv-x="1440" 
d="M1231 6l-1000 500v139l1000 500v-188l-786 -382l786 -381v-188z" />
    <glyph glyph-name="equal" unicode="=" horiz-adv-x="1440" 
d="M1277 700h-1070v163h1070v-163zM1277 286h-1070v163h1070v-163z" />
    <glyph glyph-name="greater" unicode="&#x3e;" horiz-adv-x="1440" 
d="M1253 506l-1000 -500v188l786 381l-786 382v188l1000 -500v-139z" />
    <glyph glyph-name="question" unicode="?" horiz-adv-x="1123" 
d="M597 156q0 -76 -57.5 -130.5t-134.5 -54.5q-78 0 -135.5 54.5t-57.5 130.5t57.5 131.5t135.5 55.5q77 0 134.5 -55.5t57.5 -131.5zM720 1452q185 0 308.5 -97.5t123.5 -260.5q0 -224 -172 -365t-456 -161l-29 -136h-86l77 389q175 13 282 98.5t107 244.5q0 97 -51.5 150
t-143.5 53q-38 0 -73 -11t-69 -32q10 -32 20.5 -76t10.5 -82q0 -71 -46.5 -112.5t-125.5 -41.5q-72 0 -116 43t-44 109q0 120 141.5 204t341.5 84z" />
    <glyph glyph-name="at" unicode="@" horiz-adv-x="1980" 
d="M1678 1173q86 -92 129 -210.5t43 -245.5q0 -252 -142.5 -427t-354.5 -175q-110 0 -181 37.5t-91 95.5h-5l-48.5 -50.5t-54.5 -42.5q-32 -18 -60 -26.5t-75 -8.5q-123 0 -191.5 77.5t-68.5 204.5q0 96 40.5 197.5t110.5 185.5q67 81 163.5 133.5t199.5 52.5
q69 0 104.5 -24.5t52.5 -74.5h2l32 87h257l-201 -555q-7 -20 -14 -56t-7 -55q0 -41 18 -64.5t57 -23.5q157 0 252 144.5t95 378.5q0 117 -39 216t-116 173t-193 116.5t-265 42.5q-143 0 -276.5 -53.5t-242.5 -157.5q-107 -102 -172.5 -248t-65.5 -327q0 -177 52 -311.5
t143 -224.5q92 -91 216 -137t274 -46q171 0 303 44.5t236 125.5l39 -62q-114 -91 -256.5 -146.5t-328.5 -55.5q-157 0 -315.5 51t-280.5 149q-123 99 -198.5 250t-75.5 350q0 175 68 336.5t193 287.5q123 124 303.5 200t393.5 76q188 0 321.5 -55.5t220.5 -148.5zM1209 760
q-1 55 -27.5 90t-78.5 35q-50 0 -96.5 -45t-83.5 -118q-37 -72 -58 -164.5t-21 -181.5q0 -68 19.5 -104t62.5 -36q38 0 68 19.5t62 63.5z" />
    <glyph glyph-name="A" unicode="A" horiz-adv-x="1553" 
d="M892 571l-87 517l-324 -517h411zM732 0l17 73q103 8 160.5 25.5t57.5 38.5q0 18 -2 31t-5 30l-50 279h-489l-60.5 -97.5l-61.5 -103.5q-38 -68 -44.5 -93t-6.5 -32q0 -30 47 -49.5t144 -28.5l-17 -73h-596l17 73q29 2 73 10t74 24q42 22 79 57t69 85l373 576.5l394 613.5
h198l127.5 -741t88.5 -490q5 -30 19.5 -54.5t46.5 -46.5q24 -16 58.5 -24t64.5 -10l-17 -73h-759z" />
    <glyph glyph-name="B" unicode="B" horiz-adv-x="1555" 
d="M1131 1142q0 99 -62.5 145t-164.5 46q-20 0 -47 -1.5t-42 -2.5l-124 -534h67q172 0 272.5 95.5t100.5 251.5zM1053 469q0 115 -74 176.5t-219 61.5q-20 0 -49.5 -1.5t-40.5 -2.5l-122 -528q1 -37 55 -63t120 -26q133 0 231.5 107t98.5 276zM1026 1419q257 0 377.5 -63.5
t120.5 -194.5q0 -87 -38.5 -153t-101.5 -111q-63 -46 -145.5 -77t-170.5 -49l-4 -19q69 -7 140.5 -29.5t122.5 -57.5q55 -37 87 -90t32 -129q0 -219 -183.5 -332.5t-541.5 -113.5h-776l17 73q25 1 74.5 7.5t73.5 14.5q39 13 59.5 39t28.5 61l229 992q5 21 7 35t2 21
q0 42 -42.5 65.5t-138.5 37.5l17 73h754z" />
    <glyph glyph-name="C" unicode="C" horiz-adv-x="1465" 
d="M721 -38q-137 0 -254 40.5t-202 116.5q-84 76 -131 185.5t-47 247.5q0 183 67.5 345t190.5 289q118 122 288.5 196.5t362.5 74.5q116 0 235 -28t178 -65l75 55h87l-111 -518h-88q-20 227 -120.5 345.5t-258.5 118.5q-116 0 -214 -69t-174 -212q-62 -118 -94.5 -273.5
t-32.5 -291.5q0 -200 97 -311t260 -111q143 0 265 80t235 231l77 -52q-49 -76 -117 -149.5t-155 -127.5q-91 -57 -187.5 -87t-231.5 -30z" />
    <glyph glyph-name="D" unicode="D" horiz-adv-x="1708" 
d="M1448 1304q111 -69 174 -180.5t63 -263.5q0 -190 -75 -351t-212 -274q-136 -114 -316 -174.5t-397 -60.5h-740l17 73q25 1 74.5 6.5t73.5 13.5q39 13 59.5 40t28.5 62l229 992q5 21 7 35t2 21q0 42 -42.5 65.5t-138.5 37.5l17 73h727q112 0 230.5 -26.5t218.5 -88.5z
M1152 349q71 121 105 263.5t34 297.5q0 194 -88 308.5t-265 114.5q-35 0 -69.5 -1.5t-54.5 -2.5l-245 -1065q-4 -15 -7 -36.5t-3 -30.5q0 -63 46.5 -87t130.5 -24q136 0 241.5 72t174.5 191z" />
    <glyph glyph-name="E" unicode="E" horiz-adv-x="1477" 
d="M1520 1419l-83 -362h-76q-14 95 -67.5 174.5t-112.5 92.5q-28 7 -81 8.5t-88 1.5h-196l-128 -555h136q75 0 117.5 16.5t79.5 46.5q28 23 65.5 82.5t53.5 101.5h76l-137 -592h-76v37q0 45 -9.5 92.5t-22.5 66.5q-26 38 -69 50.5t-98 12.5h-136l-91 -395q-7 -30 -13 -65
t-6 -50q0 -64 42 -80.5t155 -16.5q144 0 210 12.5t99 38.5q60 50 144 153t114 152h73l-129 -442h-1321l17 73q25 1 74.5 6.5t73.5 13.5q39 13 59.5 40t28.5 62l229 992q5 21 7 35t2 21q0 42 -42.5 65.5t-138.5 37.5l17 73h1248z" />
    <glyph glyph-name="F" unicode="F" horiz-adv-x="1375" 
d="M1548 1419l-88 -379h-77q-11 94 -64.5 185t-112.5 99q-30 4 -78.5 7t-90.5 3h-221l-131 -565h141q55 0 103.5 14t93.5 51q31 25 68 83t52 101h76l-138 -597h-75v31q0 52 -10.5 99.5t-22.5 64.5q-24 35 -63.5 51t-102.5 16h-141l-106 -457q-4 -17 -6.5 -32t-2.5 -23
q0 -45 37 -66t141 -32l-17 -73h-767l17 73q25 1 74.5 7.5t73.5 14.5q39 13 59.5 39t28.5 61l229 992q5 21 7 35t2 21q0 42 -42.5 65.5t-138.5 37.5l17 73h1276z" />
    <glyph glyph-name="G" unicode="G" horiz-adv-x="1653" 
d="M725 -39q-136 0 -252 38.5t-202 113.5q-87 75 -135.5 183t-48.5 243q0 200 70.5 367.5t196.5 291.5q124 122 296.5 190.5t372.5 68.5q121 0 240.5 -29.5t179.5 -63.5l74 55h87l-110 -518h-88q-22 231 -123.5 347.5t-262.5 116.5q-128 0 -228 -76t-169 -197
q-68 -118 -105.5 -281.5t-37.5 -322.5q0 -198 77.5 -314.5t228.5 -116.5q82 0 142 27t106 66l63 271q4 18 6.5 33.5t2.5 24.5q0 42 -52 65.5t-148 37.5l17 73h768l-17 -73q-31 -2 -72 -10t-66 -15q-42 -13 -61 -40.5t-27 -60.5l-40 -173q-10 -44 -16.5 -79.5l-13.5 -76.5
q-115 -66 -304.5 -116t-348.5 -50z" />
    <glyph glyph-name="H" unicode="H" horiz-adv-x="1870" 
d="M1994 1419l-17 -73q-31 -2 -78 -10t-71 -15q-41 -13 -60.5 -40.5t-27.5 -61.5l-229 -993q-4 -17 -6.5 -32t-2.5 -23q0 -45 38.5 -66.5t143.5 -31.5l-17 -73h-767l17 73q26 2 74 6t69 12q39 14 60 40t29 62l113 497h-596l-106 -464q-4 -17 -6.5 -32t-2.5 -23q0 -45 37 -66
t141 -32l-17 -73h-767l17 73q25 1 74.5 6.5t73.5 13.5q39 13 59.5 40t28.5 62l229 992q5 21 7 35t2 21q0 42 -42.5 65.5t-138.5 37.5l17 73h767l-17 -73q-31 -2 -75.5 -10t-69.5 -15q-42 -13 -61 -41.5t-27 -60.5l-99 -431h596l92 399q5 21 7 35t2 21q0 42 -41 64.5
t-136 38.5l17 73h767z" />
    <glyph glyph-name="I" unicode="I" horiz-adv-x="923" 
d="M-61 0l17 73q29 1 79 6.5t77 14.5q39 13 59.5 39.5t28.5 61.5l229 992q5 21 7 35t2 21q0 42 -46.5 65.5t-142.5 37.5l17 73h787l-17 -73q-32 -2 -82 -9.5t-75 -15.5q-41 -13 -60.5 -40.5t-27.5 -61.5l-229 -993q-4 -17 -6.5 -32t-2.5 -23q0 -50 46.5 -69.5t143.5 -28.5
l-17 -73h-787z" />
    <glyph glyph-name="J" unicode="J" horiz-adv-x="1219" 
d="M947 432q-27 -115 -87.5 -203.5t-139.5 -146.5q-78 -57 -170 -88.5t-186 -31.5q-188 0 -299.5 89t-111.5 243q0 95 55 157.5t147 62.5q89 0 138 -50.5t49 -126.5q0 -40 -19 -78t-67 -83l-62 -58v-13q9 -24 39 -36.5t61 -12.5q104 0 177.5 87.5t112.5 259.5l181 784
q5 21 7 35t2 21q0 42 -43.5 65.5t-139.5 37.5l17 73h766l-17 -73q-31 -2 -73.5 -10t-67.5 -15q-42 -13 -60 -38t-28 -64z" />
    <glyph glyph-name="K" unicode="K" horiz-adv-x="1673" 
d="M560 226q-4 -17 -6.5 -32t-2.5 -23q0 -45 37 -66t141 -32l-17 -73h-767l17 73q25 1 74.5 6.5t73.5 13.5q39 13 59.5 40t28.5 62l229 992q5 21 7 35t2 21q0 42 -42.5 65.5t-138.5 37.5l17 73h767l-17 -73q-31 -2 -75.5 -10t-69.5 -15q-42 -13 -61 -41.5t-27 -60.5
l-111 -483h42l232 180t205 172q93 85 143.5 139t50.5 82q0 15 -32 23.5t-106 13.5l17 73h617l-17 -73q-112 -12 -197.5 -47t-171.5 -99q-139 -105 -238 -190l-210 -176l166.5 -273l197.5 -320q31 -52 64 -86t82 -58q22 -11 53 -17t53 -7l-17 -73h-532q-83 190 -166 331.5
l-194 323.5h-61z" />
    <glyph glyph-name="L" unicode="L" horiz-adv-x="1404" 
d="M1385 455l-133 -455h-1307l17 73q25 1 74.5 7.5t73.5 14.5q40 13 60 39t28 61l229 992q5 21 7 35t2 21q0 42 -42.5 65.5t-138.5 37.5l17 73h780l-17 -73q-32 -2 -82 -9.5t-76 -15.5q-42 -13 -61 -41.5t-27 -60.5l-217 -943q-7 -29 -11 -56.5t-4 -42.5q0 -58 42.5 -74.5
t173.5 -16.5q80 0 159 12t118 44q62 50 138 143.5t124 169.5h73z" />
    <glyph glyph-name="M" unicode="M" horiz-adv-x="2116" 
d="M2246 1419l-17 -73q-31 -2 -77 -10t-70 -15q-41 -13 -60.5 -41t-27.5 -61l-223 -993l-6 -30t-3 -25q0 -45 37 -66t145 -32l-17 -73h-767l17 73q40 5 82 11t64 14q41 15 63 40.5t31 66.5l240 1065h-10l-771 -1247h-126q-2 39 -14 125.5l-22 162.5l-136 975h-10l-200 -869
q-12 -50 -19 -97.5t-7 -84.5q0 -40 8.5 -62.5t23.5 -37.5q21 -21 78.5 -39.5t85.5 -22.5l-17 -73h-610l17 73q26 3 85 13.5t101 36.5q45 28 74.5 92.5t58.5 191.5l162 701q8 36 10.5 55t2.5 37q0 31 -8.5 54t-25.5 40q-31 30 -73 39.5t-82 12.5l17 73h649l136 -937l465 761
q31 52 56 107t29 69h661z" />
    <glyph glyph-name="N" unicode="N" horiz-adv-x="1699" 
d="M1883 1419l-17 -73q-28 -3 -81.5 -10.5t-104.5 -39.5q-43 -27 -73.5 -93t-60.5 -193l-235 -1018h-168l-613 1137l-162 -710q-13 -56 -20 -105t-7 -78q0 -41 8 -63.5t23 -37.5q23 -23 80.5 -40t85.5 -22l-17 -73h-610l17 73q27 4 85.5 14t100.5 36q44 28 74 91.5t59 193.5
l154 668q5 23 8.5 43.5t3.5 37.5q0 30 -7 57.5t-26 50.5q-28 34 -69 52.5t-96 28.5l18 73h524l536 -1000l133 581q14 64 20.5 104.5t6.5 75.5q0 39 -8.5 63.5t-24.5 40.5q-22 22 -77.5 39.5t-85.5 22.5l17 73h609z" />
    <glyph glyph-name="O" unicode="O" horiz-adv-x="1679" 
d="M1661 875q0 -180 -67.5 -347.5t-189.5 -291.5q-125 -127 -294 -201t-383 -74q-280 0 -460 161.5t-180 422.5q0 190 73 357.5t202 292.5q126 123 295.5 193t357.5 70q282 0 464 -158t182 -425zM1138 351q68 138 101 300.5t33 320.5q0 183 -70 288t-209 105
q-122 0 -218.5 -82t-162.5 -213t-101 -296t-35 -328q0 -177 70 -284.5t210 -107.5q121 0 219.5 84t162.5 213z" />
    <glyph glyph-name="P" unicode="P" horiz-adv-x="1446" 
d="M1532 1121q0 -123 -56.5 -220.5t-162.5 -163.5q-105 -64 -234.5 -95t-285.5 -31h-144l-89 -385q-4 -17 -6.5 -32t-2.5 -23q0 -45 37 -66t145 -32l-17 -73h-771l17 73q25 1 74.5 7.5t73.5 14.5q39 13 59.5 39t28.5 61l229 992q5 21 7 35t2 21q0 42 -42.5 65.5t-138.5 37.5
l17 73h769q248 0 369.5 -73t121.5 -225zM1136 1118q0 108 -58 161.5t-189 53.5h-73l-146 -633h65q108 0 185.5 32.5t125.5 90.5q46 56 68 131t22 164z" />
    <glyph glyph-name="Q" unicode="Q" horiz-adv-x="1679" 
d="M1661 875q0 -147 -45.5 -286.5t-128.5 -252.5q-84 -115 -202.5 -201.5t-266.5 -130.5v-53q0 -108 52 -172t139 -64q44 0 97.5 7t89.5 16l-16 -80q-69 -29 -190.5 -51t-225.5 -22q-146 0 -232.5 82t-86.5 242v57q-247 27 -402.5 178.5t-155.5 400.5q0 190 73 357.5
t202 292.5q126 123 295.5 193t357.5 70q282 0 464 -158t182 -425zM1272 972q0 183 -70 288t-209 105q-122 0 -218.5 -82t-162.5 -213t-101 -296t-35 -328q0 -177 70 -284.5t210 -107.5q121 0 219.5 84t162.5 213q68 138 101 300.5t33 320.5z" />
    <glyph glyph-name="R" unicode="R" horiz-adv-x="1633" 
d="M1147 1121q0 107 -67.5 159.5t-195.5 52.5h-68l-139 -603h97q163 0 268 102.5t105 288.5zM560 226q-4 -17 -6.5 -32t-2.5 -23q0 -45 37 -66t141 -32l-17 -73h-767l17 73q25 1 74.5 7.5t73.5 14.5q39 13 59.5 39t28.5 61l229 992q5 21 7 35t2 21q0 42 -42.5 65.5
t-138.5 37.5l17 73h782q244 0 366.5 -69t122.5 -209q0 -165 -119 -276.5t-336 -163.5l103.5 -186.5l145.5 -256.5q24 -43 62.5 -97.5t81.5 -69.5q21 -7 58 -12t53 -6l-18 -73h-518q-94 215 -160.5 344.5t-166.5 298.5h-72z" />
    <glyph glyph-name="S" unicode="S" horiz-adv-x="1337" 
d="M575 -38q-118 0 -237.5 29t-209.5 79l-86 -70h-85l106 513h86q12 -75 44 -155.5t83 -143.5q50 -65 127 -108t176 -43q145 0 232 70.5t87 185.5q0 74 -49.5 130t-159.5 96l-135.5 48.5t-124.5 48.5q-117 49 -176 139.5t-59 192.5q0 94 43 180.5t124 154.5
q79 67 195.5 107.5t255.5 40.5q116 0 230 -33.5t168 -64.5l75 60h87l-104 -484h-86q-13 85 -37.5 160t-67.5 135q-42 58 -104.5 92.5t-150.5 34.5q-122 0 -203.5 -68t-81.5 -171q0 -72 49 -126t155 -94l130 -47.5t130 -50.5q116 -48 183 -130.5t67 -195.5q0 -107 -49 -201
t-137 -162q-93 -72 -217 -110.5t-273 -38.5z" />
    <glyph glyph-name="T" unicode="T" horiz-adv-x="1401" 
d="M1591 1419l-94 -406h-77q-4 34 -15.5 85t-31.5 101q-21 52 -45.5 86t-58.5 40q-30 4 -76.5 7t-80.5 3h-50l-255 -1103q-4 -17 -6.5 -32.5t-2.5 -22.5q0 -24 9.5 -42.5t35.5 -29.5q24 -10 70 -19.5t76 -12.5l-17 -73h-791l17 73q28 2 82 8t77 14q40 16 60 43t28 64
l262 1133h-39q-38 0 -76.5 -2.5t-87.5 -7.5q-36 -5 -80.5 -43t-86.5 -83q-50 -56 -82.5 -101.5t-55.5 -84.5h-77l94 406h1375z" />
    <glyph glyph-name="U" unicode="U" horiz-adv-x="1707" 
d="M755 -39q-260 0 -398.5 100.5t-138.5 283.5q0 32 4 64.5t12 70.5l164 709q5 21 7 33t2 21q0 42 -40 65t-139 38l17 73h760l-17 -73q-33 -2 -72 -8.5t-66 -14.5q-41 -12 -60 -39.5t-27 -62.5l-162 -699q-10 -42 -16 -91t-6 -82q0 -129 74 -190.5t216 -61.5
q172 0 297.5 114.5t168.5 303.5l112 486q14 62 20.5 106t6.5 74q0 38 -8.5 63t-24.5 40q-25 23 -82.5 40.5t-83.5 21.5l17 73h615l-17 -73q-30 -3 -86.5 -13.5t-100.5 -36.5q-44 -25 -74.5 -91.5t-60.5 -193.5l-123 -533q-58 -248 -243.5 -382.5t-446.5 -134.5z" />
    <glyph glyph-name="V" unicode="V" horiz-adv-x="1561" 
d="M1787 1346q-31 -3 -63 -13.5t-70 -28.5q-48 -23 -78 -52t-65 -80l-128 -193.5l-204 -312.5l-235 -362.5l-205 -319.5h-201l-132 743l-83 451q-12 54 -30.5 79.5t-53.5 48.5q-28 18 -53 26.5t-64 13.5l17 73h753l-18 -73q-82 -9 -122 -18.5t-59 -19.5q-18 -9 -20 -21
t-2 -21q0 -22 4 -45t10 -63q19 -118 57 -319t92 -515l244 387.5l214 344.5q43 70 74.5 131t31.5 83q0 30 -51.5 50t-148.5 26l18 73h589z" />
    <glyph glyph-name="W" unicode="W" horiz-adv-x="2307" 
d="M2549 1419l-18 -73q-33 -3 -66 -15t-64 -27q-48 -24 -75 -53.5t-56 -78.5l-288 -494l-400 -694h-208l-128 1048l-576 -1048h-200l-77.5 705l-53.5 487q-7 53 -22.5 78.5t-53.5 52.5q-24 17 -52 25.5t-65 13.5l17 73h742l-18 -73q-72 -8 -112 -17t-60 -20
q-18 -10 -21 -22.5t-3 -25.5q0 -20 2 -46.5t5 -57.5q8 -94 29.5 -297.5l48.5 -474.5l559 1034h213l129 -1066l221 401.5l162 302.5q37 71 64.5 132t27.5 79q0 31 -52.5 51t-153.5 27l18 73h585z" />
    <glyph glyph-name="X" unicode="X" horiz-adv-x="1643" 
d="M1792 1419l-17 -73q-40 -1 -70.5 -9.5t-51.5 -16.5q-67 -27 -120 -70.5l-110 -94.5l-188 -172l-215 -198q84 -185 135.5 -288l113.5 -232q23 -48 55.5 -94.5t85.5 -69.5q25 -10 53.5 -17.5t77.5 -10.5l-17 -73h-834l17 73q133 8 172.5 24t39.5 46q0 16 -7 41.5t-30 81.5
l-55 129l-83 183l-176 -168l-142 -141q-73 -74 -87.5 -100.5t-14.5 -39.5q0 -20 30.5 -34.5t118.5 -21.5l-17 -73h-575l17 73q43 3 64 7.5t57 18.5q65 28 117 68t114 97l203 186l244 227l-113 242l-114 235q-26 53 -58 96t-86 67q-27 12 -52 18.5t-77 10.5l17 73h836
l-17 -73q-81 -4 -147.5 -18t-66.5 -54q0 -17 6.5 -39.5t25.5 -69.5q20 -50 46.5 -108.5l76.5 -173.5l174 167.5t118 120.5q68 74 75.5 91.5t7.5 28.5q0 9 -6 17t-24 16q-18 7 -46.5 12.5t-74.5 9.5l17 73h577z" />
    <glyph glyph-name="Y" unicode="Y" horiz-adv-x="1499" 
d="M1770 1419l-17 -73q-34 -4 -63 -12t-67 -28q-48 -24 -86.5 -57.5t-88.5 -87.5l-181.5 -201l-217.5 -254q-88 -102 -106 -143.5t-41 -144.5l-43 -186q-4 -17 -6.5 -32.5t-2.5 -22.5q0 -24 9.5 -42.5t35.5 -29.5q24 -10 70 -19.5t76 -12.5l-17 -73h-791l17 73q28 2 82 8
t77 14q38 15 59 43t29 64l59 255l11 49.5t5 37.5q0 21 -11 54l-29 84l-90.5 259t-85.5 227q-20 52 -46.5 87.5t-58.5 57.5q-24 15 -59.5 23t-66.5 10l17 73h793l-17 -73q-103 -3 -153.5 -16.5t-50.5 -41.5q0 -13 8.5 -51.5t36.5 -127.5q21 -68 59.5 -176.5l85.5 -238.5
l231.5 270.5t144.5 172.5q74 92 85 113.5t11 31.5q0 31 -47.5 45.5t-115.5 18.5l17 73h540z" />
    <glyph glyph-name="Z" unicode="Z" horiz-adv-x="1412" 
d="M1563 1419l-14 -61l-1186 -1271h339q168 0 232.5 16.5t100.5 50.5q66 62 141.5 153.5t131.5 171.5h75l-159 -479h-1322l15 61l1186 1271h-291q-95 0 -138 -5.5t-85 -22.5q-46 -16 -120 -91t-193 -227h-81l144 433h1224z" />
    <glyph glyph-name="bracketleft" unicode="[" horiz-adv-x="915" 
d="M651 -310h-662l422 1829h662l-22 -95h-347l-378 -1638h347z" />
    <glyph glyph-name="backslash" unicode="\" horiz-adv-x="966" 
d="M778 -424h-174l-349 1947h176z" />
    <glyph glyph-name="bracketright" unicode="]" horiz-adv-x="915" 
d="M537 -310h-662l22 96h347l378 1638h-347l22 95h662z" />
    <glyph glyph-name="asciicircum" unicode="^" horiz-adv-x="1440" 
d="M1272 760h-196l-317 513l-317 -513h-194l442 696h140z" />
    <glyph glyph-name="underscore" unicode="_" horiz-adv-x="1440" 
d="M1262 -301h-1450l27 120h1450z" />
    <glyph glyph-name="grave" unicode="`" 
d="M857 1139l-46 -38q-131 88 -227 144t-136 84q-35 26 -52 50t-17 60t31.5 72.5t82.5 36.5q63 0 100 -24t74 -80q29 -44 77.5 -126t112.5 -179z" />
    <glyph glyph-name="a" unicode="a" horiz-adv-x="1352" 
d="M760 125h-8l-66.5 -55t-79.5 -50q-42 -22 -88.5 -36.5t-102.5 -14.5q-174 0 -262 102.5t-88 280.5q0 137 49 257t131 211q83 90 194 142.5t234 52.5q90 0 157.5 -21t110.5 -57l307 63l14 -16l-147 -615q-8 -31 -17 -77.5t-9 -70.5q0 -57 26 -78.5t90 -21.5q28 0 67.5 11
t55.5 18l-22 -90q-99 -39 -158.5 -59.5t-137.5 -20.5q-103 0 -164.5 40.5t-85.5 104.5zM879 759q0 22 -6 52t-21 51q-18 26 -47 39.5t-72 13.5q-66 0 -121.5 -47.5t-98.5 -126.5q-42 -78 -66 -181.5t-24 -211.5q0 -49 7.5 -91t24.5 -71q18 -31 48.5 -48t76.5 -17
q47 0 90.5 27.5t80.5 67.5z" />
    <glyph glyph-name="b" unicode="b" horiz-adv-x="1329" 
d="M1264 632q0 -136 -46 -258.5t-132 -210.5q-91 -93 -216 -144t-278 -51q-37 0 -109 8t-129 28q-72 25 -135.5 71t-111.5 120l251 1078q4 17 6 32t2 25q0 33 -12.5 55t-35.5 35q-23 12 -54.5 18t-72.5 10l18 74l527 26l11 -16l-151 -648h7q23 19 50 38.5t72 43.5
q34 18 89.5 33.5t100.5 15.5q174 0 261.5 -102.5t87.5 -280.5zM906 636q0 49 -7 90.5t-25 71.5q-18 31 -48.5 48t-76.5 17q-51 0 -97 -28.5t-82 -66.5l-126 -558q0 -24 7 -49t27 -52q20 -28 44 -43t69 -15q68 0 127.5 50.5t99.5 132.5q44 88 66 185.5t22 216.5z" />
    <glyph glyph-name="c" unicode="c" horiz-adv-x="1097" 
d="M557 -33q-230 0 -358.5 115t-128.5 316q0 121 41 229.5t126 197.5q79 84 203 137t277 53q177 0 270.5 -65t93.5 -179q0 -31 -10 -69t-30 -64q-25 -32 -54.5 -49t-88.5 -17q-78 0 -121.5 38.5t-43.5 80.5q0 50 21 99t53 103q-9 11 -36.5 27t-71.5 16q-117 0 -194 -141.5
t-77 -350.5q0 -159 58.5 -241t166.5 -82q110 0 183.5 42.5t150.5 145.5l72 -61q-82 -127 -217 -204t-285 -77z" />
    <glyph glyph-name="d" unicode="d" horiz-adv-x="1357" 
d="M766 125h-8l-67 -55t-82 -50q-47 -24 -91.5 -37.5t-102.5 -13.5q-174 0 -262 102.5t-88 280.5q0 137 48 257t130 211q81 90 192 142.5t233 52.5q92 0 154 -19.5t103 -51.5l74 325q3 14 5.5 30.5t2.5 26.5q0 33 -17 56t-47 36q-28 13 -64 19t-79 11l18 74l561 26l11 -16
l-269 -1163q-7 -29 -16.5 -76.5t-9.5 -71.5q0 -57 25.5 -78.5t89.5 -21.5q28 0 67.5 11t55.5 18l-22 -90q-99 -39 -158 -59.5t-137 -20.5q-103 0 -164.5 40.5t-85.5 104.5zM884 765q0 25 -6.5 51.5t-25.5 50.5q-19 25 -47 39.5t-76 14.5q-64 0 -119.5 -47.5t-98.5 -129.5
q-40 -76 -64 -180.5t-24 -215.5q0 -49 7.5 -91t24.5 -71q18 -31 48.5 -48t76.5 -17q47 0 93.5 27.5t83.5 67.5z" />
    <glyph glyph-name="e" unicode="e" horiz-adv-x="1141" 
d="M546 -33q-120 0 -210.5 32.5t-149.5 90.5q-58 58 -87 135t-29 170q0 118 44 229t131 200q82 85 208 138t278 53q179 0 272.5 -57t93.5 -171q0 -109 -81 -187.5t-220 -116.5q-110 -33 -187.5 -47t-189.5 -26q2 -44 12 -99t30 -94q24 -45 68 -71.5t112 -26.5
q118 0 200.5 45.5t157.5 144.5l73 -61q-90 -128 -230.5 -204.5t-295.5 -76.5zM772 759q0 85 -31 130.5t-86 45.5q-77 0 -145.5 -125.5t-87.5 -317.5q59 7 117 18t92 26q75 33 108 85t33 138z" />
    <glyph glyph-name="f" unicode="f" horiz-adv-x="780" 
d="M620 868l-86.5 -428.5t-87.5 -379.5q-25 -97 -82.5 -190.5t-135.5 -161.5q-82 -72 -177.5 -112t-196.5 -40q-91 0 -147.5 18t-88.5 46q-31 28 -42 62t-11 67q0 58 41.5 102.5t111.5 44.5q54 0 93.5 -28.5t67.5 -68.5q28 -39 49.5 -87l33.5 -75q42 46 79 138.5t69 246.5
l179 846h-194l24 103h192l17 77q21 94 76.5 184.5t134.5 161.5q76 70 175.5 114t199.5 44q87 0 144.5 -16.5t90.5 -45.5q30 -27 40.5 -60.5t10.5 -66.5q0 -22 -8.5 -49t-26.5 -49q-22 -25 -46.5 -39t-71.5 -14q-54 0 -93 28.5t-66 67.5q-29 41 -49 88t-33 75
q-41 -47 -74 -137t-68 -248l-25 -115h253l-24 -103h-248z" />
    <glyph glyph-name="g" unicode="g" horiz-adv-x="1330" 
d="M750 105h-8q-25 -20 -58 -43t-71 -40q-46 -22 -86 -33.5t-101 -11.5q-174 0 -267.5 102t-93.5 280q0 135 48 253.5t130 209.5q81 89 191.5 141t233.5 52q90 0 159 -19t119 -59l305 63l14 -16l-170 -813q-40 -182 -111 -300.5t-165 -188.5q-96 -71 -200.5 -98.5
t-219.5 -27.5q-123 0 -200.5 18.5t-118.5 47.5q-40 28 -54.5 62.5t-14.5 67.5q0 57 40.5 102.5t112.5 45.5q54 0 96.5 -29t74.5 -70q29 -37 54 -85.5t38 -78.5q46 8 91.5 26t87.5 68q40 48 76.5 133t67.5 241zM884 760q0 25 -6.5 51.5t-25.5 50.5q-19 25 -47 39.5t-76 14.5
q-65 0 -120 -46.5t-97 -124.5q-41 -77 -65 -179.5t-24 -211.5q0 -48 8.5 -88.5t29.5 -72.5t54.5 -48t75.5 -16q49 0 100.5 30t82.5 64z" />
    <glyph glyph-name="h" unicode="h" horiz-adv-x="1383" 
d="M1354 151l-22 -88q-99 -39 -158 -59.5t-137 -20.5q-119 0 -185.5 59.5t-66.5 147.5q0 28 2.5 62t17.5 93l72 266q11 43 16.5 77.5t5.5 56.5q0 48 -23 75t-78 27q-34 0 -97 -26.5t-141 -98.5l-165 -722h-331l294 1273q4 17 6 32t2 25q0 36 -12 57t-36 34t-55 18t-72 9
l18 74l527 26l11 -16l-160 -692h7q93 82 193 128.5t215 46.5q111 0 173.5 -61t62.5 -148q0 -23 -3.5 -64.5t-16.5 -88.5l-76 -281q-10 -35 -18 -80t-8 -68q0 -58 25.5 -80t89.5 -22q30 0 68 10.5t55 18.5z" />
    <glyph glyph-name="i" unicode="i" horiz-adv-x="749" 
d="M713 143l-22 -90q-99 -39 -158 -59.5t-137 -20.5q-120 0 -186.5 58.5t-66.5 148.5q0 35 5 71.5t16 82.5l82 292q11 42 18.5 79.5t7.5 68.5q0 56 -23 78t-88 22q-32 0 -65.5 -10t-57.5 -19l22 90q81 33 155 56.5t140 23.5q119 0 183.5 -57.5t64.5 -149.5q0 -19 -4.5 -67
t-16.5 -88l-82 -291q-10 -35 -18 -80t-8 -68q0 -58 26 -79t90 -21q30 0 68 10.5t55 18.5zM734 1364q0 -76 -57.5 -129.5t-138.5 -53.5t-139 53.5t-58 129.5t58 130t139 54t138.5 -54t57.5 -130z" />
    <glyph glyph-name="j" unicode="j" horiz-adv-x="747" 
d="M627 808q0 -19 -2 -52t-10 -73l-62 -324t-71 -299q-27 -102 -81 -191t-134 -161q-83 -74 -168.5 -113t-191.5 -39q-90 0 -145.5 18t-86.5 46t-42 62t-11 67q0 59 42 103t111 44q54 0 93.5 -28.5t67.5 -68.5q28 -39 49.5 -87l33.5 -75q33 58 64.5 148.5t64.5 236.5
q41 181 72.5 337l58.5 300l9.5 56t5.5 59q0 50 -25 75t-89 25q-33 0 -68 -10.5l-60 -18.5l22 90q81 33 159.5 56.5t144.5 23.5q119 0 184 -57.5t65 -149.5zM742 1364q0 -76 -57.5 -129.5t-138.5 -53.5t-139 53.5t-58 129.5t58 130t139 54t138.5 -54t57.5 -130z" />
    <glyph glyph-name="k" unicode="k" horiz-adv-x="1313" 
d="M1297 858q0 -71 -51.5 -126t-127.5 -55q-63 0 -117 28.5t-95 59.5l-39 -25.5t-79 -64.5l101 -255t83 -192q33 -63 62.5 -89t103.5 -26q26 0 65 10t64 20l-22 -90q-99 -42 -173 -61t-132 -19q-28 0 -70.5 4t-73.5 18q-39 18 -71.5 50t-63.5 102q-44 99 -62.5 151.5
l-51.5 142.5l-66 -62l-86 -379h-331l294 1273q4 17 6 32t2 25q0 36 -12 57t-36 34t-55 18t-72 9l18 74l527 26l11 -16l-240 -1040h8q120 135 189.5 206.5l150.5 150.5q98 95 156.5 130.5t129.5 35.5q72 0 114 -40t42 -117z" />
    <glyph glyph-name="l" unicode="l" horiz-adv-x="726" 
d="M746 1532l-269 -1170q-7 -29 -16.5 -77t-9.5 -71q0 -58 29 -79t96 -21q25 0 68 10.5t61 18.5l-22 -90q-99 -39 -162 -59.5t-143 -20.5q-120 0 -189 58.5t-69 148.5q0 37 6.5 77t14.5 77l216 939q4 17 6 32t2 25q0 36 -12 57t-36 34t-55 18t-72 9l18 74l527 26z" />
    <glyph glyph-name="m" unicode="m" horiz-adv-x="2052" 
d="M2023 153l-22 -90q-99 -39 -158 -59.5t-137 -20.5q-119 0 -185 59.5t-66 147.5q0 24 2.5 61.5t16.5 93.5l72 266q11 43 16.5 77.5t5.5 56.5q0 48 -24 75t-78 27q-38 0 -96.5 -34t-118.5 -91l-165 -722h-331l140 610q11 50 16.5 81t5.5 54q0 48 -24 75t-79 27
q-31 0 -86 -25t-138 -100l-165 -722h-331l142 615l15.5 74t9.5 74q0 57 -22 78.5t-87 21.5q-32 0 -65.5 -10t-57.5 -19l22 90q81 33 155 56.5t140 23.5q122 0 176 -49.5t76 -127.5h7q100 92 193 140t214 48q103 0 169 -55t73 -136h7q107 92 199 141.5t210 49.5
q111 0 174 -61t63 -148q0 -23 -3.5 -64.5t-16.5 -88.5l-76 -281q-10 -35 -18 -80t-8 -68q0 -58 25.5 -79t89.5 -21q30 0 68 10.5t55 18.5z" />
    <glyph glyph-name="n" unicode="n" horiz-adv-x="1413" 
d="M1384 153l-22 -90q-99 -39 -158 -59.5t-137 -20.5q-119 0 -185 59.5t-66 147.5q0 24 2.5 61.5t16.5 93.5l72 266q11 43 16.5 77.5t5.5 56.5q0 48 -23 75t-78 27q-34 0 -97 -26.5t-141 -98.5l-165 -722h-331l142 615l15.5 73t9.5 75q0 57 -23.5 78.5t-85.5 21.5
q-32 0 -65.5 -10t-57.5 -19l22 90q81 33 155 56.5t140 23.5q118 0 176.5 -46.5t77.5 -130.5h7q98 89 202.5 138.5t222.5 49.5q111 0 173.5 -61t62.5 -148q0 -23 -3.5 -64.5t-16.5 -88.5l-76 -281q-10 -35 -18 -80t-8 -68q0 -58 25.5 -79t89.5 -21q30 0 68 10.5t55 18.5z" />
    <glyph glyph-name="o" unicode="o" horiz-adv-x="1302" 
d="M1235 599q0 -126 -48 -241t-136 -200q-95 -91 -222.5 -140.5t-286.5 -49.5q-213 0 -344 113.5t-131 309.5q0 133 49.5 247t138.5 199q88 83 216 131.5t277 48.5q226 0 356.5 -110.5t130.5 -307.5zM883 712q0 117 -39.5 172t-114.5 55q-77 0 -141 -61.5t-104 -180.5
q-35 -99 -50 -214.5t-15 -206.5q0 -121 40 -175.5t116 -54.5q82 0 142 67t95 165q35 96 53 212.5t18 221.5z" />
    <glyph glyph-name="p" unicode="p" horiz-adv-x="1357" 
d="M1292 632q0 -134 -47.5 -255.5t-129.5 -210.5q-85 -92 -191 -142t-234 -50q-96 0 -154.5 18.5t-101.5 52.5l-61 -266q-3 -12 -6 -28.5t-3 -23.5q0 -23 10 -42t30 -28q22 -10 71 -19.5t81 -11.5l-16 -70h-722l16 70q26 2 65 7.5t59 11.5q34 11 52 34.5t26 63.5l198 872
l15.5 74t9.5 74q0 53 -22 76.5t-87 23.5q-30 0 -65 -10t-58 -19l22 90q81 33 155 56.5t140 23.5q55 0 97 -10.5t74 -33.5q27 -19 44.5 -46t29.5 -55h8q92 80 179 118t167 38q174 0 261.5 -102.5t87.5 -280.5zM847 238q43 87 65 183t22 215q0 49 -7 90.5t-25 71.5
q-18 31 -48.5 48t-76.5 17q-53 0 -104 -33t-75 -62l-124 -549q0 -69 40 -114.5t115 -45.5q62 0 119.5 48t98.5 131z" />
    <glyph glyph-name="q" unicode="q" horiz-adv-x="1331" 
d="M732 98h-8l-55 -39.5t-69 -41.5q-39 -20 -85 -34t-100 -14q-174 0 -262 102.5t-88 280.5q0 137 48 257t130 211q81 90 192 142.5t233 52.5q95 0 160.5 -18.5t116.5 -59.5l306 63l14 -16l-277 -1205q-3 -13 -6 -29.5t-3 -22.5q0 -23 10 -42t30 -28q22 -10 68.5 -19.5
t78.5 -11.5l-16 -70h-722l16 70q25 2 67 7.5t61 11.5q35 12 53 35.5t26 62.5zM883 760q0 25 -6.5 51.5t-25.5 50.5q-19 25 -47 39.5t-76 14.5q-66 0 -121 -47t-97 -127q-41 -79 -64 -184t-23 -210q0 -49 7.5 -91t24.5 -71q18 -31 48.5 -48t76.5 -17q50 0 99.5 31t78.5 64z
" />
    <glyph glyph-name="r" unicode="r" horiz-adv-x="1093" 
d="M1106 807q0 -45 -13 -87t-39 -72q-29 -34 -61 -50.5t-90 -16.5q-75 0 -118 37t-43 83q0 43 12.5 74l39.5 94q-67 -28 -115 -68.5t-92 -92.5l-158 -708h-331l138 615l15.5 73t9.5 75q0 58 -22.5 79t-86.5 21q-32 0 -65.5 -10t-57.5 -19l22 90q81 33 155 56.5t140 23.5
q118 0 176.5 -46.5t77.5 -130.5h7q99 105 168 146.5t148 41.5q85 0 134 -53.5t49 -154.5z" />
    <glyph glyph-name="s" unicode="s" horiz-adv-x="1059" 
d="M435 -33q-126 0 -208.5 20.5t-130.5 52.5q-49 32 -67 68.5t-18 68.5q0 58 43.5 101.5t115.5 43.5q60 0 100.5 -31t67.5 -78q25 -43 42 -95t24 -77q113 0 171 48.5t58 132.5q0 37 -17.5 62t-46.5 44q-29 18 -74 35t-89 32q-121 41 -191.5 113.5t-70.5 180.5
q0 64 29.5 120.5t92.5 104.5q62 46 157 73.5t222 27.5q76 0 141 -9t121 -33q53 -24 82.5 -62.5t29.5 -93.5t-41.5 -94.5t-108.5 -39.5q-58 0 -96.5 30t-62.5 71q-24 42 -38 86.5l-23 74.5q-70 -4 -127.5 -50.5t-57.5 -115.5q0 -42 13.5 -66t36.5 -40q26 -18 65.5 -33.5
t98.5 -35.5q136 -48 205 -115t69 -177q0 -72 -33.5 -138t-95.5 -110q-69 -48 -159 -72.5t-229 -24.5z" />
    <glyph glyph-name="t" unicode="t" horiz-adv-x="854" 
d="M408 -26q-120 0 -192 58.5t-72 148.5q0 37 5 70t16 85l124 532h-183l24 103h187l72 303h324l-70 -303h271l-24 -103h-270l-122 -532q-7 -28 -13.5 -68t-6.5 -52q0 -57 31.5 -79t96.5 -22q31 0 85.5 12t76.5 20l-22 -90q-88 -39 -176.5 -61t-161.5 -22z" />
    <glyph glyph-name="u" unicode="u" horiz-adv-x="1403" 
d="M803 159h-7q-105 -96 -200 -142t-220 -46q-111 0 -171.5 61t-60.5 148q0 31 3.5 63t18.5 90l75 281q7 28 16.5 76.5t9.5 71.5q0 55 -22.5 77.5t-87.5 22.5q-32 0 -65.5 -10t-57.5 -19l22 90q81 33 155 56.5t140 23.5q119 0 183.5 -59.5t64.5 -147.5q0 -18 -4 -66t-16 -89
l-73 -266q-10 -35 -16 -75.5t-6 -58.5q0 -47 22 -74.5t76 -27.5q39 0 103.5 32.5t127.5 92.5l165 722l319 14l12 -14l-142 -615q-7 -29 -16.5 -77t-9.5 -71q0 -58 25.5 -79t89.5 -21q30 0 68 10.5t55 18.5l-22 -90q-99 -39 -158 -59.5t-137 -20.5q-110 0 -176 49.5
t-83 127.5z" />
    <glyph glyph-name="v" unicode="v" horiz-adv-x="1254" 
d="M1209 766q0 -141 -47.5 -286t-133.5 -257q-102 -131 -226 -193t-258 -62q-178 0 -283 83t-105 238q0 48 16 103t40 129q20 63 37.5 124.5t17.5 116.5q0 54 -24 77t-86 23q-32 0 -65.5 -10t-57.5 -19l22 90q81 33 155 56.5t140 23.5q119 0 183.5 -59.5t64.5 -147.5
q0 -65 -17.5 -138t-36.5 -131q-17 -52 -35.5 -119.5t-18.5 -107.5q0 -85 41 -136t132 -51q136 0 236 101.5t100 273.5q0 17 -2 37t-8 45q-11 23 -43 49t-54 48q-29 29 -51 68.5t-22 102.5q0 53 20.5 86t49.5 54q24 17 57.5 27t62.5 10q93 0 146 -66.5t53 -182.5z" />
    <glyph glyph-name="w" unicode="w" horiz-adv-x="1912" 
d="M1867 766q0 -146 -48 -289.5t-134 -253.5q-89 -114 -212 -184.5t-281 -70.5q-146 0 -236.5 57t-123.5 164q-107 -117 -210 -167.5t-226 -50.5q-116 0 -183 72t-67 181q0 40 8 75.5t19 77.5l68 237q7 28 16.5 76.5t9.5 71.5q0 53 -22.5 76.5t-87.5 23.5q-32 0 -65.5 -10
t-57.5 -19l22 90q81 33 155 56.5t140 23.5q119 0 183.5 -59.5t64.5 -150.5q0 -33 -10 -94.5t-22 -99.5l-58 -194q-10 -31 -17.5 -77.5t-7.5 -66.5q0 -57 31.5 -89.5t73.5 -32.5q13 0 38 3.5t52 16.5q28 13 68.5 41.5t78.5 71.5q0 18 4.5 52.5t13.5 82.5l132 579l319 14
l12 -14l-132 -573q-3 -12 -8.5 -50.5t-5.5 -79.5q0 -86 41.5 -127t122.5 -41q136 0 234.5 101.5t98.5 271.5q0 17 -2 37t-8 45q-11 23 -41 47t-56 49q-29 29 -51 70.5t-22 101.5q0 50 19.5 84t50.5 56q23 17 58 27t62 10q96 0 147.5 -68t51.5 -181z" />
    <glyph glyph-name="x" unicode="x" horiz-adv-x="1195" 
d="M1218 866q0 -87 -55.5 -138.5t-135.5 -51.5q-48 0 -94.5 12t-80.5 24q-16 -11 -47 -48t-70 -90q36 -153 58 -217.5t42 -130.5q17 -53 50 -83t104 -30q26 0 65 10t64 20l-22 -90q-99 -42 -173 -61t-132 -19q-42 0 -83 8t-75 29q-37 22 -62.5 55t-43.5 92q-12 37 -22 84
t-20 83q-29 -43 -42 -64l-38 -59q-79 -121 -137 -172.5t-139 -51.5q-61 0 -104 41t-43 107q0 89 55.5 140.5t135.5 51.5q48 0 92 -11.5t83 -25.5q15 12 46.5 47t68.5 87q-33 134 -54 202l-43 135q-18 54 -52 83.5t-102 29.5q-30 0 -67 -10.5t-62 -19.5l22 90q90 40 170.5 60
t134.5 20q49 0 84 -7t74 -30q36 -22 62.5 -55.5t43.5 -91.5q12 -40 22 -83l17 -74l43.5 66l38.5 60q77 121 138 173.5t138 52.5q63 0 105 -41.5t42 -107.5z" />
    <glyph glyph-name="y" unicode="y" horiz-adv-x="1371" 
d="M803 160h-7q-113 -103 -208 -143t-210 -40q-111 0 -172.5 62t-61.5 149q0 31 3.5 63t18.5 90l75 273q7 28 16.5 76.5t9.5 71.5q0 57 -22.5 78.5t-87.5 21.5q-32 0 -65.5 -10t-57.5 -19l22 90q81 33 155 56.5t140 23.5q119 0 183.5 -59.5t64.5 -147.5q0 -18 -4 -66
t-16 -89l-73 -260q-10 -35 -16 -75t-6 -58q0 -50 24.5 -76t77.5 -26q44 0 111.5 33.5t124.5 89.5l152 717l317 14l14 -16l-175 -813q-40 -182 -112 -300.5t-167 -188.5q-91 -67 -197 -96.5t-215 -29.5q-119 0 -197.5 17.5t-122.5 48.5q-40 28 -54.5 62.5t-14.5 67.5
q0 58 41 103t112 45q54 0 96.5 -29t74.5 -70q31 -39 55.5 -86.5t37.5 -77.5q18 3 44.5 12.5t44.5 21.5q26 17 46 34t46 52q50 67 89 166t66 237z" />
    <glyph glyph-name="z" unicode="z" horiz-adv-x="1059" 
d="M1084 986l-15 -72l-708 -830q36 -1 72.5 -1.5t84.5 -0.5q36 0 72.5 1t96.5 6q39 4 68 28t47 57q14 25 49.5 83.5t56.5 105.5h70l-71 -363h-934l18 83l697 819h-118q-87 0 -124.5 -3t-86.5 -21q-34 -13 -79 -74t-77 -136h-71l62 318h890z" />
    <glyph glyph-name="braceleft" unicode="{" 
d="M777 -333q-110 0 -215 10.5t-170 37.5q-69 30 -107 85.5t-38 148.5q0 23 3 46.5t7 51.5q8 49 28 124.5t29 129.5q4 25 6 42.5t2 34.5q0 76 -49 112t-201 47l34 150q68 5 136 16t112 34q48 25 81.5 68.5t45.5 117.5q10 59 15 114.5t15 119.5q20 122 75 196.5t141 116.5
t201 54.5t242 12.5l-15 -83q-56 -4 -96 -10t-86 -32q-43 -24 -70.5 -66t-43.5 -125l-34 -190q-20 -107 -66 -176.5t-111 -112.5q-64 -42 -139.5 -65.5t-150.5 -36.5l-18 -76q147 -31 213 -101t66 -182q0 -23 -2.5 -52t-8.5 -56l-40 -190q-3 -14 -4 -30.5t-1 -29.5
q0 -57 20.5 -89.5t52.5 -50.5q32 -17 76 -24t80 -9z" />
    <glyph glyph-name="bar" unicode="|" horiz-adv-x="794" 
d="M505 -424h-171v1947h171v-1947z" />
    <glyph glyph-name="braceright" unicode="}" 
d="M976 666l-34 -150q-85 -6 -138 -14t-110 -36q-50 -25 -81.5 -69t-45.5 -117q-11 -59 -15 -114t-15 -120q-19 -119 -73 -195.5t-142 -117.5t-196.5 -54t-247.5 -13l15 83q48 3 96 11t87 31t69.5 68t43.5 123l34 190q19 108 65.5 176t111.5 113q60 41 139 64t151 38l18 76
q-61 13 -111.5 34.5t-87.5 53.5q-39 35 -59.5 82.5t-20.5 112.5q0 30 3 56t8 52l40 190q3 15 4 30.5t1 29.5q0 56 -20 89t-53 51q-30 16 -73.5 23t-82.5 10l15 83q123 0 219 -9.5t166 -38.5q69 -30 107 -85.5t38 -148.5q0 -19 -2.5 -46.5t-7.5 -51.5q-10 -56 -27 -120
t-30 -134q-4 -23 -6 -42.5t-2 -34.5q0 -88 62 -120.5t188 -38.5z" />
    <glyph glyph-name="asciitilde" unicode="~" horiz-adv-x="1440" 
d="M1317 735q-20 -55 -53.5 -113t-74.5 -103q-51 -56 -110.5 -89.5t-126.5 -33.5q-76 0 -138.5 26.5t-120.5 60.5q-46 27 -106 57.5t-107 30.5q-66 0 -115 -47.5t-94 -151.5l-104 42q15 44 47.5 103t80.5 113q45 51 106.5 87t130.5 36q82 0 145.5 -28.5t115.5 -59.5
q53 -32 104.5 -59.5t106.5 -27.5q70 0 119 52.5t90 146.5z" />
    <glyph glyph-name="Adieresis" unicode="&#xc4;" horiz-adv-x="1553" 
d="M892 571l-87 517l-324 -517h411zM732 0l17 73q103 8 160.5 25.5t57.5 38.5q0 18 -2 31t-5 30l-50 279h-489l-60.5 -97.5l-61.5 -103.5q-38 -68 -44.5 -93t-6.5 -32q0 -30 47 -49.5t144 -28.5l-17 -73h-596l17 73q29 2 73 10t74 24q42 22 79 57t69 85l373 576.5l394 613.5
h198l127.5 -741t88.5 -490q5 -30 19.5 -54.5t46.5 -46.5q24 -16 58.5 -24t64.5 -10l-17 -73h-759zM1435 1702q0 -67 -46.5 -116.5t-110.5 -49.5q-66 0 -112 50t-46 116q0 67 46 116.5t112 49.5q64 0 110.5 -49.5t46.5 -116.5zM899 1702q0 -67 -47 -116.5t-111 -49.5
q-65 0 -111 49t-46 117q0 67 45.5 116.5t111.5 49.5q64 0 111 -49.5t47 -116.5z" />
    <glyph glyph-name="Aring" unicode="&#xc5;" horiz-adv-x="1553" 
d="M892 571l-87 517l-324 -517h411zM732 0l17 73q103 8 160.5 25.5t57.5 38.5q0 18 -2 31t-5 30l-50 279h-489l-60.5 -97.5l-61.5 -103.5q-38 -68 -44.5 -93t-6.5 -32q0 -30 47 -49.5t144 -28.5l-17 -73h-596l17 73q29 2 73 10t74 24q42 22 79 57t69 85l364 562.5l385 599.5
q-83 15 -130 64t-47 123q0 120 97 195t231 75q108 0 178 -52t70 -140q0 -84 -48 -148.5t-134 -96.5l127.5 -738t87.5 -485q5 -30 19.5 -54.5t46.5 -46.5q24 -16 58.5 -24t64.5 -10l-17 -73h-759zM1134 1678q0 52 -28 86t-82 34q-73 0 -117.5 -55.5t-44.5 -143.5
q0 -56 27.5 -90t83.5 -34q75 0 118 57.5t43 145.5z" />
    <glyph glyph-name="Ccedilla" unicode="&#xc7;" horiz-adv-x="1465" 
d="M644 -34q-124 13 -216 51.5t-163 101.5q-84 76 -131 185.5t-47 247.5q0 183 67.5 345t190.5 289q118 122 288.5 196.5t362.5 74.5q116 0 235 -28t178 -65l75 55h87l-111 -518h-88q-20 227 -120.5 345.5t-258.5 118.5q-116 0 -214 -69t-174 -212q-62 -118 -94.5 -273.5
t-32.5 -291.5q0 -200 97 -311t260 -111q143 0 265 80t235 231l77 -52q-49 -76 -117 -149.5t-155 -127.5q-88 -55 -180.5 -85.5t-229.5 -30.5l-13 -59q98 0 157 -32.5t59 -96.5q0 -65 -33 -108t-95 -67q-63 -24 -150.5 -34t-214.5 -10l18 78q48 0 102 1t87 9q39 8 59.5 27
t20.5 53q0 32 -35.5 43t-89.5 11z" />
    <glyph glyph-name="Eacute" unicode="&#xc9;" horiz-adv-x="1477" 
d="M1520 1419l-83 -362h-76q-14 95 -67.5 174.5t-112.5 92.5q-28 7 -81 8.5t-88 1.5h-196l-128 -555h136q75 0 117.5 16.5t79.5 46.5q28 23 65.5 82.5t53.5 101.5h76l-137 -592h-76v37q0 45 -9.5 92.5t-22.5 66.5q-26 38 -69 50.5t-98 12.5h-136l-91 -395q-7 -30 -13 -65
t-6 -50q0 -64 42 -80.5t155 -16.5q144 0 210 12.5t99 38.5q60 50 144 153t114 152h73l-129 -442h-1321l17 73q25 1 74.5 6.5t73.5 13.5q39 13 59.5 40t28.5 62l229 992q5 21 7 35t2 21q0 42 -42.5 65.5t-138.5 37.5l17 73h1248zM1281 1768q0 -42 -26 -69t-75 -47
q-56 -23 -168 -64t-260 -103l-33 41l157.5 151t111.5 115q37 41 72.5 58.5t74.5 17.5q65 0 105.5 -27.5t40.5 -72.5z" />
    <glyph glyph-name="Ntilde" unicode="&#xd1;" horiz-adv-x="1699" 
d="M1883 1419l-17 -73q-28 -3 -81.5 -10.5t-104.5 -39.5q-43 -27 -73.5 -93t-60.5 -193l-235 -1018h-168l-613 1137l-162 -710q-13 -56 -20 -105t-7 -78q0 -41 8 -63.5t23 -37.5q23 -23 80.5 -40t85.5 -22l-17 -73h-610l17 73q27 4 85.5 14t100.5 36q44 28 74 91.5t59 193.5
l154 668q5 23 8.5 43.5t3.5 37.5q0 30 -7 57.5t-26 50.5q-28 34 -69 52.5t-96 28.5l18 73h524l536 -1000l133 581q14 64 20.5 104.5t6.5 75.5q0 39 -8.5 63.5t-24.5 40.5q-22 22 -77.5 39.5t-85.5 22.5l17 73h609zM1525 1849q-19 -43 -53 -96t-79 -98q-48 -48 -98 -77.5
t-111 -29.5q-64 0 -114 19.5t-84 38.5q-36 19 -76.5 36t-79.5 17q-52 0 -84 -45.5l-73 -102.5l-71 30q18 37 54 91.5t76 97.5q41 45 94 77t108 32q51 0 98 -16.5t91 -37.5l80 -39t76 -16q41 0 65.5 8.5t39.5 26.5q17 21 31 47.5l33 60.5z" />
    <glyph glyph-name="Odieresis" unicode="&#xd6;" horiz-adv-x="1679" 
d="M1661 875q0 -180 -67.5 -347.5t-189.5 -291.5q-125 -127 -294 -201t-383 -74q-280 0 -460 161.5t-180 422.5q0 190 73 357.5t202 292.5q126 123 295.5 193t357.5 70q282 0 464 -158t182 -425zM1138 351q68 138 101 300.5t33 320.5q0 183 -70 288t-209 105
q-122 0 -218.5 -82t-162.5 -213t-101 -296t-35 -328q0 -177 70 -284.5t210 -107.5q121 0 219.5 84t162.5 213zM1445 1702q0 -67 -46.5 -116.5t-110.5 -49.5q-66 0 -112 50t-46 116q0 67 46 116.5t112 49.5q64 0 110.5 -49.5t46.5 -116.5zM909 1702q0 -67 -47 -116.5
t-111 -49.5q-65 0 -111 49t-46 117q0 67 45.5 116.5t111.5 49.5q64 0 111 -49.5t47 -116.5z" />
    <glyph glyph-name="Udieresis" unicode="&#xdc;" horiz-adv-x="1707" 
d="M755 -39q-260 0 -398.5 100.5t-138.5 283.5q0 32 4 64.5t12 70.5l164 709q5 21 7 33t2 21q0 42 -40 65t-139 38l17 73h760l-17 -73q-33 -2 -72 -8.5t-66 -14.5q-41 -12 -60 -39.5t-27 -62.5l-162 -699q-10 -42 -16 -91t-6 -82q0 -129 74 -190.5t216 -61.5
q172 0 297.5 114.5t168.5 303.5l112 486q14 62 20.5 106t6.5 74q0 38 -8.5 63t-24.5 40q-25 23 -82.5 40.5t-83.5 21.5l17 73h615l-17 -73q-30 -3 -86.5 -13.5t-100.5 -36.5q-44 -25 -74.5 -91.5t-60.5 -193.5l-123 -533q-58 -248 -243.5 -382.5t-446.5 -134.5zM1583 1702
q0 -67 -46.5 -116.5t-110.5 -49.5q-66 0 -112 50t-46 116q0 67 46 116.5t112 49.5q64 0 110.5 -49.5t46.5 -116.5zM1047 1702q0 -67 -47 -116.5t-111 -49.5q-65 0 -111 49t-46 117q0 67 45.5 116.5t111.5 49.5q64 0 111 -49.5t47 -116.5z" />
    <glyph glyph-name="aacute" unicode="&#xe1;" horiz-adv-x="1352" 
d="M760 125h-8l-66.5 -55t-79.5 -50q-42 -22 -88.5 -36.5t-102.5 -14.5q-174 0 -262 102.5t-88 280.5q0 137 49 257t131 211q83 90 194 142.5t234 52.5q90 0 157.5 -21t110.5 -57l307 63l14 -16l-147 -615q-8 -31 -17 -77.5t-9 -70.5q0 -57 26 -78.5t90 -21.5q28 0 67.5 11
t55.5 18l-22 -90q-99 -39 -158.5 -59.5t-137.5 -20.5q-103 0 -164.5 40.5t-85.5 104.5zM879 759q0 22 -6 52t-21 51q-18 26 -47 39.5t-72 13.5q-66 0 -121.5 -47.5t-98.5 -126.5q-42 -78 -66 -181.5t-24 -211.5q0 -49 7.5 -91t24.5 -71q18 -31 48.5 -48t76.5 -17
q47 0 90.5 27.5t80.5 67.5zM1033 1460q0 -45 -20.5 -72.5t-65.5 -56.5q-49 -32 -155 -90.5t-240 -139.5l-42 38q88 117 136 186.5l83 118.5q43 61 82 82.5t97 21.5q48 0 86.5 -26t38.5 -62z" />
    <glyph glyph-name="agrave" unicode="&#xe0;" horiz-adv-x="1352" 
d="M760 125h-8l-66.5 -55t-79.5 -50q-42 -22 -88.5 -36.5t-102.5 -14.5q-174 0 -262 102.5t-88 280.5q0 137 49 257t131 211q83 90 194 142.5t234 52.5q90 0 157.5 -21t110.5 -57l307 63l14 -16l-147 -615q-8 -31 -17 -77.5t-9 -70.5q0 -57 26 -78.5t90 -21.5q28 0 67.5 11
t55.5 18l-22 -90q-99 -39 -158.5 -59.5t-137.5 -20.5q-103 0 -164.5 40.5t-85.5 104.5zM879 759q0 22 -6 52t-21 51q-18 26 -47 39.5t-72 13.5q-66 0 -121.5 -47.5t-98.5 -126.5q-42 -78 -66 -181.5t-24 -211.5q0 -49 7.5 -91t24.5 -71q18 -31 48.5 -48t76.5 -17
q47 0 90.5 27.5t80.5 67.5zM947 1139l-46 -38q-131 88 -227 144t-136 84q-35 26 -52 50t-17 60t31.5 72.5t82.5 36.5q63 0 100 -24t74 -80q29 -44 77.5 -126t112.5 -179z" />
    <glyph glyph-name="acircumflex" unicode="&#xe2;" horiz-adv-x="1352" 
d="M760 125h-8l-66.5 -55t-79.5 -50q-42 -22 -88.5 -36.5t-102.5 -14.5q-174 0 -262 102.5t-88 280.5q0 137 49 257t131 211q83 90 194 142.5t234 52.5q90 0 157.5 -21t110.5 -57l307 63l14 -16l-147 -615q-8 -31 -17 -77.5t-9 -70.5q0 -57 26 -78.5t90 -21.5q28 0 67.5 11
t55.5 18l-22 -90q-99 -39 -158.5 -59.5t-137.5 -20.5q-103 0 -164.5 40.5t-85.5 104.5zM879 759q0 22 -6 52t-21 51q-18 26 -47 39.5t-72 13.5q-66 0 -121.5 -47.5t-98.5 -126.5q-42 -78 -66 -181.5t-24 -211.5q0 -49 7.5 -91t24.5 -71q18 -31 48.5 -48t76.5 -17
q47 0 90.5 27.5t80.5 67.5zM1086 1132l-54 -29l-278 254l-358 -254l-51 29l172 220.5t116 134.5q28 31 60.5 46t88.5 15q58 0 81.5 -14.5t42.5 -42.5q39 -58 82 -149z" />
    <glyph glyph-name="adieresis" unicode="&#xe4;" horiz-adv-x="1352" 
d="M760 125h-8l-66.5 -55t-79.5 -50q-42 -22 -88.5 -36.5t-102.5 -14.5q-174 0 -262 102.5t-88 280.5q0 137 49 257t131 211q83 90 194 142.5t234 52.5q90 0 157.5 -21t110.5 -57l307 63l14 -16l-147 -615q-8 -31 -17 -77.5t-9 -70.5q0 -57 26 -78.5t90 -21.5q28 0 67.5 11
t55.5 18l-22 -90q-99 -39 -158.5 -59.5t-137.5 -20.5q-103 0 -164.5 40.5t-85.5 104.5zM879 759q0 22 -6 52t-21 51q-18 26 -47 39.5t-72 13.5q-66 0 -121.5 -47.5t-98.5 -126.5q-42 -78 -66 -181.5t-24 -211.5q0 -49 7.5 -91t24.5 -71q18 -31 48.5 -48t76.5 -17
q47 0 90.5 27.5t80.5 67.5zM1156 1349q0 -67 -46.5 -116.5t-110.5 -49.5q-66 0 -112 50t-46 116q0 67 46 116.5t112 49.5q64 0 110.5 -49.5t46.5 -116.5zM661 1349q0 -67 -47 -116.5t-111 -49.5q-65 0 -111 49t-46 117q0 67 45.5 116.5t111.5 49.5q64 0 111 -49.5t47 -116.5
z" />
    <glyph glyph-name="atilde" unicode="&#xe3;" horiz-adv-x="1352" 
d="M760 125h-8l-66.5 -55t-79.5 -50q-42 -22 -88.5 -36.5t-102.5 -14.5q-174 0 -262 102.5t-88 280.5q0 137 49 257t131 211q83 90 194 142.5t234 52.5q90 0 157.5 -21t110.5 -57l307 63l14 -16l-147 -615q-8 -31 -17 -77.5t-9 -70.5q0 -57 26 -78.5t90 -21.5q28 0 67.5 11
t55.5 18l-22 -90q-99 -39 -158.5 -59.5t-137.5 -20.5q-103 0 -164.5 40.5t-85.5 104.5zM879 759q0 22 -6 52t-21 51q-18 26 -47 39.5t-72 13.5q-66 0 -121.5 -47.5t-98.5 -126.5q-42 -78 -66 -181.5t-24 -211.5q0 -49 7.5 -91t24.5 -71q18 -31 48.5 -48t76.5 -17
q47 0 90.5 27.5t80.5 67.5zM1216 1484q-19 -43 -53 -96t-79 -98q-48 -48 -98 -77.5t-111 -29.5q-64 0 -114 19.5t-84 38.5q-36 19 -76.5 36t-79.5 17q-52 0 -84 -45.5l-73 -102.5l-71 30q18 37 54 91.5t76 97.5q41 45 94 77t108 32q51 0 98 -16.5t91 -37.5l80 -39t76 -16
q41 0 65.5 8.5t39.5 26.5q17 21 31 47.5l33 60.5z" />
    <glyph glyph-name="aring" unicode="&#xe5;" horiz-adv-x="1352" 
d="M760 125h-8l-66.5 -55t-79.5 -50q-42 -22 -88.5 -36.5t-102.5 -14.5q-174 0 -262 102.5t-88 280.5q0 137 49 257t131 211q83 90 194 142.5t234 52.5q90 0 157.5 -21t110.5 -57l307 63l14 -16l-147 -615q-8 -31 -17 -77.5t-9 -70.5q0 -57 26 -78.5t90 -21.5q28 0 67.5 11
t55.5 18l-22 -90q-99 -39 -158.5 -59.5t-137.5 -20.5q-103 0 -164.5 40.5t-85.5 104.5zM879 759q0 22 -6 52t-21 51q-18 26 -47 39.5t-72 13.5q-66 0 -121.5 -47.5t-98.5 -126.5q-42 -78 -66 -181.5t-24 -211.5q0 -49 7.5 -91t24.5 -71q18 -31 48.5 -48t76.5 -17
q47 0 90.5 27.5t80.5 67.5zM738 1104q-114 0 -181 52t-67 140q0 120 97 195.5t231 75.5q108 0 178 -51.5t70 -139.5q0 -120 -95.5 -196t-232.5 -76zM914 1379q0 53 -27.5 85.5t-82.5 32.5q-73 0 -117.5 -57.5t-44.5 -143.5q0 -56 27.5 -89t83.5 -33q75 0 118 58.5t43 146.5z
" />
    <glyph glyph-name="ccedilla" unicode="&#xe7;" horiz-adv-x="1097" 
d="M468 -27q-192 20 -295 134t-103 291q0 121 41 229.5t126 197.5q79 84 203 137t277 53q177 0 270.5 -65t93.5 -179q0 -31 -10 -69t-30 -64q-25 -32 -54.5 -49t-88.5 -17q-78 0 -121.5 38.5t-43.5 80.5q0 50 21 99t53 103q-9 11 -36.5 27t-71.5 16q-117 0 -194 -141.5
t-77 -350.5q0 -159 58.5 -241t166.5 -82q110 0 183.5 42.5t150.5 145.5l72 -61q-82 -127 -214.5 -203.5t-291.5 -76.5l-13 -64q98 0 157 -32.5t59 -96.5q0 -65 -33 -108t-95 -67q-63 -24 -150.5 -34t-214.5 -10l18 78q48 0 102 1t87 9q39 8 59.5 27t20.5 53q0 32 -35.5 43
t-89.5 11z" />
    <glyph glyph-name="eacute" unicode="&#xe9;" horiz-adv-x="1141" 
d="M546 -33q-120 0 -210.5 32.5t-149.5 90.5q-58 58 -87 135t-29 170q0 118 44 229t131 200q82 85 208 138t278 53q179 0 272.5 -57t93.5 -171q0 -109 -81 -187.5t-220 -116.5q-110 -33 -187.5 -47t-189.5 -26q2 -44 12 -99t30 -94q24 -45 68 -71.5t112 -26.5
q118 0 200.5 45.5t157.5 144.5l73 -61q-90 -128 -230.5 -204.5t-295.5 -76.5zM772 759q0 85 -31 130.5t-86 45.5q-77 0 -145.5 -125.5t-87.5 -317.5q59 7 117 18t92 26q75 33 108 85t33 138zM1010 1460q0 -45 -20.5 -72.5t-65.5 -56.5q-49 -32 -155 -90.5t-240 -139.5
l-42 38q88 117 136 186.5l83 118.5q43 61 82 82.5t97 21.5q48 0 86.5 -26t38.5 -62z" />
    <glyph glyph-name="egrave" unicode="&#xe8;" horiz-adv-x="1141" 
d="M546 -33q-120 0 -210.5 32.5t-149.5 90.5q-58 58 -87 135t-29 170q0 118 44 229t131 200q82 85 208 138t278 53q179 0 272.5 -57t93.5 -171q0 -109 -81 -187.5t-220 -116.5q-110 -33 -187.5 -47t-189.5 -26q2 -44 12 -99t30 -94q24 -45 68 -71.5t112 -26.5
q118 0 200.5 45.5t157.5 144.5l73 -61q-90 -128 -230.5 -204.5t-295.5 -76.5zM772 759q0 85 -31 130.5t-86 45.5q-77 0 -145.5 -125.5t-87.5 -317.5q59 7 117 18t92 26q75 33 108 85t33 138zM907 1139l-46 -38q-131 88 -227 144t-136 84q-35 26 -52 50t-17 60t31.5 72.5
t82.5 36.5q63 0 100 -24t74 -80q29 -44 77.5 -126t112.5 -179z" />
    <glyph glyph-name="ecircumflex" unicode="&#xea;" horiz-adv-x="1141" 
d="M546 -33q-120 0 -210.5 32.5t-149.5 90.5q-58 58 -87 135t-29 170q0 118 44 229t131 200q82 85 208 138t278 53q179 0 272.5 -57t93.5 -171q0 -109 -81 -187.5t-220 -116.5q-110 -33 -187.5 -47t-189.5 -26q2 -44 12 -99t30 -94q24 -45 68 -71.5t112 -26.5
q118 0 200.5 45.5t157.5 144.5l73 -61q-90 -128 -230.5 -204.5t-295.5 -76.5zM772 759q0 85 -31 130.5t-86 45.5q-77 0 -145.5 -125.5t-87.5 -317.5q59 7 117 18t92 26q75 33 108 85t33 138zM1046 1132l-54 -29l-278 254l-358 -254l-51 29l172 220.5t116 134.5
q28 31 60.5 46t88.5 15q58 0 81.5 -14.5t42.5 -42.5q39 -58 82 -149z" />
    <glyph glyph-name="edieresis" unicode="&#xeb;" horiz-adv-x="1141" 
d="M546 -33q-120 0 -210.5 32.5t-149.5 90.5q-58 58 -87 135t-29 170q0 118 44 229t131 200q82 85 208 138t278 53q179 0 272.5 -57t93.5 -171q0 -109 -81 -187.5t-220 -116.5q-110 -33 -187.5 -47t-189.5 -26q2 -44 12 -99t30 -94q24 -45 68 -71.5t112 -26.5
q118 0 200.5 45.5t157.5 144.5l73 -61q-90 -128 -230.5 -204.5t-295.5 -76.5zM772 759q0 85 -31 130.5t-86 45.5q-77 0 -145.5 -125.5t-87.5 -317.5q59 7 117 18t92 26q75 33 108 85t33 138zM1106 1349q0 -67 -46.5 -116.5t-110.5 -49.5q-66 0 -112 50t-46 116
q0 67 46 116.5t112 49.5q64 0 110.5 -49.5t46.5 -116.5zM611 1349q0 -67 -47 -116.5t-111 -49.5q-65 0 -111 49t-46 117q0 67 45.5 116.5t111.5 49.5q64 0 111 -49.5t47 -116.5z" />
    <glyph glyph-name="iacute" unicode="&#xed;" horiz-adv-x="749" 
d="M713 143l-22 -90q-99 -39 -158 -59.5t-137 -20.5q-120 0 -186.5 58.5t-66.5 148.5q0 35 5 71.5t16 82.5l82 292q11 42 18.5 79.5t7.5 68.5q0 56 -23 78t-88 22q-32 0 -65.5 -10t-57.5 -19l22 90q81 33 155 56.5t140 23.5q119 0 183.5 -57.5t64.5 -149.5q0 -19 -4.5 -67
t-16.5 -88l-82 -291q-10 -35 -18 -80t-8 -68q0 -58 26 -79t90 -21q30 0 68 10.5t55 18.5zM763 1460q0 -45 -20.5 -72.5t-65.5 -56.5q-49 -32 -155 -90.5t-240 -139.5l-42 38q88 117 136 186.5l83 118.5q43 61 82 82.5t97 21.5q48 0 86.5 -26t38.5 -62z" />
    <glyph glyph-name="igrave" unicode="&#xec;" horiz-adv-x="749" 
d="M713 143l-22 -90q-99 -39 -158 -59.5t-137 -20.5q-120 0 -186.5 58.5t-66.5 148.5q0 35 5 71.5t16 82.5l82 292q11 42 18.5 79.5t7.5 68.5q0 56 -23 78t-88 22q-32 0 -65.5 -10t-57.5 -19l22 90q81 33 155 56.5t140 23.5q119 0 183.5 -57.5t64.5 -149.5q0 -19 -4.5 -67
t-16.5 -88l-82 -291q-10 -35 -18 -80t-8 -68q0 -58 26 -79t90 -21q30 0 68 10.5t55 18.5zM617 1139l-46 -38q-131 88 -227 144t-136 84q-35 26 -52 50t-17 60t31.5 72.5t82.5 36.5q63 0 100 -24t74 -80q29 -44 77.5 -126t112.5 -179z" />
    <glyph glyph-name="icircumflex" unicode="&#xee;" horiz-adv-x="749" 
d="M713 143l-22 -90q-99 -39 -158 -59.5t-137 -20.5q-120 0 -186.5 58.5t-66.5 148.5q0 35 5 71.5t16 82.5l82 292q11 42 18.5 79.5t7.5 68.5q0 56 -23 78t-88 22q-32 0 -65.5 -10t-57.5 -19l22 90q81 33 155 56.5t140 23.5q119 0 183.5 -57.5t64.5 -149.5q0 -19 -4.5 -67
t-16.5 -88l-82 -291q-10 -35 -18 -80t-8 -68q0 -58 26 -79t90 -21q30 0 68 10.5t55 18.5zM746 1132l-54 -29l-245 254l-341 -254l-51 29l158.5 208l109.5 147q24 34 59.5 47.5t89.5 13.5q58 0 83.5 -15t40.5 -45q28 -57 63 -143.5z" />
    <glyph glyph-name="idieresis" unicode="&#xef;" horiz-adv-x="749" 
d="M713 143l-22 -90q-99 -39 -158 -59.5t-137 -20.5q-120 0 -186.5 58.5t-66.5 148.5q0 35 5 71.5t16 82.5l82 292q11 42 18.5 79.5t7.5 68.5q0 56 -23 78t-88 22q-32 0 -65.5 -10t-57.5 -19l22 90q81 33 155 56.5t140 23.5q119 0 183.5 -57.5t64.5 -149.5q0 -19 -4.5 -67
t-16.5 -88l-82 -291q-10 -35 -18 -80t-8 -68q0 -58 26 -79t90 -21q30 0 68 10.5t55 18.5zM842 1349q0 -67 -46.5 -116.5t-110.5 -49.5q-66 0 -112 50t-46 116q0 67 46 116.5t112 49.5q64 0 110.5 -49.5t46.5 -116.5zM383 1349q0 -67 -47 -116.5t-111 -49.5q-65 0 -111 49
t-46 117q0 67 45.5 116.5t111.5 49.5q64 0 111 -49.5t47 -116.5z" />
    <glyph glyph-name="ntilde" unicode="&#xf1;" horiz-adv-x="1413" 
d="M1384 153l-22 -90q-99 -39 -158 -59.5t-137 -20.5q-119 0 -185 59.5t-66 147.5q0 24 2.5 61.5t16.5 93.5l72 266q11 43 16.5 77.5t5.5 56.5q0 48 -23 75t-78 27q-34 0 -97 -26.5t-141 -98.5l-165 -722h-331l142 615l15.5 73t9.5 75q0 57 -23.5 78.5t-85.5 21.5
q-32 0 -65.5 -10t-57.5 -19l22 90q81 33 155 56.5t140 23.5q118 0 176.5 -46.5t77.5 -130.5h7q98 89 202.5 138.5t222.5 49.5q111 0 173.5 -61t62.5 -148q0 -23 -3.5 -64.5t-16.5 -88.5l-76 -281q-10 -35 -18 -80t-8 -68q0 -58 25.5 -79t89.5 -21q30 0 68 10.5t55 18.5z
M1263 1484q-19 -43 -53 -96t-79 -98q-48 -48 -98 -77.5t-111 -29.5q-64 0 -114 19.5t-84 38.5q-36 19 -76.5 36t-79.5 17q-52 0 -84 -45.5l-73 -102.5l-71 30q18 37 54 91.5t76 97.5q41 45 94 77t108 32q51 0 98 -16.5t91 -37.5l80 -39t76 -16q41 0 65.5 8.5t39.5 26.5
q17 21 31 47.5l33 60.5z" />
    <glyph glyph-name="oacute" unicode="&#xf3;" horiz-adv-x="1302" 
d="M1235 599q0 -126 -48 -241t-136 -200q-95 -91 -222.5 -140.5t-286.5 -49.5q-213 0 -344 113.5t-131 309.5q0 133 49.5 247t138.5 199q88 83 216 131.5t277 48.5q226 0 356.5 -110.5t130.5 -307.5zM883 712q0 117 -39.5 172t-114.5 55q-77 0 -141 -61.5t-104 -180.5
q-35 -99 -50 -214.5t-15 -206.5q0 -121 40 -175.5t116 -54.5q82 0 142 67t95 165q35 96 53 212.5t18 221.5zM1058 1460q0 -45 -20.5 -72.5t-65.5 -56.5q-49 -32 -155 -90.5t-240 -139.5l-42 38q88 117 136 186.5l83 118.5q43 61 82 82.5t97 21.5q48 0 86.5 -26t38.5 -62z
" />
    <glyph glyph-name="ograve" unicode="&#xf2;" horiz-adv-x="1302" 
d="M1235 599q0 -126 -48 -241t-136 -200q-95 -91 -222.5 -140.5t-286.5 -49.5q-213 0 -344 113.5t-131 309.5q0 133 49.5 247t138.5 199q88 83 216 131.5t277 48.5q226 0 356.5 -110.5t130.5 -307.5zM883 712q0 117 -39.5 172t-114.5 55q-77 0 -141 -61.5t-104 -180.5
q-35 -99 -50 -214.5t-15 -206.5q0 -121 40 -175.5t116 -54.5q82 0 142 67t95 165q35 96 53 212.5t18 221.5zM988 1139l-46 -38q-131 88 -227 144t-136 84q-35 26 -52 50t-17 60t31.5 72.5t82.5 36.5q63 0 100 -24t74 -80q29 -44 77.5 -126t112.5 -179z" />
    <glyph glyph-name="ocircumflex" unicode="&#xf4;" horiz-adv-x="1302" 
d="M1235 599q0 -126 -48 -241t-136 -200q-95 -91 -222.5 -140.5t-286.5 -49.5q-213 0 -344 113.5t-131 309.5q0 133 49.5 247t138.5 199q88 83 216 131.5t277 48.5q226 0 356.5 -110.5t130.5 -307.5zM883 712q0 117 -39.5 172t-114.5 55q-77 0 -141 -61.5t-104 -180.5
q-35 -99 -50 -214.5t-15 -206.5q0 -121 40 -175.5t116 -54.5q82 0 142 67t95 165q35 96 53 212.5t18 221.5zM1122 1132l-54 -29l-278 254l-358 -254l-51 29l172 220.5t116 134.5q28 31 60.5 46t88.5 15q58 0 81.5 -14.5t42.5 -42.5q39 -58 82 -149z" />
    <glyph glyph-name="odieresis" unicode="&#xf6;" horiz-adv-x="1302" 
d="M1235 599q0 -126 -48 -241t-136 -200q-95 -91 -222.5 -140.5t-286.5 -49.5q-213 0 -344 113.5t-131 309.5q0 133 49.5 247t138.5 199q88 83 216 131.5t277 48.5q226 0 356.5 -110.5t130.5 -307.5zM883 712q0 117 -39.5 172t-114.5 55q-77 0 -141 -61.5t-104 -180.5
q-35 -99 -50 -214.5t-15 -206.5q0 -121 40 -175.5t116 -54.5q82 0 142 67t95 165q35 96 53 212.5t18 221.5zM1182 1349q0 -67 -46.5 -116.5t-110.5 -49.5q-66 0 -112 50t-46 116q0 67 46 116.5t112 49.5q64 0 110.5 -49.5t46.5 -116.5zM687 1349q0 -67 -47 -116.5
t-111 -49.5q-65 0 -111 49t-46 117q0 67 45.5 116.5t111.5 49.5q64 0 111 -49.5t47 -116.5z" />
    <glyph glyph-name="otilde" unicode="&#xf5;" horiz-adv-x="1302" 
d="M1235 599q0 -126 -48 -241t-136 -200q-95 -91 -222.5 -140.5t-286.5 -49.5q-213 0 -344 113.5t-131 309.5q0 133 49.5 247t138.5 199q88 83 216 131.5t277 48.5q226 0 356.5 -110.5t130.5 -307.5zM883 712q0 117 -39.5 172t-114.5 55q-77 0 -141 -61.5t-104 -180.5
q-35 -99 -50 -214.5t-15 -206.5q0 -121 40 -175.5t116 -54.5q82 0 142 67t95 165q35 96 53 212.5t18 221.5zM1239 1484q-19 -43 -53 -96t-79 -98q-48 -48 -98 -77.5t-111 -29.5q-64 0 -114 19.5t-84 38.5q-36 19 -76.5 36t-79.5 17q-52 0 -84 -45.5l-73 -102.5l-71 30
q18 37 54 91.5t76 97.5q41 45 94 77t108 32q51 0 98 -16.5t91 -37.5l80 -39t76 -16q41 0 65.5 8.5t39.5 26.5q17 21 31 47.5l33 60.5z" />
    <glyph glyph-name="uacute" unicode="&#xfa;" horiz-adv-x="1403" 
d="M803 159h-7q-105 -96 -200 -142t-220 -46q-111 0 -171.5 61t-60.5 148q0 31 3.5 63t18.5 90l75 281q7 28 16.5 76.5t9.5 71.5q0 55 -22.5 77.5t-87.5 22.5q-32 0 -65.5 -10t-57.5 -19l22 90q81 33 155 56.5t140 23.5q119 0 183.5 -59.5t64.5 -147.5q0 -18 -4 -66t-16 -89
l-73 -266q-10 -35 -16 -75.5t-6 -58.5q0 -47 22 -74.5t76 -27.5q39 0 103.5 32.5t127.5 92.5l165 722l319 14l12 -14l-142 -615q-7 -29 -16.5 -77t-9.5 -71q0 -58 25.5 -79t89.5 -21q30 0 68 10.5t55 18.5l-22 -90q-99 -39 -158 -59.5t-137 -20.5q-110 0 -176 49.5
t-83 127.5zM1100 1460q0 -45 -20.5 -72.5t-65.5 -56.5q-49 -32 -155 -90.5t-240 -139.5l-42 38q88 117 136 186.5l83 118.5q43 61 82 82.5t97 21.5q48 0 86.5 -26t38.5 -62z" />
    <glyph glyph-name="ugrave" unicode="&#xf9;" horiz-adv-x="1403" 
d="M803 159h-7q-105 -96 -200 -142t-220 -46q-111 0 -171.5 61t-60.5 148q0 31 3.5 63t18.5 90l75 281q7 28 16.5 76.5t9.5 71.5q0 55 -22.5 77.5t-87.5 22.5q-32 0 -65.5 -10t-57.5 -19l22 90q81 33 155 56.5t140 23.5q119 0 183.5 -59.5t64.5 -147.5q0 -18 -4 -66t-16 -89
l-73 -266q-10 -35 -16 -75.5t-6 -58.5q0 -47 22 -74.5t76 -27.5q39 0 103.5 32.5t127.5 92.5l165 722l319 14l12 -14l-142 -615q-7 -29 -16.5 -77t-9.5 -71q0 -58 25.5 -79t89.5 -21q30 0 68 10.5t55 18.5l-22 -90q-99 -39 -158 -59.5t-137 -20.5q-110 0 -176 49.5
t-83 127.5zM962 1139l-46 -38q-131 88 -227 144t-136 84q-35 26 -52 50t-17 60t31.5 72.5t82.5 36.5q63 0 100 -24t74 -80q29 -44 77.5 -126t112.5 -179z" />
    <glyph glyph-name="ucircumflex" unicode="&#xfb;" horiz-adv-x="1403" 
d="M803 159h-7q-105 -96 -200 -142t-220 -46q-111 0 -171.5 61t-60.5 148q0 31 3.5 63t18.5 90l75 281q7 28 16.5 76.5t9.5 71.5q0 55 -22.5 77.5t-87.5 22.5q-32 0 -65.5 -10t-57.5 -19l22 90q81 33 155 56.5t140 23.5q119 0 183.5 -59.5t64.5 -147.5q0 -18 -4 -66t-16 -89
l-73 -266q-10 -35 -16 -75.5t-6 -58.5q0 -47 22 -74.5t76 -27.5q39 0 103.5 32.5t127.5 92.5l165 722l319 14l12 -14l-142 -615q-7 -29 -16.5 -77t-9.5 -71q0 -58 25.5 -79t89.5 -21q30 0 68 10.5t55 18.5l-22 -90q-99 -39 -158 -59.5t-137 -20.5q-110 0 -176 49.5
t-83 127.5zM1134 1132l-54 -29l-278 254l-358 -254l-51 29l172 220.5t116 134.5q28 31 60.5 46t88.5 15q58 0 81.5 -14.5t42.5 -42.5q39 -58 82 -149z" />
    <glyph glyph-name="udieresis" unicode="&#xfc;" horiz-adv-x="1403" 
d="M803 159h-7q-105 -96 -200 -142t-220 -46q-111 0 -171.5 61t-60.5 148q0 31 3.5 63t18.5 90l75 281q7 28 16.5 76.5t9.5 71.5q0 55 -22.5 77.5t-87.5 22.5q-32 0 -65.5 -10t-57.5 -19l22 90q81 33 155 56.5t140 23.5q119 0 183.5 -59.5t64.5 -147.5q0 -18 -4 -66t-16 -89
l-73 -266q-10 -35 -16 -75.5t-6 -58.5q0 -47 22 -74.5t76 -27.5q39 0 103.5 32.5t127.5 92.5l165 722l319 14l12 -14l-142 -615q-7 -29 -16.5 -77t-9.5 -71q0 -58 25.5 -79t89.5 -21q30 0 68 10.5t55 18.5l-22 -90q-99 -39 -158 -59.5t-137 -20.5q-110 0 -176 49.5
t-83 127.5zM1196 1349q0 -67 -46.5 -116.5t-110.5 -49.5q-66 0 -112 50t-46 116q0 67 46 116.5t112 49.5q64 0 110.5 -49.5t46.5 -116.5zM701 1349q0 -67 -47 -116.5t-111 -49.5q-65 0 -111 49t-46 117q0 67 45.5 116.5t111.5 49.5q64 0 111 -49.5t47 -116.5z" />
    <glyph glyph-name="dagger" unicode="&#x2020;" horiz-adv-x="987" 
d="M987 991.5q-34 -25.5 -79 -25.5q-27 0 -90.5 19.5t-165.5 32.5q-45 -265 -78 -489.5t-39 -249.5q-10 -41 -31 -65.5t-69 -24.5q-35 0 -59 18.5t-24 48.5q0 9 5 27.5l19 67.5l82.5 269t117.5 398q-82 -9 -171 -30.5t-109 -21.5q-33 0 -53 21.5t-20 51.5q0 54 34.5 77.5
t79.5 23.5q20 0 90.5 -21.5t162.5 -34.5q11 102 10 178.5t4 102.5q8 38 36 64t68 26q38 0 60.5 -17.5t22.5 -47.5q0 -18 -9 -42.5t-27 -60.5l-42 -90.5t-45 -112.5q108 13 180.5 34.5t100.5 21.5q33 0 52.5 -19.5t19.5 -52.5q0 -51 -34 -76.5z" />
    <glyph glyph-name="degree" unicode="&#xb0;" horiz-adv-x="860" 
d="M855 1129q0 -140 -95.5 -235.5t-248.5 -95.5t-248 96.5t-95 234.5q0 143 97.5 237t245.5 94q152 0 248 -95.5t96 -235.5zM675 1121q0 122 -45 185t-120 63q-77 0 -119.5 -65.5t-42.5 -171.5q0 -115 43 -179.5t123 -64.5q68 0 114.5 61.5t46.5 171.5z" />
    <glyph glyph-name="cent" unicode="&#xa2;" horiz-adv-x="1240" 
d="M1124 262q-35 -48 -77.5 -95.5t-95.5 -84.5q-51 -35 -116 -62t-153 -39l-61 -280h-99l61 278q-223 3 -346 109t-123 298q0 248 192.5 434.5t505.5 200.5l57 255h99l-57 -256q75 -7 127.5 -28t85.5 -47q30 -24 47 -55t17 -61q0 -68 -52 -118.5t-147 -50.5
q-42 0 -82.5 34.5t-44.5 101.5l-149 -678q110 0 190 48.5t156 147.5zM618 135l176 803q-51 -6 -106.5 -39t-106.5 -98q-49 -64 -81 -161.5t-32 -226.5q0 -113 41.5 -182t108.5 -96z" />
    <glyph glyph-name="sterling" unicode="&#xa3;" horiz-adv-x="1413" 
d="M1021 1372q-21 0 -48.5 -7t-66.5 -40q-34 -30 -64.5 -85.5t-51.5 -154.5q-14 -67 -29 -172t-30 -174h394l-25 -111h-384q-48 -147 -118.5 -217.5t-191.5 -129.5v-16h835l-61 -265h-1171l44 188q99 31 159 77t93 105q33 58 48 123.5t21 134.5h-200l25 111h190l15 113
t19 131q32 203 212 340t429 137q150 0 248.5 -73t98.5 -184q0 -86 -46 -139.5t-122 -53.5q-79 0 -127.5 43.5t-48.5 114.5q0 42 15.5 93t32.5 98q-19 8 -44 10.5t-50 2.5z" />
    <glyph glyph-name="section" unicode="&#xa7;" horiz-adv-x="1154" 
d="M798 604q0 41 -19.5 73.5t-54.5 59.5q-35 26 -84 51l-106 52q-59 -39 -96 -99t-37 -119q0 -44 21 -78t55 -60q35 -27 84 -52t103 -50q72 49 103 102.5t31 119.5zM105 -163q-38 30 -52 66t-14 66q0 54 34.5 90t94.5 36q44 0 75.5 -23.5t53.5 -60.5q19 -34 34 -76.5
l29 -83.5q5 0 9 -0.5t8 -0.5q119 0 183 45t64 136q0 37 -17.5 65t-53.5 53q-34 24 -85.5 48.5l-107.5 49.5q-116 53 -172.5 121t-56.5 159q0 121 74.5 203t252.5 143q-92 42 -130.5 103t-38.5 130q0 150 150 249t377 99q97 0 163 -18.5t105 -50.5q35 -29 49.5 -63.5
t14.5 -68.5q0 -51 -32 -88.5t-97 -37.5q-46 0 -76 23.5t-53 60.5q-24 42 -35.5 79t-27.5 81q-3 1 -8 1h-8q-104 0 -174.5 -46t-70.5 -133q0 -39 19.5 -68t54.5 -52t91.5 -49.5l106.5 -48.5q115 -52 172 -119.5t57 -159.5q0 -118 -74.5 -202t-252.5 -145q75 -33 118.5 -91.5
t43.5 -133.5q0 -151 -144 -253.5t-386 -102.5q-100 0 -165.5 19.5t-101.5 49.5z" />
    <glyph glyph-name="bullet" unicode="&#x2022;" horiz-adv-x="896" 
d="M767 609q0 -132 -93.5 -225.5t-225.5 -93.5t-225.5 93.5t-93.5 225.5t93.5 225.5t225.5 93.5t225.5 -93.5t93.5 -225.5z" />
    <glyph glyph-name="paragraph" unicode="&#xb6;" horiz-adv-x="1274" 
d="M1413 1419l-23 -96h-221l-365 -1559h-110l366 1559h-173l-365 -1559h-110l214 900h-38q-118 0 -195.5 32.5t-120.5 82.5q-44 51 -60 109.5t-16 113.5q0 83 33.5 155.5t98.5 133.5q63 57 157.5 92.5t209.5 35.5h718z" />
    <glyph glyph-name="germandbls" unicode="&#xdf;" horiz-adv-x="1343" 
d="M294 1017q26 127 80.5 231t170.5 183q96 65 190.5 92t199.5 27q77 0 153 -16.5t132 -48.5q59 -34 93 -83t34 -119q0 -75 -33 -136.5t-84 -103.5q-52 -43 -114.5 -71t-123.5 -38v-12q54 -11 102.5 -34t91.5 -65q41 -41 66.5 -98t25.5 -139q0 -246 -169.5 -421.5
t-399.5 -175.5q-66 0 -132.5 7t-91.5 13l18 86l34.5 -7t53.5 -5q78 0 140.5 49t104.5 126q44 83 66 180t22 206q0 111 -44 175.5t-141 64.5h-28l21 89h37q49 0 96.5 20t84.5 62q39 43 61.5 101t22.5 149q0 79 -34 120.5t-97 41.5q-102 0 -162 -86.5t-104 -294.5l-218 -1026
q-46 -209 -219 -356.5t-373 -147.5q-91 0 -147.5 18t-88.5 46q-31 28 -42 62t-11 67q0 54 40.5 100.5t112.5 46.5q54 0 93.5 -28.5t67.5 -68.5q28 -39 49.5 -87l33.5 -75q45 50 80.5 141t67.5 244z" />
    <glyph glyph-name="registered" unicode="&#xae;" horiz-adv-x="1929" 
d="M1869 602q0 -366 -259 -624.5t-625 -258.5t-625 258.5t-259 624.5t259 624.5t625 258.5t625 -258.5t259 -624.5zM1771 602q0 330 -228 563t-558 233t-558 -233t-228 -563t228 -563t558 -233t558 233t228 563zM1594 145h-362q-96 147 -157.5 230.5t-146.5 185.5h-34v-269
q0 -25 7.5 -40.5t35.5 -27.5q12 -5 35.5 -12.5t41.5 -8.5v-58h-482v58q19 2 45.5 6.5t41.5 10.5q26 11 34 27.5t8 40.5v636q0 25 -6 39.5t-36 27.5q-19 8 -45.5 15.5t-41.5 10.5v58h515q174 0 265 -54.5t91 -165.5q0 -104 -60.5 -162t-164.5 -88l92 -118.5l135 -170.5
q20 -25 55 -57t62 -42q12 -4 37 -9t35 -5v-58zM1144 836q0 93 -52 131t-148 38h-50v-376h48q99 0 150.5 50t51.5 157z" />
    <glyph glyph-name="copyright" unicode="&#xa9;" horiz-adv-x="1929" 
d="M1869 602q0 -366 -259 -624.5t-625 -258.5t-625 258.5t-259 624.5t259 624.5t625 258.5t625 -258.5t259 -624.5zM1771 602q0 330 -228 563t-558 233t-558 -233t-228 -563t228 -563t558 -233t558 233t228 563zM1413 381q-24 -56 -61 -105.5t-91 -84.5q-56 -37 -117 -56.5
t-147 -19.5q-101 0 -194 32.5t-160 93.5q-68 62 -107 149.5t-39 201.5q0 222 148.5 363t373.5 141q79 0 141.5 -20t104.5 -42l35 51h65l4 -370h-69q-51 156 -112 229t-160 73q-118 0 -181 -107.5t-63 -293.5q0 -187 68 -289t199 -102q100 0 170.5 48t125.5 144z" />
    <glyph glyph-name="trademark" unicode="&#x2122;" horiz-adv-x="1940" 
d="M2006 733h-376v56q22 1 44 4t31 8q16 9 22 19t6 26v440h-22l-217 -531h-62l-210 541h-22v-357q0 -53 6.5 -80t22.5 -42q8 -7 40 -16.5t58 -11.5v-56h-325v56q16 2 48 7t47 17q17 13 23 36t6 86v335q0 24 -8 40.5t-21 27.5q-15 12 -37.5 17.5t-51.5 7.5v56h338l172 -451
l140 366q8 21 15 45.5t10 39.5h323v-56q-22 -1 -44.5 -4t-36.5 -9q-12 -5 -17.5 -16t-5.5 -25v-463q0 -13 4 -25t19 -18q8 -3 35 -8t46 -6v-56zM906 1216h-48q-10 33 -40.5 82.5t-59.5 55.5q-10 2 -28.5 3t-39.5 1h-39v-508q0 -13 4.5 -26t20.5 -19q8 -3 33 -9.5t44 -6.5
v-56h-373v56q21 1 45 5t32 7q16 6 20.5 18.5t4.5 24.5v514h-29q-15 0 -39 -0.5t-39 -3.5q-29 -5 -59.5 -55t-40.5 -83h-48v203h679v-203z" />
    <glyph glyph-name="acute" unicode="&#xb4;" 
d="M943 1460q0 -45 -20.5 -72.5t-65.5 -56.5q-49 -32 -155 -90.5t-240 -139.5l-42 38q88 117 136 186.5l83 118.5q43 61 82 82.5t97 21.5q48 0 86.5 -26t38.5 -62z" />
    <glyph glyph-name="dieresis" unicode="&#xa8;" 
d="M1056 1349q0 -67 -46.5 -116.5t-110.5 -49.5q-66 0 -112 50t-46 116q0 67 46 116.5t112 49.5q64 0 110.5 -49.5t46.5 -116.5zM561 1349q0 -67 -47 -116.5t-111 -49.5q-65 0 -111 49t-46 117q0 67 45.5 116.5t111.5 49.5q64 0 111 -49.5t47 -116.5z" />
    <glyph glyph-name="notequal" unicode="&#x2260;" horiz-adv-x="1440" 
d="M1277 286h-538l-87 -286h-169l87 286h-363v163h412l77 251h-489v163h538l90 296h169l-90 -296h363v-163h-413l-77 -251h490v-163z" />
    <glyph glyph-name="AE" unicode="&#xc6;" horiz-adv-x="2201" 
d="M2119 442l-129 -442h-1310l17 73q28 2 78 8t71 14q42 16 61.5 42.5t26.5 60.5l91 396h-489l-167.5 -212l-83.5 -108q-53 -70 -64.5 -95.5t-11.5 -33.5q0 -19 19 -32t47 -21q26 -7 58 -12t55 -7l-17 -73h-589l17 73q38 3 77 12t64 22q51 25 91 58.5t80 83.5l434 532.5
l422 520.5q-29 19 -85.5 30t-99.5 14l17 73h1446l-84 -362h-76q-7 73 -58 162t-122 105q-28 7 -81 8.5t-88 1.5h-186l-129 -555h126q61 0 107.5 14.5t90.5 49.5q28 23 65.5 82t53.5 101h76l-137 -592h-76q4 48 -6 109t-26 85q-31 41 -73.5 53t-93.5 12h-126l-96 -417
q-8 -33 -12 -59.5t-4 -43.5q0 -55 42.5 -71t151.5 -16q149 0 211.5 15.5t94.5 40.5q61 51 143.5 152t112.5 148h73zM1047 688l149 646h-68l-516 -646h435z" />
    <glyph glyph-name="Oslash" unicode="&#xd8;" horiz-adv-x="1679" 
d="M1274 1058l-776 -807q30 -94 95.5 -145.5t162.5 -51.5q121 0 220 82.5t164 210.5t101 292t36 333q0 17 -1 41.5t-2 44.5zM473 366l776 806q-35 101 -100 147t-156 46q-121 0 -218 -80t-166 -212q-67 -130 -102.5 -295.5t-35.5 -331.5q0 -23 1 -44.5t1 -35.5zM251 140
q-77 75 -120.5 178.5t-43.5 226.5q0 190 73 357.5t202 292.5q126 123 295.5 193t357.5 70q115 0 215.5 -29t184.5 -85l160 165l74 -68l-156 -160q80 -77 124 -180.5t44 -225.5q0 -180 -67.5 -347.5t-189.5 -291.5q-125 -127 -294 -201t-383 -74q-112 0 -215.5 30t-183.5 85
l-165 -171l-74 68z" />
    <glyph glyph-name="infinity" unicode="&#x221e;" horiz-adv-x="1636" 
d="M1583 576q0 -208 -116.5 -350t-280.5 -142q-116 0 -215.5 68t-166.5 205q-56 -136 -135.5 -204t-186.5 -68q-169 0 -277 135t-108 355q0 209 117 350.5t280 141.5q121 0 216 -66.5t166 -206.5q52 136 135 204t189 68q170 0 276.5 -135.5t106.5 -354.5zM1464 575
q0 120 -73 188.5t-178 68.5q-98 0 -171.5 -31.5t-124.5 -82.5q78 -199 150.5 -296t176.5 -97q101 0 160.5 70t59.5 180zM764 433q-87 213 -158 303t-170 90q-101 0 -160.5 -70.5t-59.5 -176.5q0 -122 74.5 -191t178.5 -69q97 0 172.5 31.5t122.5 82.5z" />
    <glyph glyph-name="plusminus" unicode="&#xb1;" horiz-adv-x="1440" 
d="M1297 0h-1111v163h473v395h-473v163h473v473h165v-473h473v-163h-473v-395h473v-163z" />
    <glyph glyph-name="lessequal" unicode="&#x2264;" horiz-adv-x="1440" 
d="M1261 274l-1030 420v143l1030 420v-187l-791 -305l791 -304v-187zM1261 0h-1030v163h1030v-163z" />
    <glyph glyph-name="greaterequal" unicode="&#x2265;" horiz-adv-x="1440" 
d="M1253 694l-1030 -420v187l791 304l-791 305v187l1030 -420v-143zM1253 0h-1030v163h1030v-163z" />
    <glyph glyph-name="yen" unicode="&#xa5;" horiz-adv-x="1500" 
d="M1701 1419l-17 -72q-30 -3 -58 -12.5t-59 -25.5q-48 -24 -87 -57.5t-89 -87.5l-226 -255.5l-253 -293.5l-9 -34h434l-26 -112h-431l-54 -236q-3 -12 -6 -28.5t-3 -30.5q0 -27 12.5 -44t31.5 -26t66.5 -19t79.5 -13l-17 -72h-779l17 72q28 2 82.5 8t76.5 14
q41 16 61.5 44.5t27.5 62.5l61 268h-431l26 112h433l5 22l-104 296l-100 272q-21 54 -46.5 88.5t-59.5 54.5q-24 14 -56 22.5t-58 10.5l17 72h763l-17 -72q-20 -1 -54 -2.5t-67 -6.5q-30 -5 -53 -17.5t-23 -33.5q0 -15 5.5 -42.5t27.5 -96.5q19 -60 54.5 -158l88.5 -243
l210 244l125 148q65 80 80.5 104.5t15.5 40.5q0 28 -34 42.5t-121 20.5l17 72h520z" />
    <glyph glyph-name="mu1" unicode="&#xb5;" horiz-adv-x="1386" 
d="M796 264l165 722l319 14l12 -14l-142 -615q-7 -29 -16.5 -77t-9.5 -71q0 -58 25.5 -79t89.5 -21q30 0 68 10.5t55 18.5l-22 -90q-99 -39 -158 -59.5t-137 -20.5q-110 0 -176 49.5t-83 127.5h-7q-63 -88 -150.5 -136.5t-156.5 -48.5q-71 0 -115.5 15t-78.5 54h-11
q-3 -15 -5.5 -51.5t-2.5 -58.5q0 -31 8 -80.5t8 -86.5q0 -98 -55 -154t-149 -56q-59 0 -98 33t-39 96q0 49 44.5 144t57.5 127q24 58 38 101t24 89l194 840l317 14l12 -14l-149 -643q-5 -20 -8.5 -48t-3.5 -43q0 -60 25.5 -88t82.5 -28q56 0 101.5 21t126.5 107z" />
    <glyph glyph-name="partialdiff" unicode="&#x2202;" horiz-adv-x="1325" 
d="M1118 1276q67 -81 100.5 -188.5t33.5 -223.5q0 -136 -32 -282t-116 -286q-97 -162 -230 -246.5t-298 -84.5q-213 0 -339.5 119t-126.5 320q0 107 39 202t105 166q63 68 147 105.5t169 37.5q135 0 217 -47.5t125 -127.5q2 28 4 65t2 73q0 93 -13.5 185.5t-48.5 162.5
q-35 69 -92.5 109t-143.5 40q-11 0 -27.5 -1.5t-36.5 -5.5q16 -46 25 -87.5t9 -100.5q0 -71 -47.5 -111.5t-126.5 -40.5q-75 0 -119 47t-44 118q0 116 126 191.5t308 75.5q148 0 255.5 -50.5t175.5 -133.5zM799 239q35 84 55.5 171t28.5 159q-8 102 -57 162t-130 60
q-99 0 -175.5 -133.5t-76.5 -316.5q0 -65 6.5 -110t27.5 -91q18 -40 49.5 -65t76.5 -25q60 0 111.5 55.5t83.5 133.5z" />
    <glyph glyph-name="summation" unicode="&#x2211;" horiz-adv-x="1494" 
d="M1481 142l-152 -556h-1283v93l696 786l-682 853v101h1264l44 -433h-81q-80 148 -136 221.5t-100 91.5q-32 13 -86 20.5t-130 7.5h-359l538 -666v-32l-665 -750h759q56 0 102.5 26.5t80.5 66.5q33 39 62.5 89t51.5 104z" />
    <glyph glyph-name="product" unicode="&#x220f;" horiz-adv-x="1910" 
d="M1853 -414h-767v78q25 2 73 6.5t66 11.5q37 15 51 39.5t14 62.5v1534h-626v-1523q0 -34 14.5 -61t49.5 -42q18 -8 64.5 -17t75.5 -11v-78h-767v78q25 1 73.5 6.5t70.5 13.5q36 13 50 39.5t14 62.5v1532h-208v101h1752v-101h-208v-1523q0 -36 13 -61t51 -42
q24 -11 69.5 -18.5t74.5 -9.5v-78z" />
    <glyph glyph-name="pi1" horiz-adv-x="1382" 
d="M1461 1044q-57 -99 -129.5 -201.5t-112.5 -115.5h-173q-30 -88 -60.5 -217.5t-30.5 -205.5q0 -65 20 -99.5t59 -34.5q51 0 85.5 35.5t55.5 122.5h77q-38 -180 -122 -267.5t-195 -87.5q-63 0 -105.5 20t-68.5 53t-37 77.5t-11 88.5q0 90 41.5 237t89.5 278h-221
q-24 -86 -58.5 -196t-62.5 -177q-93 -227 -162.5 -304t-145.5 -77q-45 0 -70.5 22.5t-25.5 65.5q0 46 19.5 75t49.5 50q28 20 61.5 31t52.5 18q72 61 133.5 187t110.5 305q-102 0 -161 -17.5t-96 -48.5q-34 -30 -50 -72t-28 -82h-71q-2 14 -3.5 40.5t-1.5 53.5q0 79 28 148
t91 123q60 52 159 83t235 31h505q111 0 168 16t106 75z" />
    <glyph glyph-name="integral" unicode="&#x222b;" horiz-adv-x="1286" 
d="M1248 1476q37 -33 48.5 -70.5t11.5 -73.5q0 -61 -46 -107.5t-113 -46.5q-91 0 -136.5 71.5t-45.5 218.5q-5 2 -8.5 1.5t-7.5 -0.5q-62 0 -95.5 -101.5t-33.5 -289.5v-910q0 -134 -37 -263.5t-112 -205.5q-70 -71 -155.5 -107t-156.5 -36q-113 0 -182.5 20t-106.5 52
t-48.5 70t-11.5 74q0 56 44 105t116 49q93 0 137 -72t44 -218q5 -1 8.5 -1h7.5q59 0 94.5 95.5t35.5 301.5v905q0 151 35.5 269.5t112.5 198.5q69 71 156 107t156 36q114 0 184 -20t105 -52z" />
    <glyph glyph-name="ordfeminine" unicode="&#xaa;" horiz-adv-x="1130" 
d="M1209 761l-20 -78q-82 -31 -132.5 -48t-115.5 -17q-87 0 -139.5 34.5t-70.5 82.5h-7q-58 -53 -125.5 -89.5t-150.5 -36.5q-147 0 -218 83.5t-71 227.5q0 222 148.5 379.5t353.5 157.5q73 0 126.5 -16.5t91.5 -46.5l258 51l11 -13l-118 -494q-7 -24 -14.5 -62t-7.5 -58
q0 -46 21 -63.5t76 -17.5q21 0 52 7.5t52 16.5zM826 1245q0 19 -4 42t-16 41q-12 19 -35 31t-61 12q-106 0 -177.5 -134t-71.5 -316q0 -97 30 -140.5t96 -43.5q42 0 78 27t60 54z" />
    <glyph glyph-name="ordmasculine" unicode="&#xba;" horiz-adv-x="1130" 
d="M1131 1118q0 -215 -159 -363.5t-414 -148.5q-177 0 -284.5 92.5t-107.5 250.5q0 217 157 362.5t406 145.5q201 0 301.5 -94.5t100.5 -244.5zM782 861q29 78 42.5 168t13.5 176t-30 131.5t-96 45.5t-118 -50.5t-83 -137.5q-27 -72 -39 -169.5t-12 -163.5q0 -98 32 -139
t95 -41q69 0 118 52.5t77 127.5z" />
    <glyph glyph-name="Ohm" unicode="&#x2126;" horiz-adv-x="1797" 
d="M1781 437l-216 -437h-703l23 98q93 94 176.5 188.5t145.5 200.5t95.5 223t33.5 280q0 73 -12.5 139t-46.5 120q-33 53 -86 84.5t-135 31.5q-73 0 -126 -23t-103 -67q-46 -40 -82 -96.5t-64 -116.5q-52 -117 -75.5 -245.5t-23.5 -206.5q0 -176 35.5 -280.5t92.5 -231.5
l-23 -98h-653l-50 447l72 20q9 -33 25 -72.5t39 -71.5q22 -33 55.5 -55.5t77.5 -22.5h260v20l-119.5 114.5t-97.5 113.5q-40 57 -63 127t-23 154q0 133 59 254.5t172 219.5q108 94 270 152t353 58q160 0 283.5 -39t206.5 -106q81 -65 125 -155t44 -193q0 -118 -36 -214
t-108 -179q-67 -78 -173 -156t-230 -151v-20h246q73 0 146 58.5t146 155.5z" />
    <glyph glyph-name="ae" unicode="&#xe6;" horiz-adv-x="1754" 
d="M1251 935q-83 0 -146.5 -125t-84.5 -319q59 7 116 18.5t91 26.5q82 36 111.5 91t29.5 132q0 85 -31 130.5t-86 45.5zM1327 1015q177 0 271.5 -56.5t94.5 -171.5q0 -109 -79 -186t-222 -118q-110 -33 -186.5 -47.5t-188.5 -26.5q0 -44 9.5 -99t30.5 -93q24 -45 68 -71.5
t112 -26.5q118 0 200.5 45.5t157.5 144.5l73 -61q-90 -128 -230.5 -204.5t-295.5 -76.5q-160 0 -264.5 54t-153.5 142h-7q-30 -31 -75 -68t-94 -63q-58 -30 -119.5 -47t-148.5 -17q-113 0 -185 59t-72 157q0 74 23.5 126.5t63.5 91.5q37 37 87.5 62t100.5 43
q117 41 238.5 67t183.5 36l26 114q3 15 7 37.5t4 46.5q0 62 -29 94.5t-87 32.5q-49 0 -83 -13t-47 -21q1 -16 5 -40t4 -57q0 -18 -7.5 -51t-24.5 -54q-22 -27 -58.5 -45t-107.5 -18q-73 0 -111 31.5t-38 88.5q0 62 49.5 110.5t123.5 81.5t162 50t164 17q100 0 185.5 -20.5
t141.5 -67.5q69 37 153 62.5t175 25.5zM694 254q-5 20 -7.5 56.5t-2.5 63.5q0 47 4.5 79.5t12.5 67.5q-65 -11 -128 -30.5t-109 -50.5q-48 -31 -76 -81t-28 -118q0 -63 34.5 -91t79.5 -28q51 0 111 32t109 100z" />
    <glyph glyph-name="oslash" unicode="&#xf8;" horiz-adv-x="1302" 
d="M805 250q36 85 57.5 195t24.5 219l-468 -455q9 -73 47 -118t109 -45q79 0 136.5 58t93.5 146zM491 731q-36 -88 -54 -196.5t-22 -207.5l467 454q-10 69 -46 113.5t-107 44.5q-68 0 -130 -49.5t-108 -158.5zM181 104q-55 56 -84.5 129.5t-29.5 157.5q0 133 49.5 247
t138.5 199q88 83 216 131.5t277 48.5q98 0 173 -21t128 -53l161 155l66 -61l-155 -150q57 -57 85.5 -129t28.5 -159q0 -126 -48 -241t-136 -200q-95 -91 -222.5 -140.5t-286.5 -49.5q-83 0 -157.5 21t-132.5 58l-174 -168l-66 61z" />
    <glyph glyph-name="questiondown" unicode="&#xbf;" horiz-adv-x="1123" 
d="M992 1267q0 -76 -57.5 -131.5t-135.5 -55.5q-77 0 -134.5 55.5t-57.5 131.5t57.5 130.5t134.5 54.5q78 0 135.5 -54.5t57.5 -130.5zM967 259q0 -120 -141.5 -204t-341.5 -84q-185 0 -308.5 97.5t-123.5 260.5q0 224 172 365t456 161l29 136h86l-77 -389
q-175 -13 -282 -98.5t-107 -244.5q0 -97 51.5 -150t143.5 -53q38 0 73 11t69 32q-10 32 -20.5 76t-10.5 82q0 71 46.5 112.5t125.5 41.5q72 0 116 -43t44 -109z" />
    <glyph glyph-name="exclamdown" unicode="&#xa1;" horiz-adv-x="771" 
d="M754 1262q0 -76 -57.5 -131.5t-135.5 -55.5q-77 0 -134.5 55.5t-57.5 131.5t57.5 130.5t134.5 54.5q78 0 135.5 -54.5t57.5 -130.5zM535 956q-12 -235 -11.5 -402t0.5 -237q0 -50 -2.5 -93.5t-9.5 -69.5q-22 -90 -88 -136.5t-147 -46.5q-68 0 -112.5 41t-44.5 102
q0 39 13.5 80.5t47.5 117.5l120.5 266t156.5 378h77z" />
    <glyph glyph-name="logicalnot" unicode="&#xac;" horiz-adv-x="1440" 
d="M1288 50h-170v473h-932v163h1102v-636z" />
    <glyph glyph-name="radical" unicode="&#x221a;" horiz-adv-x="1440" 
d="M1745 1724l-997 -1850h-128l-305 946h-198v123h416l242 -739l818 1520h152z" />
    <glyph glyph-name="florin" unicode="&#x192;" horiz-adv-x="1186" 
d="M713 639l-33.5 -183t-52.5 -250q-26 -113 -75.5 -219t-128.5 -187q-79 -80 -178 -124.5t-236 -44.5q-115 0 -178 46.5t-63 127.5q0 63 44 108t120 45q80 0 123 -55.5t85 -178.5q57 31 88.5 164.5t49.5 224.5l57 291t43 235h-219l25 111h212q20 104 69 204t125 180
q75 78 182.5 127t237.5 49q117 0 179 -46.5t62 -122.5q0 -25 -9 -55t-28 -51q-22 -25 -49.5 -38.5t-79.5 -13.5q-46 0 -75 16t-50 44q-24 31 -43 75t-40 99q-50 -30 -81 -131.5t-55 -257.5l-12 -78h286l-25 -111h-277z" />
    <glyph glyph-name="approxequal" unicode="&#x2248;" horiz-adv-x="1440" 
d="M1297 946q-16 -45 -48 -99.5t-79 -101.5q-50 -50 -105 -80t-129 -30t-134 21t-113 48q-43 22 -100 46t-102 24q-70 0 -114.5 -42t-86.5 -133l-99 44q16 45 48.5 98.5t78.5 99.5q44 44 105 76t128 32q78 0 138.5 -22.5t110.5 -47.5l98.5 -48t102.5 -21q77 0 119 49t82 131
zM1297 526q-16 -45 -48 -99.5t-79 -101.5q-50 -50 -105 -80t-129 -30t-134 21t-113 48q-43 22 -100 46t-102 24q-70 0 -114.5 -42t-86.5 -133l-99 44q16 45 48.5 98.5t78.5 99.5q44 44 105 76t128 32q78 0 138.5 -22.5t110.5 -47.5l98.5 -48t102.5 -21q77 0 119 49t82 131z
" />
    <glyph glyph-name="uni2206" unicode="&#x2206;" horiz-adv-x="1523" 
d="M1380 0h-1485l13 57l983 1382h193l309 -1382zM1002 194l-207 928l-653 -928h860z" />
    <glyph glyph-name="guillemotleft" unicode="&#xab;" horiz-adv-x="1250" 
d="M619 139l-61 -43l-215 179t-144 126q-22 21 -33.5 46t-11.5 54q0 62 26 105.5t85 83.5l189.5 124l291.5 181l41 -43l-391 -419zM1058 139l-61 -43l-215 179t-144 126q-22 21 -33.5 46t-11.5 54q0 62 26 105.5t85 83.5l189.5 124l291.5 181l41 -43l-391 -419z" />
    <glyph glyph-name="guillemotright" unicode="&#xbb;" horiz-adv-x="1250" 
d="M1119 590q0 -58 -27.5 -105t-83.5 -84l-204.5 -132.5l-276.5 -172.5l-41 43l391 419l-223 394l61 43l215 -179t144 -126q22 -21 33.5 -46t11.5 -54zM680 590q0 -58 -27.5 -105t-83.5 -84l-204.5 -132.5l-276.5 -172.5l-41 43l391 419l-223 394l61 43l215 -179t144 -126
q22 -21 33.5 -46t11.5 -54z" />
    <glyph glyph-name="ellipsis" unicode="&#x2026;" horiz-adv-x="1929" 
d="M1784 158q0 -77 -56.5 -132t-134.5 -55q-79 0 -135.5 55t-56.5 132t56.5 132.5t135.5 55.5q78 0 134.5 -55.5t56.5 -132.5zM1141 158q0 -77 -56.5 -132t-134.5 -55q-79 0 -135.5 55t-56.5 132t56.5 132.5t135.5 55.5q78 0 134.5 -55.5t56.5 -132.5zM498 158
q0 -77 -56.5 -132t-134.5 -55q-79 0 -135.5 55t-56.5 132t56.5 132.5t135.5 55.5q78 0 134.5 -55.5t56.5 -132.5z" />
    <glyph glyph-name="Agrave" unicode="&#xc0;" horiz-adv-x="1553" 
d="M892 571l-87 517l-324 -517h411zM732 0l17 73q103 8 160.5 25.5t57.5 38.5q0 18 -2 31t-5 30l-50 279h-489l-60.5 -97.5l-61.5 -103.5q-38 -68 -44.5 -93t-6.5 -32q0 -30 47 -49.5t144 -28.5l-17 -73h-596l17 73q29 2 73 10t74 24q42 22 79 57t69 85l373 576.5l394 613.5
h198l127.5 -741t88.5 -490q5 -30 19.5 -54.5t46.5 -46.5q24 -16 58.5 -24t64.5 -10l-17 -73h-759zM1216 1526l-39 -41q-148 67 -248 107t-145 60q-42 19 -67.5 42t-25.5 56q0 52 39.5 85t110.5 33q40 0 71.5 -18t65.5 -58l103.5 -118z" />
    <glyph glyph-name="Atilde" unicode="&#xc3;" horiz-adv-x="1553" 
d="M892 571l-87 517l-324 -517h411zM732 0l17 73q103 8 160.5 25.5t57.5 38.5q0 18 -2 31t-5 30l-50 279h-489l-60.5 -97.5l-61.5 -103.5q-38 -68 -44.5 -93t-6.5 -32q0 -30 47 -49.5t144 -28.5l-17 -73h-596l17 73q29 2 73 10t74 24q42 22 79 57t69 85l373 576.5l394 613.5
h198l127.5 -741t88.5 -490q5 -30 19.5 -54.5t46.5 -46.5q24 -16 58.5 -24t64.5 -10l-17 -73h-759zM1506 1849q-19 -43 -53 -96t-79 -98q-48 -48 -98 -77.5t-111 -29.5q-64 0 -114 19.5t-84 38.5q-36 19 -76.5 36t-79.5 17q-52 0 -84 -45.5l-73 -102.5l-71 30q18 37 54 91.5
t76 97.5q41 45 94 77t108 32q51 0 98 -16.5t91 -37.5l80 -39t76 -16q41 0 65.5 8.5t39.5 26.5q17 21 31 47.5l33 60.5z" />
    <glyph glyph-name="Otilde" unicode="&#xd5;" horiz-adv-x="1679" 
d="M1661 875q0 -180 -67.5 -347.5t-189.5 -291.5q-125 -127 -294 -201t-383 -74q-280 0 -460 161.5t-180 422.5q0 190 73 357.5t202 292.5q126 123 295.5 193t357.5 70q282 0 464 -158t182 -425zM1138 351q68 138 101 300.5t33 320.5q0 183 -70 288t-209 105
q-122 0 -218.5 -82t-162.5 -213t-101 -296t-35 -328q0 -177 70 -284.5t210 -107.5q121 0 219.5 84t162.5 213zM1505 1849q-19 -43 -53 -96t-79 -98q-48 -48 -98 -77.5t-111 -29.5q-64 0 -114 19.5t-84 38.5q-36 19 -76.5 36t-79.5 17q-52 0 -84 -45.5l-73 -102.5l-71 30
q18 37 54 91.5t76 97.5q41 45 94 77t108 32q51 0 98 -16.5t91 -37.5l80 -39t76 -16q41 0 65.5 8.5t39.5 26.5q17 21 31 47.5l33 60.5z" />
    <glyph glyph-name="OE" unicode="&#x152;" horiz-adv-x="2264" 
d="M2308 1419l-84 -362h-76q-14 95 -66 174t-113 93q-28 7 -81.5 8.5t-88.5 1.5h-186l-129 -555h126q60 0 108 14.5t89 48.5q28 23 66 82.5t54 101.5h76l-137 -592h-76q4 48 -6 109t-26 85q-28 38 -68.5 51.5t-98.5 13.5h-126l-96 -417q-8 -33 -12 -59.5t-4 -43.5
q0 -55 43 -71t151 -16q128 0 199 14.5t107 41.5q61 51 144 151.5t112 148.5h73l-129 -442h-1298q-104 0 -222 26t-217 89q-108 68 -168.5 175.5t-60.5 252.5q0 204 77.5 370.5t228.5 286.5q131 104 313 161.5t377 57.5h1225zM1255 1330q-34 2 -91 2.5t-90 0.5
q-147 0 -260 -70.5t-193 -202.5q-71 -115 -106.5 -269t-35.5 -292q0 -196 93.5 -304.5t263.5 -108.5q23 0 61 0.5t72 2.5z" />
    <glyph glyph-name="oe" unicode="&#x153;" horiz-adv-x="1910" 
d="M1866 787q0 -109 -81 -187.5t-220 -116.5q-110 -30 -187.5 -45.5t-189.5 -27.5q2 -44 12 -100t30 -93q24 -45 68 -71.5t112 -26.5q118 0 200.5 45.5t157.5 144.5l73 -61q-90 -128 -230.5 -204.5t-295.5 -76.5q-118 0 -208 37t-148 93q-88 -59 -191.5 -94t-225.5 -35
q-213 0 -344 113.5t-131 309.5q0 133 49.5 247t138.5 199q88 83 216 131.5t277 48.5q121 0 211.5 -36t150.5 -90q76 52 177 88t213 36q179 0 272.5 -57t93.5 -171zM1541 759q0 85 -31 130.5t-86 45.5q-74 0 -141.5 -117.5t-91.5 -325.5q59 7 117 18t92 26q75 33 108 85
t33 138zM883 712q0 117 -39.5 172t-114.5 55q-73 0 -136 -56.5t-109 -185.5q-35 -99 -50 -214.5t-15 -206.5q0 -121 39.5 -175.5t116.5 -54.5q82 0 142 67t95 165q35 96 53 212.5t18 221.5z" />
    <glyph glyph-name="endash" unicode="&#x2013;" horiz-adv-x="1440" 
d="M1329 493h-1231l37 161h1231z" />
    <glyph glyph-name="emdash" unicode="&#x2014;" horiz-adv-x="1900" 
d="M1789 493h-1691l37 161h1691z" />
    <glyph glyph-name="quotedblleft" unicode="&#x201c;" horiz-adv-x="1063" 
d="M683 1455q-46 -20 -104.5 -54.5t-93.5 -66.5q-40 -36 -72.5 -81t-50.5 -103h56q87 0 130 -33t43 -92q0 -76 -64 -138.5t-152 -62.5q-93 0 -134.5 50.5t-41.5 130.5q0 157 132.5 301t323.5 220zM1176 1455q-46 -20 -104.5 -54.5t-93.5 -66.5q-40 -36 -72.5 -81t-50.5 -103
h56q87 0 130 -33t43 -92q0 -76 -64 -138.5t-152 -62.5q-93 0 -134.5 50.5t-41.5 130.5q0 157 132.5 301t323.5 220z" />
    <glyph glyph-name="quotedblright" unicode="&#x201d;" horiz-adv-x="1063" 
d="M686 1349q0 -157 -132.5 -301t-323.5 -220l-28 71q46 20 104.5 54.5t93.5 66.5q40 36 72.5 81t50.5 103h-56q-87 0 -130 33t-43 92q0 76 64 138.5t152 62.5q93 0 134.5 -50.5t41.5 -130.5zM1179 1349q0 -157 -132.5 -301t-323.5 -220l-28 71q46 20 104.5 54.5t93.5 66.5
q40 36 72.5 81t50.5 103h-56q-87 0 -130 33t-43 92q0 76 64 138.5t152 62.5q93 0 134.5 -50.5t41.5 -130.5z" />
    <glyph glyph-name="quoteleft" unicode="&#x2018;" horiz-adv-x="550" 
d="M673 1455q-46 -20 -104.5 -54.5t-93.5 -66.5q-40 -36 -72.5 -81t-50.5 -103h56q87 0 130 -33t43 -92q0 -76 -64 -138.5t-152 -62.5q-93 0 -134.5 50.5t-41.5 130.5q0 157 132.5 301t323.5 220z" />
    <glyph glyph-name="quoteright" unicode="&#x2019;" horiz-adv-x="550" 
d="M675 1349q0 -157 -132.5 -301t-323.5 -220l-28 71q46 20 104.5 54.5t93.5 66.5q40 36 72.5 81t50.5 103h-56q-87 0 -130 33t-43 92q0 76 64 138.5t152 62.5q93 0 134.5 -50.5t41.5 -130.5z" />
    <glyph glyph-name="divide" unicode="&#xf7;" horiz-adv-x="1440" 
d="M904 982q0 -69 -48 -117.5t-114 -48.5q-67 0 -115 48.5t-48 117.5t48 118t115 49q66 0 114 -49t48 -118zM1297 493h-1111v163h1111v-163zM904 166q0 -69 -48 -117.5t-114 -48.5q-67 0 -115 48.5t-48 117.5t48 118t115 49q66 0 114 -49t48 -118z" />
    <glyph glyph-name="lozenge" unicode="&#x25ca;" horiz-adv-x="1470" 
d="M1374 654l-617 -694l-617 694l617 695zM1157 654l-400 453l-400 -453l400 -452z" />
    <glyph glyph-name="ydieresis" unicode="&#xff;" horiz-adv-x="1371" 
d="M803 160h-7q-113 -103 -208 -143t-210 -40q-111 0 -172.5 62t-61.5 149q0 31 3.5 63t18.5 90l75 273q7 28 16.5 76.5t9.5 71.5q0 57 -22.5 78.5t-87.5 21.5q-32 0 -65.5 -10t-57.5 -19l22 90q81 33 155 56.5t140 23.5q119 0 183.5 -59.5t64.5 -147.5q0 -18 -4 -66
t-16 -89l-73 -260q-10 -35 -16 -75t-6 -58q0 -50 24.5 -76t77.5 -26q44 0 111.5 33.5t124.5 89.5l152 717l317 14l14 -16l-175 -813q-40 -182 -112 -300.5t-167 -188.5q-91 -67 -197 -96.5t-215 -29.5q-119 0 -197.5 17.5t-122.5 48.5q-40 28 -54.5 62.5t-14.5 67.5
q0 58 41 103t112 45q54 0 96.5 -29t74.5 -70q31 -39 55.5 -86.5t37.5 -77.5q18 3 44.5 12.5t44.5 21.5q26 17 46 34t46 52q50 67 89 166t66 237zM1196 1349q0 -67 -46.5 -116.5t-110.5 -49.5q-66 0 -112 50t-46 116q0 67 46 116.5t112 49.5q64 0 110.5 -49.5t46.5 -116.5z
M701 1349q0 -67 -47 -116.5t-111 -49.5q-65 0 -111 49t-46 117q0 67 45.5 116.5t111.5 49.5q64 0 111 -49.5t47 -116.5z" />
    <glyph glyph-name="Ydieresis" unicode="&#x178;" horiz-adv-x="1499" 
d="M1770 1419l-17 -73q-34 -4 -63 -12t-67 -28q-48 -24 -86.5 -57.5t-88.5 -87.5l-181.5 -201l-217.5 -254q-88 -102 -106 -143.5t-41 -144.5l-43 -186q-4 -17 -6.5 -32.5t-2.5 -22.5q0 -24 9.5 -42.5t35.5 -29.5q24 -10 70 -19.5t76 -12.5l-17 -73h-791l17 73q28 2 82 8
t77 14q38 15 59 43t29 64l59 255l11 49.5t5 37.5q0 21 -11 54l-29 84l-90.5 259t-85.5 227q-20 52 -46.5 87.5t-58.5 57.5q-24 15 -59.5 23t-66.5 10l17 73h793l-17 -73q-103 -3 -153.5 -16.5t-50.5 -41.5q0 -13 8.5 -51.5t36.5 -127.5q21 -68 59.5 -176.5l85.5 -238.5
l231.5 270.5t144.5 172.5q74 92 85 113.5t11 31.5q0 31 -47.5 45.5t-115.5 18.5l17 73h540zM1495 1702q0 -67 -46.5 -116.5t-110.5 -49.5q-66 0 -112 50t-46 116q0 67 46 116.5t112 49.5q64 0 110.5 -49.5t46.5 -116.5zM959 1702q0 -67 -47 -116.5t-111 -49.5q-65 0 -111 49
t-46 117q0 67 45.5 116.5t111.5 49.5q64 0 111 -49.5t47 -116.5z" />
    <glyph glyph-name="fraction" unicode="&#x2044;" horiz-adv-x="194" 
d="M750 1429l-1090 -1429h-156l1088 1429h158z" />
    <glyph glyph-name="fraction" unicode="&#x2215;" horiz-adv-x="194" 
d="M750 1429l-1090 -1429h-156l1088 1429h158z" />
    <glyph glyph-name="Euro" unicode="&#x20ac;" horiz-adv-x="1465" 
d="M1571 1419l-111 -518h-88q-20 227 -110.5 345.5t-248.5 118.5q-62 0 -141.5 -47t-141.5 -128q-40 -53 -76 -126t-62 -158h369l-71 -116h-331l-17.5 -78.5t-13.5 -75.5h269l-71 -116h-208v-11q0 -214 83 -313t234 -99q137 0 262 80t238 231l77 -52q-49 -76 -117 -149.5
t-155 -127.5q-91 -57 -187.5 -87t-231.5 -30q-271 0 -429.5 146.5t-164.5 411.5h-132l71 116h69q6 38 16 76.5t23 77.5h-117l71 116h93q40 88 88.5 158.5t104.5 125.5q125 124 283.5 195.5t318.5 71.5q116 0 225 -28t168 -65l75 55h87z" />
    <glyph glyph-name="guilsinglleft" unicode="&#x2039;" horiz-adv-x="811" 
d="M627 139l-61 -43l-209.5 169t-159.5 136q-22 21 -33.5 46t-11.5 54q0 62 26 105.5t85 83.5l206 131l285 174l41 -43l-381 -419z" />
    <glyph glyph-name="guilsinglright" unicode="&#x203a;" horiz-adv-x="811" 
d="M682 590q0 -58 -27.5 -105t-83.5 -84l-209.5 -133l-281.5 -172l-41 43l381 419l-213 394l61 43l209.5 -169t159.5 -136q22 -21 33.5 -46t11.5 -54z" />
    <glyph glyph-name="fi" unicode="&#xfb01;" horiz-adv-x="1437" 
d="M620 868l-86.5 -428.5t-87.5 -379.5q-25 -97 -82.5 -190.5t-135.5 -161.5q-82 -72 -177.5 -112t-196.5 -40q-91 0 -147.5 18t-88.5 46q-31 28 -42 62t-11 67q0 58 41.5 102.5t111.5 44.5q54 0 93.5 -28.5t67.5 -68.5q28 -39 49.5 -87l33.5 -75q42 46 78.5 138.5
t69.5 246.5l179 846h-194l24 103h192l10 34q30 130 95 230.5t179 181.5q72 54 176.5 92.5t244.5 38.5q109 0 174 -19t102 -46q39 -29 55 -66.5t16 -76.5q0 -74 -49 -121.5t-132 -47.5q-92 0 -145 66.5t-60 219.5q-43 -5 -85.5 -22t-89.5 -63q-43 -42 -80.5 -118.5
t-62.5 -192.5l-19 -90h431l255 29l11 -15l-143 -623q-7 -29 -16.5 -76.5t-9.5 -71.5q0 -58 26 -79t90 -21q30 0 68 10.5t55 18.5l-22 -90q-99 -39 -158 -59.5t-137 -20.5q-120 0 -186.5 58.5t-66.5 148.5q0 34 6 73.5t15 80.5l98 426l3 17.5t2 25.5q0 20 -8 38t-27 27h-306z
" />
    <glyph glyph-name="fl" unicode="&#xfb02;" horiz-adv-x="1475" 
d="M620 868l-86.5 -428.5t-87.5 -379.5q-25 -97 -82.5 -190.5t-135.5 -161.5q-82 -72 -177.5 -112t-196.5 -40q-91 0 -147.5 18t-88.5 46q-31 28 -42 62t-11 67q0 58 41.5 102.5t111.5 44.5q54 0 93.5 -28.5t67.5 -68.5q28 -39 49.5 -87l33.5 -75q42 46 78.5 138.5
t69.5 246.5l179 846h-194l24 103h192l8 33q28 119 92 225t181 188q72 52 181 91.5t250 39.5q98 0 182 -16t122 -27l157 43l11 -16l-269 -1170q-7 -29 -16.5 -77t-9.5 -71q0 -58 29 -79t96 -21q25 0 68 10.5t61 18.5l-22 -90q-99 -39 -162 -59.5t-143 -20.5
q-120 0 -188.5 58.5t-68.5 148.5q0 37 6.5 77t14.5 77l214 929q4 17 5.5 38t1.5 29q0 60 -37 93.5t-76 33.5q-52 0 -95 -14.5t-97 -65.5q-46 -44 -85 -122.5t-65 -198.5l-18 -85h253l-24 -103h-248z" />
    <glyph glyph-name="daggerdbl" unicode="&#x2021;" horiz-adv-x="987" 
d="M880.5 513.5q-34.5 -24.5 -79.5 -24.5q-23 0 -98 23t-155 33q-12 -102 -10 -178t-4 -103q-10 -41 -34.5 -65.5t-68.5 -24.5q-37 0 -60.5 17.5t-23.5 46.5q0 23 8 42t25 56l43.5 94t46.5 115q-86 -9 -172.5 -32.5t-108.5 -23.5q-33 0 -52.5 19.5t-19.5 51.5q0 51 34 77
t79 26q24 0 100.5 -22t154.5 -30q6 47 3.5 92t3.5 92l8 39q14 48 37.5 94t37.5 90q-86 -9 -170 -30.5t-109 -21.5q-33 0 -53 21.5t-20 51.5q0 52 34.5 76.5t79.5 24.5q20 0 96.5 -23t156.5 -33q11 102 10 178.5t4 102.5q8 38 35.5 64t67.5 26q37 0 60.5 -17.5t23.5 -46.5
q0 -18 -7 -39t-26 -59t-43.5 -92.5t-46.5 -116.5q108 13 180.5 34.5t100.5 21.5q33 0 52.5 -19.5t19.5 -51.5q0 -51 -34 -77t-79 -26q-27 0 -90.5 19.5t-164.5 32.5q-7 -48 -4.5 -92t-4.5 -92l-8 -39q-15 -47 -36.5 -94t-36.5 -90q106 13 179.5 32.5t99.5 19.5
q33 0 53 -21.5t20 -51.5q0 -52 -34.5 -76.5z" />
    <glyph glyph-name="periodcentered" unicode="&#x2219;" horiz-adv-x="692" 
d="M564 546q0 -79 -58.5 -137t-138.5 -58q-81 0 -139.5 57.5t-58.5 137.5t58.5 138.5t139.5 58.5q80 0 138.5 -59t58.5 -138z" />
    <glyph glyph-name="quotesinglbase" unicode="&#x201a;" horiz-adv-x="550" 
d="M392 145q0 -157 -132.5 -301t-323.5 -220l-28 71q46 20 104.5 54.5t93.5 66.5q40 36 72.5 81t50.5 103h-56q-87 0 -130 33t-43 92q0 76 64 138.5t152 62.5q93 0 134.5 -50.5t41.5 -130.5z" />
    <glyph glyph-name="quotedblbase" unicode="&#x201e;" horiz-adv-x="1063" 
d="M392 145q0 -157 -132.5 -301t-323.5 -220l-28 71q46 20 104.5 54.5t93.5 66.5q40 36 72.5 81t50.5 103h-56q-87 0 -130 33t-43 92q0 76 64 138.5t152 62.5q93 0 134.5 -50.5t41.5 -130.5zM885 145q0 -157 -132.5 -301t-323.5 -220l-28 71q46 20 104.5 54.5t93.5 66.5
q40 36 72.5 81t50.5 103h-56q-87 0 -130 33t-43 92q0 76 64 138.5t152 62.5q93 0 134.5 -50.5t41.5 -130.5z" />
    <glyph glyph-name="perthousand" unicode="&#x2030;" horiz-adv-x="2697" 
d="M985 1145q0 -180 -134 -306.5t-324 -126.5q-149 0 -244 87t-95 228q0 182 135.5 307.5t322.5 125.5q150 0 244.5 -87t94.5 -228zM730 1219q0 82 -22 126t-75 44q-84 0 -137 -127.5t-53 -314.5q0 -78 23 -121t76 -43q81 0 134.5 124.5t53.5 311.5zM1692 398
q0 -180 -134 -306.5t-324 -126.5q-149 0 -244 87t-95 228q0 182 135.5 307.5t322.5 125.5q150 0 244.5 -87t94.5 -228zM1437 472q0 82 -22 126t-75 44q-84 0 -137 -127.5t-53 -314.5q0 -78 23 -121t76 -43q81 0 134.5 124.5t53.5 311.5zM1745 1428l-1453 -1428h-155
l1450 1428h158zM2592 398q0 -180 -134 -306.5t-324 -126.5q-149 0 -244 87t-95 228q0 182 135.5 307.5t322.5 125.5q150 0 244.5 -87t94.5 -228zM2337 472q0 82 -22 126t-75 44q-84 0 -137 -127.5t-53 -314.5q0 -78 23 -121t76 -43q81 0 134.5 124.5t53.5 311.5z" />
    <glyph glyph-name="Acircumflex" unicode="&#xc2;" horiz-adv-x="1553" 
d="M892 571l-87 517l-324 -517h411zM732 0l17 73q103 8 160.5 25.5t57.5 38.5q0 18 -2 31t-5 30l-50 279h-489l-60.5 -97.5l-61.5 -103.5q-38 -68 -44.5 -93t-6.5 -32q0 -30 47 -49.5t144 -28.5l-17 -73h-596l17 73q29 2 73 10t74 24q42 22 79 57t69 85l373 576.5l394 613.5
h198l127.5 -741t88.5 -490q5 -30 19.5 -54.5t46.5 -46.5q24 -16 58.5 -24t64.5 -10l-17 -73h-759zM1352 1513l-34 -29l-311 203l-384 -203l-32 29l196 198t96 96q28 31 60.5 46t88.5 15q55 0 79.5 -14t44.5 -43l65 -98z" />
    <glyph glyph-name="Ecircumflex" unicode="&#xca;" horiz-adv-x="1477" 
d="M1520 1419l-83 -362h-76q-14 95 -67.5 174.5t-112.5 92.5q-28 7 -81 8.5t-88 1.5h-196l-128 -555h136q75 0 117.5 16.5t79.5 46.5q28 23 65.5 82.5t53.5 101.5h76l-137 -592h-76v37q0 45 -9.5 92.5t-22.5 66.5q-26 38 -69 50.5t-98 12.5h-136l-91 -395q-7 -30 -13 -65
t-6 -50q0 -64 42 -80.5t155 -16.5q144 0 210 12.5t99 38.5q60 50 144 153t114 152h73l-129 -442h-1321l17 73q25 1 74.5 6.5t73.5 13.5q39 13 59.5 40t28.5 62l229 992q5 21 7 35t2 21q0 42 -42.5 65.5t-138.5 37.5l17 73h1248zM1309 1513l-34 -29l-311 203l-384 -203
l-32 29l196 198t96 96q28 31 60.5 46t88.5 15q55 0 79.5 -14t44.5 -43l65 -98z" />
    <glyph glyph-name="Aacute" unicode="&#xc1;" horiz-adv-x="1553" 
d="M892 571l-87 517l-324 -517h411zM732 0l17 73q103 8 160.5 25.5t57.5 38.5q0 18 -2 31t-5 30l-50 279h-489l-60.5 -97.5l-61.5 -103.5q-38 -68 -44.5 -93t-6.5 -32q0 -30 47 -49.5t144 -28.5l-17 -73h-596l17 73q29 2 73 10t74 24q42 22 79 57t69 85l373 576.5l394 613.5
h198l127.5 -741t88.5 -490q5 -30 19.5 -54.5t46.5 -46.5q24 -16 58.5 -24t64.5 -10l-17 -73h-759zM1341 1768q0 -42 -26 -69t-75 -47q-56 -23 -168 -64t-260 -103l-33 41l157.5 151t111.5 115q37 41 72.5 58.5t74.5 17.5q65 0 105.5 -27.5t40.5 -72.5z" />
    <glyph glyph-name="Edieresis" unicode="&#xcb;" horiz-adv-x="1477" 
d="M1520 1419l-83 -362h-76q-14 95 -67.5 174.5t-112.5 92.5q-28 7 -81 8.5t-88 1.5h-196l-128 -555h136q75 0 117.5 16.5t79.5 46.5q28 23 65.5 82.5t53.5 101.5h76l-137 -592h-76v37q0 45 -9.5 92.5t-22.5 66.5q-26 38 -69 50.5t-98 12.5h-136l-91 -395q-7 -30 -13 -65
t-6 -50q0 -64 42 -80.5t155 -16.5q144 0 210 12.5t99 38.5q60 50 144 153t114 152h73l-129 -442h-1321l17 73q25 1 74.5 6.5t73.5 13.5q39 13 59.5 40t28.5 62l229 992q5 21 7 35t2 21q0 42 -42.5 65.5t-138.5 37.5l17 73h1248zM1350 1702q0 -67 -46.5 -116.5t-110.5 -49.5
q-66 0 -112 50t-46 116q0 67 46 116.5t112 49.5q64 0 110.5 -49.5t46.5 -116.5zM814 1702q0 -67 -47 -116.5t-111 -49.5q-65 0 -111 49t-46 117q0 67 45.5 116.5t111.5 49.5q64 0 111 -49.5t47 -116.5z" />
    <glyph glyph-name="Egrave" unicode="&#xc8;" horiz-adv-x="1477" 
d="M1520 1419l-83 -362h-76q-14 95 -67.5 174.5t-112.5 92.5q-28 7 -81 8.5t-88 1.5h-196l-128 -555h136q75 0 117.5 16.5t79.5 46.5q28 23 65.5 82.5t53.5 101.5h76l-137 -592h-76v37q0 45 -9.5 92.5t-22.5 66.5q-26 38 -69 50.5t-98 12.5h-136l-91 -395q-7 -30 -13 -65
t-6 -50q0 -64 42 -80.5t155 -16.5q144 0 210 12.5t99 38.5q60 50 144 153t114 152h73l-129 -442h-1321l17 73q25 1 74.5 6.5t73.5 13.5q39 13 59.5 40t28.5 62l229 992q5 21 7 35t2 21q0 42 -42.5 65.5t-138.5 37.5l17 73h1248zM1096 1526l-39 -41q-148 67 -248 107t-145 60
q-42 19 -67.5 42t-25.5 56q0 52 39.5 85t110.5 33q40 0 71.5 -18t65.5 -58l103.5 -118z" />
    <glyph glyph-name="Iacute" unicode="&#xcd;" horiz-adv-x="913" 
d="M-61 0l17 73q29 1 79 6.5t77 14.5q39 13 59.5 39.5t28.5 61.5l229 992q5 21 7 35t2 21q0 42 -46.5 65.5t-142.5 37.5l17 73h787l-17 -73q-32 -2 -82 -9.5t-75 -15.5q-41 -13 -60.5 -40.5t-27.5 -61.5l-229 -993q-4 -17 -6.5 -32t-2.5 -23q0 -50 46.5 -69.5t143.5 -28.5
l-17 -73h-787zM1011 1768q0 -42 -26 -69t-75 -47q-56 -23 -168 -64t-260 -103l-33 41l157.5 151t111.5 115q37 41 72.5 58.5t74.5 17.5q65 0 105.5 -27.5t40.5 -72.5z" />
    <glyph glyph-name="Icircumflex" unicode="&#xce;" horiz-adv-x="913" 
d="M-61 0l17 73q29 1 79 6.5t77 14.5q39 13 59.5 39.5t28.5 61.5l229 992q5 21 7 35t2 21q0 42 -46.5 65.5t-142.5 37.5l17 73h787l-17 -73q-32 -2 -82 -9.5t-75 -15.5q-41 -13 -60.5 -40.5t-27.5 -61.5l-229 -993q-4 -17 -6.5 -32t-2.5 -23q0 -50 46.5 -69.5t143.5 -28.5
l-17 -73h-787zM1032 1513l-34 -29l-311 203l-384 -203l-32 29l196 198t96 96q28 31 60.5 46t88.5 15q55 0 79.5 -14t44.5 -43l65 -98z" />
    <glyph glyph-name="Idieresis" unicode="&#xcf;" horiz-adv-x="923" 
d="M-61 0l17 73q29 1 79 6.5t77 14.5q39 13 59.5 39.5t28.5 61.5l229 992q5 21 7 35t2 21q0 42 -46.5 65.5t-142.5 37.5l17 73h787l-17 -73q-32 -2 -82 -9.5t-75 -15.5q-41 -13 -60.5 -40.5t-27.5 -61.5l-229 -993q-4 -17 -6.5 -32t-2.5 -23q0 -50 46.5 -69.5t143.5 -28.5
l-17 -73h-787zM1100 1700q0 -67 -46.5 -116.5t-110.5 -49.5q-66 0 -112 50t-46 116q0 67 46 116.5t112 49.5q64 0 110.5 -49.5t46.5 -116.5zM605 1700q0 -67 -47 -116.5t-111 -49.5q-65 0 -111 49t-46 117q0 67 45.5 116.5t111.5 49.5q64 0 111 -49.5t47 -116.5z" />
    <glyph glyph-name="Igrave" unicode="&#xcc;" horiz-adv-x="913" 
d="M-61 0l17 73q29 1 79 6.5t77 14.5q39 13 59.5 39.5t28.5 61.5l229 992q5 21 7 35t2 21q0 42 -46.5 65.5t-142.5 37.5l17 73h787l-17 -73q-32 -2 -82 -9.5t-75 -15.5q-41 -13 -60.5 -40.5t-27.5 -61.5l-229 -993q-4 -17 -6.5 -32t-2.5 -23q0 -50 46.5 -69.5t143.5 -28.5
l-17 -73h-787zM920 1526l-39 -41q-148 67 -248 107t-145 60q-42 19 -67.5 42t-25.5 56q0 52 39.5 85t110.5 33q40 0 71.5 -18t65.5 -58l103.5 -118z" />
    <glyph glyph-name="Oacute" unicode="&#xd3;" horiz-adv-x="1679" 
d="M1661 875q0 -180 -67.5 -347.5t-189.5 -291.5q-125 -127 -294 -201t-383 -74q-280 0 -460 161.5t-180 422.5q0 190 73 357.5t202 292.5q126 123 295.5 193t357.5 70q282 0 464 -158t182 -425zM1138 351q68 138 101 300.5t33 320.5q0 183 -70 288t-209 105
q-122 0 -218.5 -82t-162.5 -213t-101 -296t-35 -328q0 -177 70 -284.5t210 -107.5q121 0 219.5 84t162.5 213zM1301 1768q0 -42 -26 -69t-75 -47q-56 -23 -168 -64t-260 -103l-33 41l157.5 151t111.5 115q37 41 72.5 58.5t74.5 17.5q65 0 105.5 -27.5t40.5 -72.5z" />
    <glyph glyph-name="Ocircumflex" unicode="&#xd4;" horiz-adv-x="1679" 
d="M1661 875q0 -180 -67.5 -347.5t-189.5 -291.5q-125 -127 -294 -201t-383 -74q-280 0 -460 161.5t-180 422.5q0 190 73 357.5t202 292.5q126 123 295.5 193t357.5 70q282 0 464 -158t182 -425zM1138 351q68 138 101 300.5t33 320.5q0 183 -70 288t-209 105
q-122 0 -218.5 -82t-162.5 -213t-101 -296t-35 -328q0 -177 70 -284.5t210 -107.5q121 0 219.5 84t162.5 213zM1378 1513l-34 -29l-311 203l-384 -203l-32 29l196 198t96 96q28 31 60.5 46t88.5 15q55 0 79.5 -14t44.5 -43l65 -98z" />
    <glyph glyph-name="Ograve" unicode="&#xd2;" horiz-adv-x="1679" 
d="M1661 875q0 -180 -67.5 -347.5t-189.5 -291.5q-125 -127 -294 -201t-383 -74q-280 0 -460 161.5t-180 422.5q0 190 73 357.5t202 292.5q126 123 295.5 193t357.5 70q282 0 464 -158t182 -425zM1138 351q68 138 101 300.5t33 320.5q0 183 -70 288t-209 105
q-122 0 -218.5 -82t-162.5 -213t-101 -296t-35 -328q0 -177 70 -284.5t210 -107.5q121 0 219.5 84t162.5 213zM1276 1526l-39 -41q-148 67 -248 107t-145 60q-42 19 -67.5 42t-25.5 56q0 52 39.5 85t110.5 33q40 0 71.5 -18t65.5 -58l103.5 -118z" />
    <glyph glyph-name="Uacute" unicode="&#xda;" horiz-adv-x="1707" 
d="M755 -39q-260 0 -398.5 100.5t-138.5 283.5q0 32 4 64.5t12 70.5l164 709q5 21 7 33t2 21q0 42 -40 65t-139 38l17 73h760l-17 -73q-33 -2 -72 -8.5t-66 -14.5q-41 -12 -60 -39.5t-27 -62.5l-162 -699q-10 -42 -16 -91t-6 -82q0 -129 74 -190.5t216 -61.5
q172 0 297.5 114.5t168.5 303.5l112 486q14 62 20.5 106t6.5 74q0 38 -8.5 63t-24.5 40q-25 23 -82.5 40.5t-83.5 21.5l17 73h615l-17 -73q-30 -3 -86.5 -13.5t-100.5 -36.5q-44 -25 -74.5 -91.5t-60.5 -193.5l-123 -533q-58 -248 -243.5 -382.5t-446.5 -134.5zM1411 1768
q0 -42 -26 -69t-75 -47q-56 -23 -168 -64t-260 -103l-33 41l157.5 151t111.5 115q37 41 72.5 58.5t74.5 17.5q65 0 105.5 -27.5t40.5 -72.5z" />
    <glyph glyph-name="Ucircumflex" unicode="&#xdb;" horiz-adv-x="1707" 
d="M755 -39q-260 0 -398.5 100.5t-138.5 283.5q0 32 4 64.5t12 70.5l164 709q5 21 7 33t2 21q0 42 -40 65t-139 38l17 73h760l-17 -73q-33 -2 -72 -8.5t-66 -14.5q-41 -12 -60 -39.5t-27 -62.5l-162 -699q-10 -42 -16 -91t-6 -82q0 -129 74 -190.5t216 -61.5
q172 0 297.5 114.5t168.5 303.5l112 486q14 62 20.5 106t6.5 74q0 38 -8.5 63t-24.5 40q-25 23 -82.5 40.5t-83.5 21.5l17 73h615l-17 -73q-30 -3 -86.5 -13.5t-100.5 -36.5q-44 -25 -74.5 -91.5t-60.5 -193.5l-123 -533q-58 -248 -243.5 -382.5t-446.5 -134.5zM1502 1513
l-34 -29l-311 203l-384 -203l-32 29l196 198t96 96q28 31 60.5 46t88.5 15q55 0 79.5 -14t44.5 -43l65 -98z" />
    <glyph glyph-name="Ugrave" unicode="&#xd9;" horiz-adv-x="1707" 
d="M755 -39q-260 0 -398.5 100.5t-138.5 283.5q0 32 4 64.5t12 70.5l164 709q5 21 7 33t2 21q0 42 -40 65t-139 38l17 73h760l-17 -73q-33 -2 -72 -8.5t-66 -14.5q-41 -12 -60 -39.5t-27 -62.5l-162 -699q-10 -42 -16 -91t-6 -82q0 -129 74 -190.5t216 -61.5
q172 0 297.5 114.5t168.5 303.5l112 486q14 62 20.5 106t6.5 74q0 38 -8.5 63t-24.5 40q-25 23 -82.5 40.5t-83.5 21.5l17 73h615l-17 -73q-30 -3 -86.5 -13.5t-100.5 -36.5q-44 -25 -74.5 -91.5t-60.5 -193.5l-123 -533q-58 -248 -243.5 -382.5t-446.5 -134.5zM1310 1526
l-39 -41q-148 67 -248 107t-145 60q-42 19 -67.5 42t-25.5 56q0 52 39.5 85t110.5 33q40 0 71.5 -18t65.5 -58l103.5 -118z" />
    <glyph glyph-name="dotlessi" unicode="&#x131;" horiz-adv-x="749" 
d="M713 143l-22 -90q-99 -39 -158 -59.5t-137 -20.5q-120 0 -186.5 58.5t-66.5 148.5q0 35 5 71.5t16 82.5l82 292q11 42 18.5 79.5t7.5 68.5q0 56 -23 78t-88 22q-32 0 -65.5 -10t-57.5 -19l22 90q81 33 155 56.5t140 23.5q119 0 183.5 -57.5t64.5 -149.5q0 -19 -4.5 -67
t-16.5 -88l-82 -291q-10 -35 -18 -80t-8 -68q0 -58 26 -79t90 -21q30 0 68 10.5t55 18.5z" />
    <glyph glyph-name="circumflex" unicode="&#x2c6;" 
d="M996 1132l-54 -29l-278 254l-358 -254l-51 29l172 220.5t116 134.5q28 31 60.5 46t88.5 15q58 0 81.5 -14.5t42.5 -42.5q39 -58 82 -149z" />
    <glyph glyph-name="tilde" unicode="&#x2dc;" 
d="M1113 1484q-19 -43 -53 -96t-79 -98q-48 -48 -98 -77.5t-111 -29.5q-64 0 -114 19.5t-84 38.5q-36 19 -76.5 36t-79.5 17q-52 0 -84 -45.5l-73 -102.5l-71 30q18 37 54 91.5t76 97.5q41 45 94 77t108 32q51 0 98 -16.5t91 -37.5l80 -39t76 -16q41 0 65.5 8.5t39.5 26.5
q17 21 31 47.5l33 60.5z" />
    <glyph glyph-name="macron" unicode="&#x2c9;" 
d="M1029 1247h-748l34 171h748z" />
    <glyph glyph-name="breve" unicode="&#x2d8;" 
d="M1019 1532q-59 -194 -155.5 -295.5t-244.5 -101.5q-133 0 -197.5 88.5t-64.5 252.5q0 16 1 30.5t1 25.5l74 16q6 -47 16.5 -91.5t32.5 -76.5q24 -34 61 -53t107 -19q66 0 112 18.5t79 50.5q34 32 61 78t49 93z" />
    <glyph glyph-name="dotaccent" unicode="&#x2d9;" 
d="M841 1349q0 -70 -49 -119t-119 -49t-119 49t-49 119t49 119t119 49t119 -49t49 -119z" />
    <glyph glyph-name="ring" unicode="&#x2da;" 
d="M582 1104q-114 0 -181 52t-67 140q0 120 97 195.5t231 75.5q108 0 178 -51.5t70 -139.5q0 -120 -95.5 -196t-232.5 -76zM758 1379q0 53 -27.5 85.5t-82.5 32.5q-73 0 -117.5 -57.5t-44.5 -143.5q0 -56 27.5 -89t83.5 -33q75 0 118 58.5t43 146.5z" />
    <glyph glyph-name="cedilla" unicode="&#xb8;" 
d="M593 -400q-63 -24 -150.5 -34t-214.5 -10l18 78q48 0 102 1t87 9q39 8 59.5 27t20.5 53q0 32 -35.5 43t-89.5 11l53 239h86l-24 -113q98 0 157 -32.5t59 -96.5q0 -65 -33 -108t-95 -67z" />
    <glyph glyph-name="hungarumlaut" unicode="&#x2dd;" 
d="M998 1338q-57 -38 -141 -89.5t-232 -154.5l-30 35q96 111 156.5 193.5t96.5 127.5q61 75 103 86.5t82 11.5q34 0 60 -21t26 -50q0 -41 -38.5 -76t-82.5 -63zM594 1338q-57 -38 -141 -89.5t-232 -154.5l-30 35q96 111 156.5 193.5t96.5 127.5q61 75 103 86.5t82 11.5
q34 0 60 -21.5t26 -50.5q0 -41 -38.5 -75.5t-82.5 -62.5z" />
    <glyph glyph-name="ogonek" unicode="&#x2db;" 
d="M661 -444q-170 0 -276 36t-106 125q0 94 81.5 170.5t234.5 151.5h86q-94 -88 -138.5 -161.5t-44.5 -131.5q0 -50 44 -76.5t133 -36.5z" />
    <glyph glyph-name="caron" unicode="&#x2c7;" 
d="M994 1521l-166 -212t-122 -143q-36 -38 -67 -49.5t-82 -11.5q-57 0 -81.5 14.5t-42.5 42.5q-35 55 -82.5 154l-97.5 205l54 29l276 -254l360 254z" />
    <glyph glyph-name="Lslash" unicode="&#x141;" horiz-adv-x="1404" 
d="M1385 455l-133 -455h-1307l17 73q25 1 74.5 7.5t73.5 14.5q40 13 60 39t28 61l96 416l-184 -69l-33 88l242 90l108 467q5 21 7 35t2 21q0 42 -42.5 65.5t-138.5 37.5l17 73h780l-17 -73q-32 -2 -82 -9.5t-76 -15.5q-42 -13 -61 -41.5t-27 -60.5l-83 -360l281 106l33 -88
l-339 -127l-109 -474q-7 -29 -11 -56.5t-4 -42.5q0 -58 42.5 -74.5t173.5 -16.5q80 0 159 12t118 44q62 50 138 143.5t124 169.5h73z" />
    <glyph glyph-name="lslash" unicode="&#x142;" horiz-adv-x="726" 
d="M477 362q-7 -29 -16.5 -77t-9.5 -71q0 -58 29 -79t96 -21q25 0 68 10.5t61 18.5l-22 -90q-99 -39 -162 -59.5t-143 -20.5q-120 0 -189 58.5t-69 148.5q0 37 6.5 77t14.5 77l65 279l-142 -52l-21 99l189 66l125 547q4 17 6 32t2 25q0 36 -12 57t-36 34t-55 18t-72 9l18 74
l527 26l11 -16l-158 -686l150 55l21 -99l-197 -71z" />
    <glyph glyph-name="Scaron" unicode="&#x160;" horiz-adv-x="1329" 
d="M575 -38q-118 0 -237.5 29t-209.5 79l-86 -70h-85l106 513h86q12 -75 44 -155.5t83 -143.5q50 -65 127 -108t176 -43q145 0 232 70.5t87 185.5q0 74 -49.5 130t-159.5 96l-135.5 48.5t-124.5 48.5q-117 49 -176 139.5t-59 192.5q0 94 43 180.5t124 154.5
q79 67 195.5 107.5t255.5 40.5q116 0 230 -33.5t168 -64.5l75 60h87l-104 -484h-86q-13 85 -37.5 160t-67.5 135q-42 58 -104.5 92.5t-150.5 34.5q-122 0 -203.5 -68t-81.5 -171q0 -72 49 -126t155 -94l130 -47.5t130 -50.5q116 -48 183 -130.5t67 -195.5q0 -107 -49 -201
t-137 -162q-93 -72 -217 -110.5t-273 -38.5zM1263 1839l-182.5 -181.5l-110.5 -107.5q-32 -32 -60.5 -46.5t-88.5 -14.5q-57 0 -80.5 14.5t-43.5 42.5l-64.5 95.5l-130.5 197.5l34 29l310 -198l385 198z" />
    <glyph glyph-name="scaron" unicode="&#x161;" horiz-adv-x="1059" 
d="M435 -33q-126 0 -208.5 20.5t-130.5 52.5q-49 32 -67 68.5t-18 68.5q0 58 43.5 101.5t115.5 43.5q60 0 100.5 -31t67.5 -78q25 -43 42 -95t24 -77q113 0 171 48.5t58 132.5q0 37 -17.5 62t-46.5 44q-29 18 -74 35t-89 32q-121 41 -191.5 113.5t-70.5 180.5
q0 64 29.5 120.5t92.5 104.5q62 46 157 73.5t222 27.5q76 0 141 -9t121 -33q53 -24 82.5 -62.5t29.5 -93.5t-41.5 -94.5t-108.5 -39.5q-58 0 -96.5 30t-62.5 71q-24 42 -38 86.5l-23 74.5q-70 -4 -127.5 -50.5t-57.5 -115.5q0 -42 13.5 -66t36.5 -40q26 -18 65.5 -33.5
t98.5 -35.5q136 -48 205 -115t69 -177q0 -72 -33.5 -138t-95.5 -110q-69 -48 -159 -72.5t-229 -24.5zM1052 1521l-166 -212t-122 -143q-36 -38 -67 -49.5t-82 -11.5q-57 0 -81.5 14.5t-42.5 42.5q-35 55 -82.5 154l-97.5 205l54 29l276 -254l360 254z" />
    <glyph glyph-name="Zcaron" unicode="&#x17d;" horiz-adv-x="1412" 
d="M1563 1419l-14 -61l-1186 -1271h339q168 0 232.5 16.5t100.5 50.5q66 62 141.5 153.5t131.5 171.5h75l-159 -479h-1322l15 61l1186 1271h-291q-95 0 -138 -5.5t-85 -22.5q-46 -16 -120 -91t-193 -227h-81l144 433h1224zM1332 1839l-182.5 -181.5l-110.5 -107.5
q-32 -32 -60.5 -46.5t-88.5 -14.5q-57 0 -80.5 14.5t-43.5 42.5l-64.5 95.5l-130.5 197.5l34 29l310 -198l385 198z" />
    <glyph glyph-name="zcaron" unicode="&#x17e;" horiz-adv-x="1059" 
d="M1084 986l-15 -72l-708 -830q36 -1 72.5 -1.5t84.5 -0.5q36 0 72.5 1t96.5 6q39 4 68 28t47 57q14 25 49.5 83.5t56.5 105.5h70l-71 -363h-934l18 83l697 819h-118q-87 0 -124.5 -3t-86.5 -21q-34 -13 -79 -74t-77 -136h-71l62 318h890zM1050 1521l-166 -212t-122 -143
q-36 -38 -67 -49.5t-82 -11.5q-57 0 -81.5 14.5t-42.5 42.5q-35 55 -82.5 154l-97.5 205l54 29l276 -254l360 254z" />
    <glyph glyph-name="brokenbar" unicode="&#xa6;" horiz-adv-x="794" 
d="M505 723h-171v800h171v-800zM505 -424h-171v810h171v-810z" />
    <glyph glyph-name="Eth" unicode="&#xd0;" horiz-adv-x="1708" 
d="M1448 1304q111 -69 174 -180.5t63 -263.5q0 -190 -75 -351t-212 -274q-136 -114 -316 -174.5t-397 -60.5h-740l17 73q25 1 74.5 6.5t73.5 13.5q39 13 59.5 40t28.5 62l114 494h-195l23 100h195l92 398q5 21 7 35t2 21q0 42 -42.5 65.5t-138.5 37.5l17 73h727
q112 0 230.5 -26.5t218.5 -88.5zM1291 910q0 194 -88 308.5t-265 114.5q-35 0 -69.5 -1.5t-54.5 -2.5l-124 -540h304l-23 -100h-304l-98 -425q-3 -15 -6.5 -36.5t-3.5 -30.5q0 -63 46.5 -87t130.5 -24q136 0 241.5 72t174.5 191q71 121 105 263.5t34 297.5z" />
    <glyph glyph-name="eth" unicode="&#xf0;" horiz-adv-x="1305" 
d="M1271 826q0 -177 -48.5 -336.5t-138.5 -272.5q-93 -118 -223 -183.5t-302 -65.5q-225 0 -358.5 116t-133.5 313q0 124 46 238t128 200q81 85 194.5 134.5t244.5 49.5q95 0 160 -32t100 -93l9 2q1 22 3 53t2 56q0 65 -16 134.5t-47 126.5l-244 -135l-44 82l238 131
q-31 40 -65.5 72t-69.5 58l65 74q33 -15 91.5 -48.5t118.5 -76.5l226 125l44 -82l-198 -107q110 -110 164 -244t54 -289zM891 686q0 113 -36.5 176.5t-123.5 63.5q-83 0 -144.5 -61.5t-100.5 -165.5q-35 -91 -51 -201.5t-16 -188.5q0 -134 41.5 -198.5t121.5 -64.5
q71 0 130.5 59t99.5 157q41 101 60 206.5t19 217.5z" />
    <glyph glyph-name="Yacute" unicode="&#xdd;" horiz-adv-x="1499" 
d="M1770 1419l-17 -73q-34 -4 -63 -12t-67 -28q-48 -24 -86.5 -57.5t-88.5 -87.5l-181.5 -201l-217.5 -254q-88 -102 -106 -143.5t-41 -144.5l-43 -186q-4 -17 -6.5 -32.5t-2.5 -22.5q0 -24 9.5 -42.5t35.5 -29.5q24 -10 70 -19.5t76 -12.5l-17 -73h-791l17 73q28 2 82 8
t77 14q38 15 59 43t29 64l59 255l11 49.5t5 37.5q0 21 -11 54l-29 84l-90.5 259t-85.5 227q-20 52 -46.5 87.5t-58.5 57.5q-24 15 -59.5 23t-66.5 10l17 73h793l-17 -73q-103 -3 -153.5 -16.5t-50.5 -41.5q0 -13 8.5 -51.5t36.5 -127.5q21 -68 59.5 -176.5l85.5 -238.5
l231.5 270.5t144.5 172.5q74 92 85 113.5t11 31.5q0 31 -47.5 45.5t-115.5 18.5l17 73h540zM1341 1768q0 -42 -26 -69t-75 -47q-56 -23 -168 -64t-260 -103l-33 41l157.5 151t111.5 115q37 41 72.5 58.5t74.5 17.5q65 0 105.5 -27.5t40.5 -72.5z" />
    <glyph glyph-name="yacute" unicode="&#xfd;" horiz-adv-x="1371" 
d="M803 160h-7q-113 -103 -208 -143t-210 -40q-111 0 -172.5 62t-61.5 149q0 31 3.5 63t18.5 90l75 273q7 28 16.5 76.5t9.5 71.5q0 57 -22.5 78.5t-87.5 21.5q-32 0 -65.5 -10t-57.5 -19l22 90q81 33 155 56.5t140 23.5q119 0 183.5 -59.5t64.5 -147.5q0 -18 -4 -66
t-16 -89l-73 -260q-10 -35 -16 -75t-6 -58q0 -50 24.5 -76t77.5 -26q44 0 111.5 33.5t124.5 89.5l152 717l317 14l14 -16l-175 -813q-40 -182 -112 -300.5t-167 -188.5q-91 -67 -197 -96.5t-215 -29.5q-119 0 -197.5 17.5t-122.5 48.5q-40 28 -54.5 62.5t-14.5 67.5
q0 58 41 103t112 45q54 0 96.5 -29t74.5 -70q31 -39 55.5 -86.5t37.5 -77.5q18 3 44.5 12.5t44.5 21.5q26 17 46 34t46 52q50 67 89 166t66 237zM1093 1460q0 -45 -20.5 -72.5t-65.5 -56.5q-49 -32 -155 -90.5t-240 -139.5l-42 38q88 117 136 186.5l83 118.5q43 61 82 82.5
t97 21.5q48 0 86.5 -26t38.5 -62z" />
    <glyph glyph-name="Thorn" unicode="&#xde;" horiz-adv-x="1450" 
d="M1464 830q0 -124 -60 -221t-153 -158q-95 -62 -210 -93.5t-236 -31.5h-221l-24 -100q-4 -17 -6.5 -32t-2.5 -23q0 -45 37 -66t141 -32l-17 -73h-767l17 73q25 1 74.5 7.5t73.5 14.5q39 13 59.5 39t28.5 61l229 992q5 21 7 35t2 21q0 42 -42.5 65.5t-138.5 37.5l17 73h767
l-17 -73q-31 -2 -75.5 -10t-69.5 -15q-42 -13 -61 -41t-27 -61l-17 -75h205q244 0 365.5 -75.5t121.5 -238.5zM1068 836q0 108 -56.5 161.5t-191.5 53.5h-69l-146 -632h75q106 0 182 34t120 91q45 57 65.5 131t20.5 161z" />
    <glyph glyph-name="thorn" unicode="&#xfe;" horiz-adv-x="1326" 
d="M1261 632q0 -134 -47.5 -255.5t-129.5 -210.5q-85 -92 -191 -142t-234 -50q-96 0 -154.5 18.5t-101.5 52.5l-61 -266q-3 -12 -6 -28.5t-3 -23.5q0 -23 10.5 -42t29.5 -28q22 -10 71 -19.5t81 -11.5l-16 -70h-721l16 70q26 2 66.5 7.5t57.5 11.5q34 11 51.5 35t26.5 63
l352 1530q4 17 6 32t2 25q0 36 -12 57t-36 34t-55 18t-72 9l18 74l526 26l11 -16l-152 -648h8q63 58 144 94.5t166 36.5q174 0 261.5 -102.5t87.5 -280.5zM903 636q0 49 -7 90.5t-25 71.5t-48.5 47.5t-76.5 17.5q-53 0 -104 -33t-75 -62l-124 -549q0 -69 40 -114.5
t115 -45.5q62 0 119.5 48t98.5 131q43 87 65 183t22 215z" />
    <glyph glyph-name="minus" unicode="&#x2212;" horiz-adv-x="1440" 
d="M1297 493h-1111v163h1111v-163z" />
    <glyph glyph-name="multiply" unicode="&#xd7;" horiz-adv-x="1440" 
d="M1239 192l-115 -115l-383 384l-383 -384l-115 115l385 383l-385 382l115 116l383 -385l383 385l115 -116l-385 -382z" />
    <glyph glyph-name="onesuperior" unicode="&#xb9;" horiz-adv-x="1130" 
d="M834 490h-627l17 71q22 1 75 7t72 12q23 7 41 25.5t24 47.5l132 584h-197l19 83h40q65 0 119 14t90 34q35 19 63 40t47 41h134q-17 -59 -32 -119l-27 -107l-117 -506q-4 -16 -10 -44t-6 -35q0 -18 7.5 -30.5t24.5 -21.5q15 -8 59.5 -16t68.5 -9z" />
    <glyph glyph-name="twosuperior" unicode="&#xb2;" horiz-adv-x="1130" 
d="M636 1377q-23 0 -47 -6t-46 -14l21.5 -60t11.5 -77q0 -52 -36.5 -85.5t-96.5 -33.5q-56 0 -90.5 38.5t-34.5 93.5q0 85 104 154.5t267 69.5q186 0 291 -64t105 -176q0 -92 -38 -159.5t-100 -114.5q-60 -45 -130.5 -75.5t-128.5 -51.5l-147.5 -55l-144.5 -56l-3 -12h629
l-47 -203h-824l35 151q54 45 195 125.5t188 110.5q39 25 82 61.5t74 79.5q34 47 54 96.5t20 116.5q0 77 -43 111.5t-120 34.5z" />
    <glyph glyph-name="threesuperior" unicode="&#xb3;" horiz-adv-x="1130" 
d="M679 591q35 34 52.5 86t17.5 127q0 64 -38 94.5t-114 30.5h-88l23 96h62q99 0 156 60.5t57 171.5q0 55 -42.5 87.5t-106.5 32.5q-23 0 -52.5 -5.5t-51.5 -13.5l21 -58.5t11 -75.5q0 -52 -33.5 -84t-93.5 -32q-56 0 -90.5 37.5t-34.5 92.5q0 87 114 153t263 66
q106 0 178.5 -20t114.5 -51t57.5 -66t15.5 -66q0 -33 -13.5 -74t-43.5 -74q-34 -36 -88 -65.5t-146 -46.5v-11q45 -4 86 -14.5t78 -33.5q36 -24 57.5 -57.5t21.5 -89.5q0 -149 -137 -242.5t-334 -93.5q-171 0 -276 63.5t-105 157.5q0 56 33 94t92 38q60 0 96 -34t36 -86
q0 -41 -11 -72t-21 -56q21 -10 50 -17t53 -7q47 0 95.5 14t78.5 44z" />
    <glyph glyph-name="onehalf" unicode="&#xbd;" horiz-adv-x="2194" 
d="M763 490h-627l17 71q22 1 75 7t72 12q23 7 41 25.5t24 47.5l132 584h-197l19 83h40q65 0 119 14t90 34q35 19 63 40t47 41h134q-17 -59 -32 -119l-27 -107l-117 -506q-4 -16 -10 -44t-6 -35q0 -18 7.5 -30.5t24.5 -21.5q15 -8 59.5 -16t68.5 -9zM1716 1429l-1090 -1429
h-156l1088 1429h158zM1703 887q-23 0 -47 -6t-46 -14l21.5 -60t11.5 -77q0 -52 -36.5 -85.5t-96.5 -33.5q-56 0 -90.5 38.5t-34.5 93.5q0 85 104 154.5t267 69.5q186 0 291 -64t105 -176q0 -92 -38 -159.5t-100 -114.5q-60 -45 -130.5 -75.5t-128.5 -51.5l-147.5 -55
l-144.5 -56l-3 -12h629l-47 -203h-824l35 151q54 45 195 125.5t188 110.5q39 25 82 61.5t74 79.5q34 47 54 96.5t20 116.5q0 77 -43 111.5t-120 34.5z" />
    <glyph glyph-name="onequarter" unicode="&#xbc;" horiz-adv-x="2194" 
d="M773 490h-627l17 71q22 1 75 7t72 12q23 7 41 25.5t24 47.5l132 584h-197l19 83h40q65 0 119 14t90 34q35 19 63 40t47 41h134q-17 -59 -32 -119l-27 -107l-117 -506q-4 -16 -10 -44t-6 -35q0 -18 7.5 -30.5t24.5 -21.5q15 -8 59.5 -16t68.5 -9zM1736 1429l-1090 -1429
h-156l1088 1429h158zM2074 373l-34 -147h-155l-57 -246h-231l57 246h-499l33 145l653 594h214l-136 -592h155zM1786 797l-474 -424h376z" />
    <glyph glyph-name="threequarters" unicode="&#xbe;" horiz-adv-x="2194" 
d="M649 591q35 34 52.5 86t17.5 127q0 64 -38 94.5t-114 30.5h-88l23 96h62q99 0 156 60.5t57 171.5q0 55 -42.5 87.5t-106.5 32.5q-23 0 -52.5 -5.5t-51.5 -13.5l21 -58.5t11 -75.5q0 -52 -33.5 -84t-93.5 -32q-56 0 -90.5 37.5t-34.5 92.5q0 87 114 153t263 66
q106 0 178.5 -20t114.5 -51t57.5 -66t15.5 -66q0 -33 -13.5 -74t-43.5 -74q-34 -36 -88 -65.5t-146 -46.5v-11q45 -4 86 -14.5t78 -33.5q36 -24 57.5 -57.5t21.5 -89.5q0 -149 -137 -242.5t-334 -93.5q-171 0 -276 63.5t-105 157.5q0 56 33 94t92 38q60 0 96 -34t36 -86
q0 -41 -11 -72t-21 -56q21 -10 50 -17t53 -7q47 0 95.5 14t78.5 44zM1863 1429l-1090 -1429h-156l1088 1429h158zM2124 373l-34 -147h-155l-57 -246h-231l57 246h-499l33 145l653 594h214l-136 -592h155zM1836 797l-474 -424h376z" />
    <glyph glyph-name="franc" unicode="&#x20a3;" horiz-adv-x="1413" 
d="M1550 1419l-88 -379h-77q-12 98 -66.5 187t-112.5 97q-30 4 -79 7t-91 3h-208l-121 -524h141q86 0 131.5 21.5t64.5 38.5q29 24 65.5 74.5t50.5 91.5h76l-129 -553h-76q0 5 0.5 13t0.5 15q0 47 -11.5 89t-25.5 61q-19 28 -57.5 44.5t-110.5 16.5h-141l-63 -274h284
l-22 -100h-284l-29 -122q-4 -17 -6.5 -32t-2.5 -23q0 -45 37 -66t141 -32l-17 -73h-757l17 73q25 1 74.5 7.5t73.5 14.5q39 13 59.5 38.5t28.5 61.5l36 153h-225l22 100h226l168 730q7 30 9.5 43t2.5 22q0 42 -42.5 65.5t-138.5 37.5l17 73h1255z" />
    <glyph glyph-name="Gbreve" unicode="&#x11e;" horiz-adv-x="1653" 
d="M725 -39q-136 0 -252 38.5t-202 113.5q-87 75 -135.5 183t-48.5 243q0 200 70.5 367.5t196.5 291.5q124 122 296.5 190.5t372.5 68.5q121 0 240.5 -29.5t179.5 -63.5l74 55h87l-110 -518h-88q-22 231 -123.5 347.5t-262.5 116.5q-128 0 -228 -76t-169 -197
q-68 -118 -105.5 -281.5t-37.5 -322.5q0 -198 77.5 -314.5t228.5 -116.5q82 0 142 27t106 66l63 271q4 18 6.5 33.5t2.5 24.5q0 42 -52 65.5t-148 37.5l17 73h768l-17 -73q-31 -2 -72 -10t-66 -15q-42 -13 -61 -40.5t-27 -60.5l-40 -173q-10 -44 -16.5 -79.5l-13.5 -76.5
q-115 -66 -304.5 -116t-348.5 -50zM1414 1852q-45 -138 -147 -230t-264 -92q-132 0 -204.5 77.5t-72.5 199.5q0 12 1 24t1 21l74 16q8 -73 61.5 -119t173.5 -46q111 0 186.5 42t122.5 123z" />
    <glyph glyph-name="gbreve" unicode="&#x11f;" horiz-adv-x="1330" 
d="M750 105h-8q-25 -20 -58 -43t-71 -40q-46 -22 -86 -33.5t-101 -11.5q-174 0 -267.5 102t-93.5 280q0 135 48 253.5t130 209.5q81 89 191.5 141t233.5 52q90 0 159 -19t119 -59l305 63l14 -16l-170 -813q-40 -182 -111 -300.5t-165 -188.5q-96 -71 -200.5 -98.5
t-219.5 -27.5q-123 0 -200.5 18.5t-118.5 47.5q-40 28 -54.5 62.5t-14.5 67.5q0 57 40.5 102.5t112.5 45.5q54 0 96.5 -29t74.5 -70q29 -37 54 -85.5t38 -78.5q46 8 91.5 26t87.5 68q40 48 76.5 133t67.5 241zM884 760q0 25 -6.5 51.5t-25.5 50.5q-19 25 -47 39.5t-76 14.5
q-65 0 -120 -46.5t-97 -124.5q-41 -77 -65 -179.5t-24 -211.5q0 -48 8.5 -88.5t29.5 -72.5t54.5 -48t75.5 -16q49 0 100.5 30t82.5 64zM1139 1532q-59 -194 -155.5 -295.5t-244.5 -101.5q-133 0 -197.5 88.5t-64.5 252.5q0 16 1 30.5t1 25.5l74 16q6 -47 16.5 -91.5
t32.5 -76.5q24 -34 61 -53t107 -19q66 0 112 18.5t79 50.5q34 32 61 78t49 93z" />
    <glyph glyph-name="Idotaccent" unicode="&#x130;" horiz-adv-x="923" 
d="M-61 0l17 73q29 1 79 6.5t77 14.5q39 13 59.5 39.5t28.5 61.5l229 992q5 21 7 35t2 21q0 42 -46.5 65.5t-142.5 37.5l17 73h787l-17 -73q-32 -2 -82 -9.5t-75 -15.5q-41 -13 -60.5 -40.5t-27.5 -61.5l-229 -993q-4 -17 -6.5 -32t-2.5 -23q0 -50 46.5 -69.5t143.5 -28.5
l-17 -73h-787zM850 1700q0 -70 -49 -119t-119 -49t-119 49t-49 119t49 119t119 49t119 -49t49 -119z" />
    <glyph glyph-name="Scedilla" unicode="&#x15e;" horiz-adv-x="1337" 
d="M518 -37q-114 6 -212.5 35t-177.5 72l-86 -70h-85l106 513h86q12 -75 44 -155.5t83 -143.5q50 -65 127 -108t176 -43q145 0 232 70.5t87 185.5q0 74 -49.5 130t-159.5 96l-135.5 48.5t-124.5 48.5q-117 49 -176 139.5t-59 192.5q0 94 43 180.5t124 154.5
q79 67 195.5 107.5t255.5 40.5q116 0 230 -33.5t168 -64.5l75 60h87l-104 -484h-86q-13 85 -37.5 160t-67.5 135q-42 58 -104.5 92.5t-150.5 34.5q-122 0 -203.5 -68t-81.5 -171q0 -72 49 -126t155 -94l130 -47.5t130 -50.5q116 -48 183 -130.5t67 -195.5q0 -107 -49 -201
t-137 -162q-87 -68 -205 -107t-255 -41l-14 -59q98 0 157 -32.5t59 -96.5q0 -65 -33 -108t-95 -67q-63 -24 -150.5 -34t-214.5 -10l18 78q48 0 102 1t87 9q39 8 59.5 27t20.5 53q0 32 -35.5 43t-89.5 11z" />
    <glyph glyph-name="scedilla" unicode="&#x15f;" horiz-adv-x="1059" 
d="M398 -33q-118 4 -188 24t-114 49q-49 32 -67 68.5t-18 68.5q0 58 43.5 101.5t115.5 43.5q60 0 100.5 -31t67.5 -78q25 -43 42 -95t24 -77q113 0 171 48.5t58 132.5q0 37 -17.5 62t-46.5 44q-29 18 -74 35t-89 32q-121 41 -191.5 113.5t-70.5 180.5q0 64 29.5 120.5
t92.5 104.5q62 46 157 73.5t222 27.5q76 0 141 -9t121 -33q53 -24 82.5 -62.5t29.5 -93.5t-41.5 -94.5t-108.5 -39.5q-58 0 -96.5 30t-62.5 71q-24 42 -38 86.5l-23 74.5q-70 -4 -127.5 -50.5t-57.5 -115.5q0 -42 13.5 -66t36.5 -40q26 -18 65.5 -33.5t98.5 -35.5
q136 -48 205 -115t69 -177q0 -72 -33.5 -138t-95.5 -110q-62 -43 -142 -67t-196 -29l-14 -64q98 0 157 -32.5t59 -96.5q0 -65 -33 -108t-95 -67q-63 -24 -150.5 -34t-214.5 -10l18 78q48 0 102 1t87 9q39 8 59.5 27t20.5 53q0 32 -35.5 43t-89.5 11z" />
    <glyph glyph-name="Cacute" unicode="&#x106;" horiz-adv-x="1465" 
d="M721 -38q-137 0 -254 40.5t-202 116.5q-84 76 -131 185.5t-47 247.5q0 183 67.5 345t190.5 289q118 122 288.5 196.5t362.5 74.5q116 0 235 -28t178 -65l75 55h87l-111 -518h-88q-20 227 -120.5 345.5t-258.5 118.5q-116 0 -214 -69t-174 -212q-62 -118 -94.5 -273.5
t-32.5 -291.5q0 -200 97 -311t260 -111q143 0 265 80t235 231l77 -52q-49 -76 -117 -149.5t-155 -127.5q-91 -57 -187.5 -87t-231.5 -30zM1281 1768q0 -42 -26 -69t-75 -47q-56 -23 -168 -64t-260 -103l-33 41l157.5 151t111.5 115q37 41 72.5 58.5t74.5 17.5
q65 0 105.5 -27.5t40.5 -72.5z" />
    <glyph glyph-name="cacute" unicode="&#x107;" horiz-adv-x="1097" 
d="M557 -33q-230 0 -358.5 115t-128.5 316q0 121 41 229.5t126 197.5q79 84 203 137t277 53q177 0 270.5 -65t93.5 -179q0 -31 -10 -69t-30 -64q-25 -32 -54.5 -49t-88.5 -17q-78 0 -121.5 38.5t-43.5 80.5q0 50 21 99t53 103q-9 11 -36.5 27t-71.5 16q-117 0 -194 -141.5
t-77 -350.5q0 -159 58.5 -241t166.5 -82q110 0 183.5 42.5t150.5 145.5l72 -61q-82 -127 -217 -204t-285 -77zM993 1460q0 -45 -20.5 -72.5t-65.5 -56.5q-49 -32 -155 -90.5t-240 -139.5l-42 38q88 117 136 186.5l83 118.5q43 61 82 82.5t97 21.5q48 0 86.5 -26t38.5 -62z
" />
    <glyph glyph-name="Ccaron" unicode="&#x10c;" horiz-adv-x="1465" 
d="M721 -38q-137 0 -254 40.5t-202 116.5q-84 76 -131 185.5t-47 247.5q0 183 67.5 345t190.5 289q118 122 288.5 196.5t362.5 74.5q116 0 235 -28t178 -65l75 55h87l-111 -518h-88q-20 227 -120.5 345.5t-258.5 118.5q-116 0 -214 -69t-174 -212q-62 -118 -94.5 -273.5
t-32.5 -291.5q0 -200 97 -311t260 -111q143 0 265 80t235 231l77 -52q-49 -76 -117 -149.5t-155 -127.5q-91 -57 -187.5 -87t-231.5 -30zM1414 1839l-182.5 -181.5l-110.5 -107.5q-32 -32 -60.5 -46.5t-88.5 -14.5q-57 0 -80.5 14.5t-43.5 42.5l-64.5 95.5l-130.5 197.5
l34 29l310 -198l385 198z" />
    <glyph glyph-name="ccaron" unicode="&#x10d;" horiz-adv-x="1097" 
d="M557 -33q-230 0 -358.5 115t-128.5 316q0 121 41 229.5t126 197.5q79 84 203 137t277 53q177 0 270.5 -65t93.5 -179q0 -31 -10 -69t-30 -64q-25 -32 -54.5 -49t-88.5 -17q-78 0 -121.5 38.5t-43.5 80.5q0 50 21 99t53 103q-9 11 -36.5 27t-71.5 16q-117 0 -194 -141.5
t-77 -350.5q0 -159 58.5 -241t166.5 -82q110 0 183.5 42.5t150.5 145.5l72 -61q-82 -127 -217 -204t-285 -77zM1117 1521l-166 -212t-122 -143q-36 -38 -67 -49.5t-82 -11.5q-57 0 -81.5 14.5t-42.5 42.5q-35 55 -82.5 154l-97.5 205l54 29l276 -254l360 254z" />
    <glyph glyph-name="dcroat" unicode="&#x111;" horiz-adv-x="1357" 
d="M766 125h-8l-67 -55t-82 -50q-47 -24 -91.5 -37.5t-102.5 -13.5q-174 0 -262 102.5t-88 280.5q0 271 178 463.5t423 192.5q92 0 155 -19.5t104 -51.5l50 217h-395l22 94h394q7 33 10 50.5t3 27.5q0 33 -17.5 56t-47.5 36q-28 13 -64.5 19t-79.5 11l18 74l561 26l11 -16
l-66 -284h218l-22 -94h-218l-181 -785q-7 -29 -16.5 -76.5t-9.5 -71.5q0 -57 25.5 -78.5t89.5 -21.5q28 0 67.5 11t55.5 18l-22 -90q-99 -39 -158 -59.5t-137 -20.5q-103 0 -164.5 40.5t-85.5 104.5zM882 758q0 25 -6.5 51.5t-25.5 50.5q-19 25 -47 39.5t-76 14.5
q-128 0 -216 -175.5t-88 -390.5q0 -49 7.5 -91t24.5 -71q18 -31 48.5 -48t76.5 -17q47 0 93.5 27.5t83.5 67.5z" />
    <glyph glyph-name="overscore" unicode="&#xaf;" horiz-adv-x="1440" 
d="M1685 1724l-28 -120h-1450l28 120h1450z" />
    <glyph glyph-name="middot" unicode="&#xb7;" horiz-adv-x="692" 
d="M564 546q0 -79 -58.5 -137t-138.5 -58q-81 0 -139.5 57.5t-58.5 137.5t58.5 138.5t139.5 58.5q80 0 138.5 -59t58.5 -138z" />
    <glyph glyph-name="Abreve" unicode="&#x102;" horiz-adv-x="1553" 
d="M892 571l-87 517l-324 -517h411zM732 0l17 73q103 8 160.5 25.5t57.5 38.5q0 18 -2 31t-5 30l-50 279h-489l-60.5 -97.5l-61.5 -103.5q-38 -68 -44.5 -93t-6.5 -32q0 -30 47 -49.5t144 -28.5l-17 -73h-596l17 73q29 2 73 10t74 24q42 22 79 57t69 85l373 576.5l394 613.5
h198l127.5 -741t88.5 -490q5 -30 19.5 -54.5t46.5 -46.5q24 -16 58.5 -24t64.5 -10l-17 -73h-759zM1402 1852q-45 -138 -147 -230t-264 -92q-132 0 -204.5 77.5t-72.5 199.5q0 12 1 24t1 21l74 16q8 -73 61.5 -119t173.5 -46q111 0 186.5 42t122.5 123z" />
    <glyph glyph-name="abreve" unicode="&#x103;" horiz-adv-x="1352" 
d="M760 125h-8l-66.5 -55t-79.5 -50q-42 -22 -88.5 -36.5t-102.5 -14.5q-174 0 -262 102.5t-88 280.5q0 137 49 257t131 211q83 90 194 142.5t234 52.5q90 0 157.5 -21t110.5 -57l307 63l14 -16l-147 -615q-8 -31 -17 -77.5t-9 -70.5q0 -57 26 -78.5t90 -21.5q28 0 67.5 11
t55.5 18l-22 -90q-99 -39 -158.5 -59.5t-137.5 -20.5q-103 0 -164.5 40.5t-85.5 104.5zM879 759q0 22 -6 52t-21 51q-18 26 -47 39.5t-72 13.5q-66 0 -121.5 -47.5t-98.5 -126.5q-42 -78 -66 -181.5t-24 -211.5q0 -49 7.5 -91t24.5 -71q18 -31 48.5 -48t76.5 -17
q47 0 90.5 27.5t80.5 67.5zM1139 1532q-59 -194 -155.5 -295.5t-244.5 -101.5q-133 0 -197.5 88.5t-64.5 252.5q0 16 1 30.5t1 25.5l74 16q6 -47 16.5 -91.5t32.5 -76.5q24 -34 61 -53t107 -19q66 0 112 18.5t79 50.5q34 32 61 78t49 93z" />
    <glyph glyph-name="Aogonek" unicode="&#x104;" horiz-adv-x="1553" 
d="M892 571l-87 517l-324 -517h411zM732 0l17 73q103 8 160.5 25.5t57.5 38.5q0 18 -2 31t-5 30l-50 279h-489l-60.5 -97.5l-61.5 -103.5q-38 -68 -44.5 -93t-6.5 -32q0 -30 47 -49.5t144 -28.5l-17 -73h-596l17 73q29 2 73 10t74 24q42 22 79 57t69 85l373 576.5l394 613.5
h198l127.5 -741t88.5 -490q5 -30 19.5 -54.5t46.5 -46.5q24 -16 58.5 -24t64.5 -10l-17 -73h-244q-70 -71 -106.5 -136.5t-36.5 -117.5q0 -50 44 -76.5t133 -36.5l-14 -77q-208 0 -295 42t-87 119q0 82 62 149.5t179 133.5h-394z" />
    <glyph glyph-name="aogonek" unicode="&#x105;" horiz-adv-x="1352" 
d="M760 125h-8l-66.5 -55t-79.5 -50q-42 -22 -88.5 -36.5t-102.5 -14.5q-174 0 -262 102.5t-88 280.5q0 137 49 257t131 211q83 90 194 142.5t234 52.5q90 0 157.5 -21t110.5 -57l307 63l14 -16l-147 -615q-8 -31 -17 -77.5t-9 -70.5q0 -57 26 -78.5t90 -21.5q28 0 67.5 11
t55.5 18l-22 -90l-112.5 -43t-90.5 -26q-63 -63 -99 -128t-36 -117q0 -50 44 -76.5t133 -36.5l-14 -77q-208 0 -295 42t-87 119q0 82 65 150.5t148 115.5q-81 9 -132.5 50.5t-69.5 91.5zM879 759q0 22 -6 52t-21 51q-18 26 -47 39.5t-72 13.5q-66 0 -121.5 -47.5
t-98.5 -126.5q-42 -78 -66 -181.5t-24 -211.5q0 -49 7.5 -91t24.5 -71q18 -31 48.5 -48t76.5 -17q47 0 90.5 27.5t80.5 67.5z" />
    <glyph glyph-name="Dcaron" unicode="&#x10e;" horiz-adv-x="1708" 
d="M1448 1304q111 -69 174 -180.5t63 -263.5q0 -190 -75 -351t-212 -274q-136 -114 -316 -174.5t-397 -60.5h-740l17 73q25 1 74.5 6.5t73.5 13.5q39 13 59.5 40t28.5 62l229 992q5 21 7 35t2 21q0 42 -42.5 65.5t-138.5 37.5l17 73h727q112 0 230.5 -26.5t218.5 -88.5z
M1152 349q71 121 105 263.5t34 297.5q0 194 -88 308.5t-265 114.5q-35 0 -69.5 -1.5t-54.5 -2.5l-245 -1065q-4 -15 -7 -36.5t-3 -30.5q0 -63 46.5 -87t130.5 -24q136 0 241.5 72t174.5 191zM1362 1839l-182.5 -181.5l-110.5 -107.5q-32 -32 -60.5 -46.5t-88.5 -14.5
q-57 0 -80.5 14.5t-43.5 42.5l-64.5 95.5l-130.5 197.5l34 29l310 -198l385 198z" />
    <glyph glyph-name="dcaron" unicode="&#x10f;" horiz-adv-x="1691" 
d="M766 125h-8l-67 -55t-82 -50q-47 -24 -91.5 -37.5t-102.5 -13.5q-174 0 -262 102.5t-88 280.5q0 137 48 257t130 211q81 90 192 142.5t233 52.5q92 0 154 -19.5t103 -51.5l74 325q3 14 5.5 30.5t2.5 26.5q0 33 -17 56t-47 36q-28 13 -64 19t-79 11l18 74l561 26l11 -16
l-269 -1163q-7 -29 -16.5 -76.5t-9.5 -71.5q0 -57 25.5 -78.5t89.5 -21.5q28 0 67.5 11t55.5 18l-22 -90q-99 -39 -158 -59.5t-137 -20.5q-103 0 -164.5 40.5t-85.5 104.5zM884 765q0 25 -6.5 51.5t-25.5 50.5q-19 25 -47 39.5t-76 14.5q-64 0 -119.5 -47.5t-98.5 -129.5
q-40 -76 -64 -180.5t-24 -215.5q0 -49 7.5 -91t24.5 -71q18 -31 48.5 -48t76.5 -17q47 0 93.5 27.5t83.5 67.5zM1880 1349q0 -157 -132.5 -301t-323.5 -220l-28 71q46 20 104.5 54.5t93.5 66.5q40 36 72.5 81t50.5 103h-56q-87 0 -130 33t-43 92q0 76 64 138.5t152 62.5
q93 0 134.5 -50.5t41.5 -130.5z" />
    <glyph glyph-name="Dcroat" unicode="&#x110;" horiz-adv-x="1708" 
d="M1448 1304q111 -69 174 -180.5t63 -263.5q0 -190 -75 -351t-212 -274q-136 -114 -316 -174.5t-397 -60.5h-740l17 73q25 1 74.5 6.5t73.5 13.5q39 13 59.5 40t28.5 62l114 494h-195l23 100h195l92 398q5 21 7 35t2 21q0 42 -42.5 65.5t-138.5 37.5l17 73h727
q112 0 230.5 -26.5t218.5 -88.5zM1291 910q0 194 -88 308.5t-265 114.5q-35 0 -69.5 -1.5t-54.5 -2.5l-124 -540h304l-23 -100h-304l-98 -425q-3 -15 -6.5 -36.5t-3.5 -30.5q0 -63 46.5 -87t130.5 -24q136 0 241.5 72t174.5 191q71 121 105 263.5t34 297.5z" />
    <glyph glyph-name="Eogonek" unicode="&#x118;" horiz-adv-x="1477" 
d="M1520 1419l-83 -362h-76q-14 95 -67.5 174.5t-112.5 92.5q-28 7 -81 8.5t-88 1.5h-196l-128 -555h136q75 0 117.5 16.5t79.5 46.5q28 23 65.5 82.5t53.5 101.5h76l-137 -592h-76v37q0 45 -9.5 92.5t-22.5 66.5q-26 38 -69 50.5t-98 12.5h-136l-91 -395q-7 -30 -13 -65
t-6 -50q0 -64 42 -80.5t155 -16.5q144 0 210 12.5t99 38.5q60 50 144 153t114 152h73l-129 -442h-119q-70 -71 -106.5 -136.5t-36.5 -117.5q0 -50 44 -76.5t133 -36.5l-14 -77q-208 0 -295 42t-87 119q0 82 62 149.5t179 133.5h-1081l17 73q25 1 74.5 6.5t73.5 13.5
q39 13 59.5 40t28.5 62l229 992q5 21 7 35t2 21q0 42 -42.5 65.5t-138.5 37.5l17 73h1248z" />
    <glyph glyph-name="eogonek" unicode="&#x119;" horiz-adv-x="1141" 
d="M546 -33q-120 0 -210.5 32.5t-149.5 90.5q-58 58 -87 135t-29 170q0 118 44 229t131 200q82 85 208 138t278 53q179 0 272.5 -57t93.5 -171q0 -109 -81 -187.5t-220 -116.5q-110 -33 -187.5 -47t-189.5 -26q2 -44 12 -99t30 -94q24 -45 68 -71.5t112 -26.5
q118 0 200.5 45.5t157.5 144.5l73 -61q-48 -68 -113 -123.5t-139 -92.5q-90 -85 -133 -157.5t-43 -128.5q0 -50 44 -76.5t133 -36.5l-14 -77q-208 0 -295 42t-87 119q0 72 50 134t144 121q-13 -2 -34 -3.5t-39 -1.5zM772 759q0 85 -31 130.5t-86 45.5q-77 0 -145.5 -125.5
t-87.5 -317.5q59 7 117 18t92 26q75 33 108 85t33 138z" />
    <glyph glyph-name="Ecaron" unicode="&#x11a;" horiz-adv-x="1477" 
d="M1520 1419l-83 -362h-76q-14 95 -67.5 174.5t-112.5 92.5q-28 7 -81 8.5t-88 1.5h-196l-128 -555h136q75 0 117.5 16.5t79.5 46.5q28 23 65.5 82.5t53.5 101.5h76l-137 -592h-76v37q0 45 -9.5 92.5t-22.5 66.5q-26 38 -69 50.5t-98 12.5h-136l-91 -395q-7 -30 -13 -65
t-6 -50q0 -64 42 -80.5t155 -16.5q144 0 210 12.5t99 38.5q60 50 144 153t114 152h73l-129 -442h-1321l17 73q25 1 74.5 6.5t73.5 13.5q39 13 59.5 40t28.5 62l229 992q5 21 7 35t2 21q0 42 -42.5 65.5t-138.5 37.5l17 73h1248zM1352 1839l-182.5 -181.5l-110.5 -107.5
q-32 -32 -60.5 -46.5t-88.5 -14.5q-57 0 -80.5 14.5t-43.5 42.5l-64.5 95.5l-130.5 197.5l34 29l310 -198l385 198z" />
    <glyph glyph-name="ecaron" unicode="&#x11b;" horiz-adv-x="1141" 
d="M546 -33q-120 0 -210.5 32.5t-149.5 90.5q-58 58 -87 135t-29 170q0 118 44 229t131 200q82 85 208 138t278 53q179 0 272.5 -57t93.5 -171q0 -109 -81 -187.5t-220 -116.5q-110 -33 -187.5 -47t-189.5 -26q2 -44 12 -99t30 -94q24 -45 68 -71.5t112 -26.5
q118 0 200.5 45.5t157.5 144.5l73 -61q-90 -128 -230.5 -204.5t-295.5 -76.5zM772 759q0 85 -31 130.5t-86 45.5q-77 0 -145.5 -125.5t-87.5 -317.5q59 7 117 18t92 26q75 33 108 85t33 138zM1110 1521l-166 -212t-122 -143q-36 -38 -67 -49.5t-82 -11.5q-57 0 -81.5 14.5
t-42.5 42.5q-35 55 -82.5 154l-97.5 205l54 29l276 -254l360 254z" />
    <glyph glyph-name="Lacute" unicode="&#x139;" horiz-adv-x="1404" 
d="M1385 455l-133 -455h-1307l17 73q25 1 74.5 7.5t73.5 14.5q40 13 60 39t28 61l229 992q5 21 7 35t2 21q0 42 -42.5 65.5t-138.5 37.5l17 73h780l-17 -73q-32 -2 -82 -9.5t-76 -15.5q-42 -13 -61 -41.5t-27 -60.5l-217 -943q-7 -29 -11 -56.5t-4 -42.5q0 -58 42.5 -74.5
t173.5 -16.5q80 0 159 12t118 44q62 50 138 143.5t124 169.5h73zM1131 1768q0 -42 -26 -69t-75 -47q-56 -23 -168 -64t-260 -103l-33 41l157.5 151t111.5 115q37 41 72.5 58.5t74.5 17.5q65 0 105.5 -27.5t40.5 -72.5z" />
    <glyph glyph-name="lacute" unicode="&#x13a;" horiz-adv-x="726" 
d="M716 1403l-239 -1041q-7 -29 -16.5 -77t-9.5 -71q0 -58 29 -79t96 -21q25 0 68 10.5t61 18.5l-22 -90q-99 -39 -162 -59.5t-143 -20.5q-120 0 -189 58.5t-69 148.5q0 37 6.5 77t14.5 77l186 810q4 16 6 31.5t2 25.5q0 36 -12 57t-36 34t-55 18t-72 9l18 74l527 26z
M849 1768q0 -42 -26 -69t-75 -47q-56 -23 -168 -64t-260 -103l-33 41l157.5 151t111.5 115q37 41 72.5 58.5t74.5 17.5q65 0 105.5 -27.5t40.5 -72.5z" />
    <glyph glyph-name="Lcaron" unicode="&#x13d;" horiz-adv-x="1404" 
d="M1385 455l-133 -455h-1307l17 73q25 1 74.5 7.5t73.5 14.5q40 13 60 39t28 61l229 992q5 21 7 35t2 21q0 42 -42.5 65.5t-138.5 37.5l17 73h780l-17 -73q-32 -2 -82 -9.5t-76 -15.5q-42 -13 -61 -41.5t-27 -60.5l-217 -943q-7 -29 -11 -56.5t-4 -42.5q0 -58 42.5 -74.5
t173.5 -16.5q80 0 159 12t118 44q62 50 138 143.5t124 169.5h73zM1502 1253q0 -157 -132.5 -301t-323.5 -220l-28 71q46 20 104.5 54.5t93.5 66.5q40 36 72.5 81t50.5 103h-56q-87 0 -130 33t-43 92q0 76 64 138.5t152 62.5q93 0 134.5 -50.5t41.5 -130.5z" />
    <glyph glyph-name="lcaron" unicode="&#x13e;" horiz-adv-x="1048" 
d="M746 1532l-269 -1170q-7 -29 -16.5 -77t-9.5 -71q0 -58 29 -79t96 -21q25 0 68 10.5t61 18.5l-22 -90q-99 -39 -162 -59.5t-143 -20.5q-120 0 -189 58.5t-69 148.5q0 37 6.5 77t14.5 77l216 939q4 17 6 32t2 25q0 36 -12 57t-36 34t-55 18t-72 9l18 74l527 26zM1237 1349
q0 -157 -132.5 -301t-323.5 -220l-28 71q46 20 104.5 54.5t93.5 66.5q40 36 72.5 81t50.5 103h-56q-87 0 -130 33t-43 92q0 76 64 138.5t152 62.5q93 0 134.5 -50.5t41.5 -130.5z" />
    <glyph glyph-name="Ldot" unicode="&#x13f;" horiz-adv-x="1404" 
d="M1385 455l-133 -455h-1307l17 73q25 1 74.5 7.5t73.5 14.5q40 13 60 39t28 61l229 992q5 21 7 35t2 21q0 42 -42.5 65.5t-138.5 37.5l17 73h780l-17 -73q-32 -2 -82 -9.5t-76 -15.5q-42 -13 -61 -41.5t-27 -60.5l-217 -943q-7 -29 -11 -56.5t-4 -42.5q0 -58 42.5 -74.5
t173.5 -16.5q80 0 159 12t118 44q62 50 138 143.5t124 169.5h73zM1385 767q0 -79 -58.5 -137t-138.5 -58q-81 0 -139.5 57.5t-58.5 137.5t58.5 138.5t139.5 58.5q80 0 138.5 -59t58.5 -138z" />
    <glyph glyph-name="ldot" unicode="&#x140;" horiz-adv-x="1119" 
d="M746 1532l-269 -1170q-7 -29 -16.5 -77t-9.5 -71q0 -58 29 -79t96 -21q25 0 68 10.5t61 18.5l-22 -90q-99 -39 -162 -59.5t-143 -20.5q-120 0 -189 58.5t-69 148.5q0 37 6.5 77t14.5 77l216 939q4 17 6 32t2 25q0 36 -12 57t-36 34t-55 18t-72 9l18 74l527 26zM1140 672
q0 -79 -58.5 -137t-138.5 -58q-81 0 -139.5 57.5t-58.5 137.5t58.5 138.5t139.5 58.5q80 0 138.5 -59t58.5 -138z" />
    <glyph glyph-name="Nacute" unicode="&#x143;" horiz-adv-x="1699" 
d="M1883 1419l-17 -73q-28 -3 -81.5 -10.5t-104.5 -39.5q-43 -27 -73.5 -93t-60.5 -193l-235 -1018h-168l-613 1137l-162 -710q-13 -56 -20 -105t-7 -78q0 -41 8 -63.5t23 -37.5q23 -23 80.5 -40t85.5 -22l-17 -73h-610l17 73q27 4 85.5 14t100.5 36q44 28 74 91.5t59 193.5
l154 668q5 23 8.5 43.5t3.5 37.5q0 30 -7 57.5t-26 50.5q-28 34 -69 52.5t-96 28.5l18 73h524l536 -1000l133 581q14 64 20.5 104.5t6.5 75.5q0 39 -8.5 63.5t-24.5 40.5q-22 22 -77.5 39.5t-85.5 22.5l17 73h609zM1421 1768q0 -42 -26 -69t-75 -47q-56 -23 -168 -64
t-260 -103l-33 41l157.5 151t111.5 115q37 41 72.5 58.5t74.5 17.5q65 0 105.5 -27.5t40.5 -72.5z" />
    <glyph glyph-name="nacute" unicode="&#x144;" horiz-adv-x="1413" 
d="M1384 153l-22 -90q-99 -39 -158 -59.5t-137 -20.5q-119 0 -185 59.5t-66 147.5q0 24 2.5 61.5t16.5 93.5l72 266q11 43 16.5 77.5t5.5 56.5q0 48 -23 75t-78 27q-34 0 -97 -26.5t-141 -98.5l-165 -722h-331l142 615l15.5 73t9.5 75q0 57 -23.5 78.5t-85.5 21.5
q-32 0 -65.5 -10t-57.5 -19l22 90q81 33 155 56.5t140 23.5q118 0 176.5 -46.5t77.5 -130.5h7q98 89 202.5 138.5t222.5 49.5q111 0 173.5 -61t62.5 -148q0 -23 -3.5 -64.5t-16.5 -88.5l-76 -281q-10 -35 -18 -80t-8 -68q0 -58 25.5 -79t89.5 -21q30 0 68 10.5t55 18.5z
M1128 1460q0 -45 -20.5 -72.5t-65.5 -56.5q-49 -32 -155 -90.5t-240 -139.5l-42 38q88 117 136 186.5l83 118.5q43 61 82 82.5t97 21.5q48 0 86.5 -26t38.5 -62z" />
    <glyph glyph-name="Ncaron" unicode="&#x147;" horiz-adv-x="1699" 
d="M1883 1419l-17 -73q-28 -3 -81.5 -10.5t-104.5 -39.5q-43 -27 -73.5 -93t-60.5 -193l-235 -1018h-168l-613 1137l-162 -710q-13 -56 -20 -105t-7 -78q0 -41 8 -63.5t23 -37.5q23 -23 80.5 -40t85.5 -22l-17 -73h-610l17 73q27 4 85.5 14t100.5 36q44 28 74 91.5t59 193.5
l154 668q5 23 8.5 43.5t3.5 37.5q0 30 -7 57.5t-26 50.5q-28 34 -69 52.5t-96 28.5l18 73h524l536 -1000l133 581q14 64 20.5 104.5t6.5 75.5q0 39 -8.5 63.5t-24.5 40.5q-22 22 -77.5 39.5t-85.5 22.5l17 73h609zM1472 1839l-182.5 -181.5l-110.5 -107.5
q-32 -32 -60.5 -46.5t-88.5 -14.5q-57 0 -80.5 14.5t-43.5 42.5l-64.5 95.5l-130.5 197.5l34 29l310 -198l385 198z" />
    <glyph glyph-name="ncaron" unicode="&#x148;" horiz-adv-x="1413" 
d="M1384 153l-22 -90q-99 -39 -158 -59.5t-137 -20.5q-119 0 -185 59.5t-66 147.5q0 24 2.5 61.5t16.5 93.5l72 266q11 43 16.5 77.5t5.5 56.5q0 48 -23 75t-78 27q-34 0 -97 -26.5t-141 -98.5l-165 -722h-331l142 615l15.5 73t9.5 75q0 57 -23.5 78.5t-85.5 21.5
q-32 0 -65.5 -10t-57.5 -19l22 90q81 33 155 56.5t140 23.5q118 0 176.5 -46.5t77.5 -130.5h7q98 89 202.5 138.5t222.5 49.5q111 0 173.5 -61t62.5 -148q0 -23 -3.5 -64.5t-16.5 -88.5l-76 -281q-10 -35 -18 -80t-8 -68q0 -58 25.5 -79t89.5 -21q30 0 68 10.5t55 18.5z
M1164 1521l-166 -212t-122 -143q-36 -38 -67 -49.5t-82 -11.5q-57 0 -81.5 14.5t-42.5 42.5q-35 55 -82.5 154l-97.5 205l54 29l276 -254l360 254z" />
    <glyph glyph-name="Ohungarumlaut" unicode="&#x150;" horiz-adv-x="1679" 
d="M1661 875q0 -180 -67.5 -347.5t-189.5 -291.5q-125 -127 -294 -201t-383 -74q-280 0 -460 161.5t-180 422.5q0 190 73 357.5t202 292.5q126 123 295.5 193t357.5 70q282 0 464 -158t182 -425zM1138 351q68 138 101 300.5t33 320.5q0 183 -70 288t-209 105
q-122 0 -218.5 -82t-162.5 -213t-101 -296t-35 -328q0 -177 70 -284.5t210 -107.5q121 0 219.5 84t162.5 213zM1586 1652l-154 -57.5t-282 -109.5l-28 41l171 158l112 108q42 41 79.5 58.5t75.5 17.5q63 0 101 -25t38 -66q0 -46 -30 -75.5t-83 -49.5zM1163 1773
q0 -42 -29.5 -70.5t-83.5 -50.5l-146.5 -57l-289.5 -110l-28 41q118 106 174.5 161l108.5 105q42 40 79.5 58t75.5 18q67 0 103 -24.5t36 -70.5z" />
    <glyph glyph-name="ohungarumlaut" unicode="&#x151;" horiz-adv-x="1302" 
d="M1235 599q0 -126 -48 -241t-136 -200q-95 -91 -222.5 -140.5t-286.5 -49.5q-213 0 -344 113.5t-131 309.5q0 133 49.5 247t138.5 199q88 83 216 131.5t277 48.5q226 0 356.5 -110.5t130.5 -307.5zM883 712q0 117 -39.5 172t-114.5 55q-77 0 -141 -61.5t-104 -180.5
q-35 -99 -50 -214.5t-15 -206.5q0 -121 40 -175.5t116 -54.5q82 0 142 67t95 165q35 96 53 212.5t18 221.5zM1228 1338q-57 -38 -141 -89.5t-232 -154.5l-30 35q96 111 156.5 193.5t96.5 127.5q61 75 103 86.5t82 11.5q34 0 60 -21t26 -50q0 -41 -38.5 -76t-82.5 -63z
M824 1338q-57 -38 -141 -89.5t-232 -154.5l-30 35q96 111 156.5 193.5t96.5 127.5q61 75 103 86.5t82 11.5q34 0 60 -21.5t26 -50.5q0 -41 -38.5 -75.5t-82.5 -62.5z" />
    <glyph glyph-name="Racute" unicode="&#x154;" horiz-adv-x="1633" 
d="M1147 1121q0 107 -67.5 159.5t-195.5 52.5h-68l-139 -603h97q163 0 268 102.5t105 288.5zM560 226q-4 -17 -6.5 -32t-2.5 -23q0 -45 37 -66t141 -32l-17 -73h-767l17 73q25 1 74.5 7.5t73.5 14.5q39 13 59.5 39t28.5 61l229 992q5 21 7 35t2 21q0 42 -42.5 65.5
t-138.5 37.5l17 73h782q244 0 366.5 -69t122.5 -209q0 -165 -119 -276.5t-336 -163.5l103.5 -186.5l145.5 -256.5q24 -43 62.5 -97.5t81.5 -69.5q21 -7 58 -12t53 -6l-18 -73h-518q-94 215 -160.5 344.5t-166.5 298.5h-72zM1321 1768q0 -42 -26 -69t-75 -47
q-56 -23 -168 -64t-260 -103l-33 41l157.5 151t111.5 115q37 41 72.5 58.5t74.5 17.5q65 0 105.5 -27.5t40.5 -72.5z" />
    <glyph glyph-name="racute" unicode="&#x155;" horiz-adv-x="1093" 
d="M1106 807q0 -45 -13 -87t-39 -72q-29 -34 -61 -50.5t-90 -16.5q-75 0 -118 37t-43 83q0 43 12.5 74l39.5 94q-67 -28 -115 -68.5t-92 -92.5l-158 -708h-331l138 615l15.5 73t9.5 75q0 58 -22.5 79t-86.5 21q-32 0 -65.5 -10t-57.5 -19l22 90q81 33 155 56.5t140 23.5
q118 0 176.5 -46.5t77.5 -130.5h7q99 105 168 146.5t148 41.5q85 0 134 -53.5t49 -154.5zM943 1460q0 -45 -20.5 -72.5t-65.5 -56.5q-49 -32 -155 -90.5t-240 -139.5l-42 38q88 117 136 186.5l83 118.5q43 61 82 82.5t97 21.5q48 0 86.5 -26t38.5 -62z" />
    <glyph glyph-name="Rcaron" unicode="&#x158;" horiz-adv-x="1633" 
d="M1147 1121q0 107 -67.5 159.5t-195.5 52.5h-68l-139 -603h97q163 0 268 102.5t105 288.5zM560 226q-4 -17 -6.5 -32t-2.5 -23q0 -45 37 -66t141 -32l-17 -73h-767l17 73q25 1 74.5 7.5t73.5 14.5q39 13 59.5 39t28.5 61l229 992q5 21 7 35t2 21q0 42 -42.5 65.5
t-138.5 37.5l17 73h782q244 0 366.5 -69t122.5 -209q0 -165 -119 -276.5t-336 -163.5l103.5 -186.5l145.5 -256.5q24 -43 62.5 -97.5t81.5 -69.5q21 -7 58 -12t53 -6l-18 -73h-518q-94 215 -160.5 344.5t-166.5 298.5h-72zM1352 1839l-182.5 -181.5l-110.5 -107.5
q-32 -32 -60.5 -46.5t-88.5 -14.5q-57 0 -80.5 14.5t-43.5 42.5l-64.5 95.5l-130.5 197.5l34 29l310 -198l385 198z" />
    <glyph glyph-name="rcaron" unicode="&#x159;" horiz-adv-x="1093" 
d="M1106 807q0 -45 -13 -87t-39 -72q-29 -34 -61 -50.5t-90 -16.5q-75 0 -118 37t-43 83q0 43 12.5 74l39.5 94q-67 -28 -115 -68.5t-92 -92.5l-158 -708h-331l138 615l15.5 73t9.5 75q0 58 -22.5 79t-86.5 21q-32 0 -65.5 -10t-57.5 -19l22 90q81 33 155 56.5t140 23.5
q118 0 176.5 -46.5t77.5 -130.5h7q99 105 168 146.5t148 41.5q85 0 134 -53.5t49 -154.5zM1010 1521l-166 -212t-122 -143q-36 -38 -67 -49.5t-82 -11.5q-57 0 -81.5 14.5t-42.5 42.5q-35 55 -82.5 154l-97.5 205l54 29l276 -254l360 254z" />
    <glyph glyph-name="Sacute" unicode="&#x15a;" horiz-adv-x="1337" 
d="M575 -38q-118 0 -237.5 29t-209.5 79l-86 -70h-85l106 513h86q12 -75 44 -155.5t83 -143.5q50 -65 127 -108t176 -43q145 0 232 70.5t87 185.5q0 74 -49.5 130t-159.5 96l-135.5 48.5t-124.5 48.5q-117 49 -176 139.5t-59 192.5q0 94 43 180.5t124 154.5
q79 67 195.5 107.5t255.5 40.5q116 0 230 -33.5t168 -64.5l75 60h87l-104 -484h-86q-13 85 -37.5 160t-67.5 135q-42 58 -104.5 92.5t-150.5 34.5q-122 0 -203.5 -68t-81.5 -171q0 -72 49 -126t155 -94l130 -47.5t130 -50.5q116 -48 183 -130.5t67 -195.5q0 -107 -49 -201
t-137 -162q-93 -72 -217 -110.5t-273 -38.5zM1201 1768q0 -42 -26 -69t-75 -47q-56 -23 -168 -64t-260 -103l-33 41l157.5 151t111.5 115q37 41 72.5 58.5t74.5 17.5q65 0 105.5 -27.5t40.5 -72.5z" />
    <glyph glyph-name="sacute" unicode="&#x15b;" horiz-adv-x="1059" 
d="M435 -33q-126 0 -208.5 20.5t-130.5 52.5q-49 32 -67 68.5t-18 68.5q0 58 43.5 101.5t115.5 43.5q60 0 100.5 -31t67.5 -78q25 -43 42 -95t24 -77q113 0 171 48.5t58 132.5q0 37 -17.5 62t-46.5 44q-29 18 -74 35t-89 32q-121 41 -191.5 113.5t-70.5 180.5
q0 64 29.5 120.5t92.5 104.5q62 46 157 73.5t222 27.5q76 0 141 -9t121 -33q53 -24 82.5 -62.5t29.5 -93.5t-41.5 -94.5t-108.5 -39.5q-58 0 -96.5 30t-62.5 71q-24 42 -38 86.5l-23 74.5q-70 -4 -127.5 -50.5t-57.5 -115.5q0 -42 13.5 -66t36.5 -40q26 -18 65.5 -33.5
t98.5 -35.5q136 -48 205 -115t69 -177q0 -72 -33.5 -138t-95.5 -110q-69 -48 -159 -72.5t-229 -24.5zM960 1460q0 -45 -20.5 -72.5t-65.5 -56.5q-49 -32 -155 -90.5t-240 -139.5l-42 38q88 117 136 186.5l83 118.5q43 61 82 82.5t97 21.5q48 0 86.5 -26t38.5 -62z" />
    <glyph glyph-name="Tcommaaccent" unicode="&#x21a;" horiz-adv-x="1401" 
d="M1591 1419l-94 -406h-77q-4 34 -15.5 85t-31.5 101q-21 52 -45.5 86t-58.5 40q-30 4 -76.5 7t-80.5 3h-50l-255 -1103q-4 -17 -6.5 -32.5t-2.5 -22.5q0 -24 9.5 -42.5t35.5 -29.5q24 -10 70 -19.5t76 -12.5l-17 -73h-791l17 73q28 2 82 8t77 14q40 16 60 43t28 64
l262 1133h-39q-38 0 -76.5 -2.5t-87.5 -7.5q-36 -5 -80.5 -43t-86.5 -83q-50 -56 -82.5 -101.5t-55.5 -84.5h-77l94 406h1375zM406 -444l10 64q42 3 80.5 9t62.5 18q26 12 45 33t28 56h-57q-78 0 -107 19.5t-29 63.5q0 48 36 81.5t119 33.5q75 0 113.5 -40.5t38.5 -105.5
q0 -115 -91.5 -173.5t-248.5 -58.5z" />
    <glyph glyph-name="tcommaaccent" unicode="&#x21b;" horiz-adv-x="854" 
d="M408 -26q-120 0 -192 58.5t-72 148.5q0 37 5 70t16 85l124 532h-183l24 103h187l72 303h324l-70 -303h271l-24 -103h-270l-122 -532q-7 -28 -13.5 -68t-6.5 -52q0 -57 31.5 -79t96.5 -22q31 0 85.5 12t76.5 20l-22 -90q-88 -39 -176.5 -61t-161.5 -22zM225 -444l10 64
q42 3 80.5 9t62.5 18q26 12 45 33t28 56h-57q-78 0 -107 19.5t-29 63.5q0 48 36 81.5t119 33.5q75 0 113.5 -40.5t38.5 -105.5q0 -115 -91.5 -173.5t-248.5 -58.5z" />
    <glyph glyph-name="Tcaron" unicode="&#x164;" horiz-adv-x="1401" 
d="M1591 1419l-94 -406h-77q-4 34 -15.5 85t-31.5 101q-21 52 -45.5 86t-58.5 40q-30 4 -76.5 7t-80.5 3h-50l-255 -1103q-4 -17 -6.5 -32.5t-2.5 -22.5q0 -24 9.5 -42.5t35.5 -29.5q24 -10 70 -19.5t76 -12.5l-17 -73h-791l17 73q28 2 82 8t77 14q40 16 60 43t28 64
l262 1133h-39q-38 0 -76.5 -2.5t-87.5 -7.5q-36 -5 -80.5 -43t-86.5 -83q-50 -56 -82.5 -101.5t-55.5 -84.5h-77l94 406h1375zM1339 1839l-182.5 -181.5l-110.5 -107.5q-32 -32 -60.5 -46.5t-88.5 -14.5q-57 0 -80.5 14.5t-43.5 42.5l-64.5 95.5l-130.5 197.5l34 29
l310 -198l385 198z" />
    <glyph glyph-name="tcaron" unicode="&#x165;" horiz-adv-x="854" 
d="M408 -26q-120 0 -192 58.5t-72 148.5q0 37 5 70t16 85l124 532h-183l24 103h187l72 303h324l-70 -303h271l-24 -103h-270l-122 -532q-7 -28 -13.5 -68t-6.5 -52q0 -57 31.5 -79t96.5 -22q31 0 85.5 12t76.5 20l-22 -90q-88 -39 -176.5 -61t-161.5 -22zM1029 1186
q-54 -44 -115 -74t-107 -46l-25 68q45 20 87.5 41.5t68.5 40.5q29 21 52 48.5t35 61.5h-50q-71 0 -97.5 27t-26.5 66q0 50 42 94.5t115 44.5q79 0 114 -35t35 -99q0 -76 -37.5 -136t-90.5 -102z" />
    <glyph glyph-name="Uring" unicode="&#x16e;" horiz-adv-x="1707" 
d="M755 -39q-260 0 -398.5 100.5t-138.5 283.5q0 32 4 64.5t12 70.5l164 709q5 21 7 33t2 21q0 42 -40 65t-139 38l17 73h760l-17 -73q-33 -2 -72 -8.5t-66 -14.5q-41 -12 -60 -39.5t-27 -62.5l-162 -699q-10 -42 -16 -91t-6 -82q0 -129 74 -190.5t216 -61.5
q172 0 297.5 114.5t168.5 303.5l112 486q14 62 20.5 106t6.5 74q0 38 -8.5 63t-24.5 40q-25 23 -82.5 40.5t-83.5 21.5l17 73h615l-17 -73q-30 -3 -86.5 -13.5t-100.5 -36.5q-44 -25 -74.5 -91.5t-60.5 -193.5l-123 -533q-58 -248 -243.5 -382.5t-446.5 -134.5zM1136 1405
q-114 0 -181 52t-67 140q0 120 97 195.5t231 75.5q108 0 178 -51.5t70 -139.5q0 -120 -95.5 -196t-232.5 -76zM1312 1680q0 53 -27.5 85.5t-82.5 32.5q-73 0 -117.5 -57.5t-44.5 -143.5q0 -56 27.5 -89t83.5 -33q75 0 118 58.5t43 146.5z" />
    <glyph glyph-name="uring" unicode="&#x16f;" horiz-adv-x="1403" 
d="M803 159h-7q-105 -96 -200 -142t-220 -46q-111 0 -171.5 61t-60.5 148q0 31 3.5 63t18.5 90l75 281q7 28 16.5 76.5t9.5 71.5q0 55 -22.5 77.5t-87.5 22.5q-32 0 -65.5 -10t-57.5 -19l22 90q81 33 155 56.5t140 23.5q119 0 183.5 -59.5t64.5 -147.5q0 -18 -4 -66t-16 -89
l-73 -266q-10 -35 -16 -75.5t-6 -58.5q0 -47 22 -74.5t76 -27.5q39 0 103.5 32.5t127.5 92.5l165 722l319 14l12 -14l-142 -615q-7 -29 -16.5 -77t-9.5 -71q0 -58 25.5 -79t89.5 -21q30 0 68 10.5t55 18.5l-22 -90q-99 -39 -158 -59.5t-137 -20.5q-110 0 -176 49.5
t-83 127.5zM738 1104q-114 0 -181 52t-67 140q0 120 97 195.5t231 75.5q108 0 178 -51.5t70 -139.5q0 -120 -95.5 -196t-232.5 -76zM914 1379q0 53 -27.5 85.5t-82.5 32.5q-73 0 -117.5 -57.5t-44.5 -143.5q0 -56 27.5 -89t83.5 -33q75 0 118 58.5t43 146.5z" />
    <glyph glyph-name="Uhungarumlaut" unicode="&#x170;" horiz-adv-x="1707" 
d="M755 -39q-260 0 -398.5 100.5t-138.5 283.5q0 32 4 64.5t12 70.5l164 709q5 21 7 33t2 21q0 42 -40 65t-139 38l17 73h760l-17 -73q-33 -2 -72 -8.5t-66 -14.5q-41 -12 -60 -39.5t-27 -62.5l-162 -699q-10 -42 -16 -91t-6 -82q0 -129 74 -190.5t216 -61.5
q172 0 297.5 114.5t168.5 303.5l112 486q14 62 20.5 106t6.5 74q0 38 -8.5 63t-24.5 40q-25 23 -82.5 40.5t-83.5 21.5l17 73h615l-17 -73q-30 -3 -86.5 -13.5t-100.5 -36.5q-44 -25 -74.5 -91.5t-60.5 -193.5l-123 -533q-58 -248 -243.5 -382.5t-446.5 -134.5zM1666 1652
l-154 -57.5t-282 -109.5l-28 41l171 158l112 108q42 41 79.5 58.5t75.5 17.5q63 0 101 -25t38 -66q0 -46 -30 -75.5t-83 -49.5zM1243 1773q0 -42 -29.5 -70.5t-83.5 -50.5l-146.5 -57l-289.5 -110l-28 41q118 106 174.5 161l108.5 105q42 40 79.5 58t75.5 18q67 0 103 -24.5
t36 -70.5z" />
    <glyph glyph-name="uhungarumlaut" unicode="&#x171;" horiz-adv-x="1403" 
d="M803 159h-7q-105 -96 -200 -142t-220 -46q-111 0 -171.5 61t-60.5 148q0 31 3.5 63t18.5 90l75 281q7 28 16.5 76.5t9.5 71.5q0 55 -22.5 77.5t-87.5 22.5q-32 0 -65.5 -10t-57.5 -19l22 90q81 33 155 56.5t140 23.5q119 0 183.5 -59.5t64.5 -147.5q0 -18 -4 -66t-16 -89
l-73 -266q-10 -35 -16 -75.5t-6 -58.5q0 -47 22 -74.5t76 -27.5q39 0 103.5 32.5t127.5 92.5l165 722l319 14l12 -14l-142 -615q-7 -29 -16.5 -77t-9.5 -71q0 -58 25.5 -79t89.5 -21q30 0 68 10.5t55 18.5l-22 -90q-99 -39 -158 -59.5t-137 -20.5q-110 0 -176 49.5
t-83 127.5zM1248 1338q-57 -38 -141 -89.5t-232 -154.5l-30 35q96 111 156.5 193.5t96.5 127.5q61 75 103 86.5t82 11.5q34 0 60 -21t26 -50q0 -41 -38.5 -76t-82.5 -63zM844 1338q-57 -38 -141 -89.5t-232 -154.5l-30 35q96 111 156.5 193.5t96.5 127.5q61 75 103 86.5
t82 11.5q34 0 60 -21.5t26 -50.5q0 -41 -38.5 -75.5t-82.5 -62.5z" />
    <glyph glyph-name="Zacute" unicode="&#x179;" horiz-adv-x="1412" 
d="M1563 1419l-14 -61l-1186 -1271h339q168 0 232.5 16.5t100.5 50.5q66 62 141.5 153.5t131.5 171.5h75l-159 -479h-1322l15 61l1186 1271h-291q-95 0 -138 -5.5t-85 -22.5q-46 -16 -120 -91t-193 -227h-81l144 433h1224zM1291 1768q0 -42 -26 -69t-75 -47
q-56 -23 -168 -64t-260 -103l-33 41l157.5 151t111.5 115q37 41 72.5 58.5t74.5 17.5q65 0 105.5 -27.5t40.5 -72.5z" />
    <glyph glyph-name="zacute" unicode="&#x17a;" horiz-adv-x="1059" 
d="M1084 986l-15 -72l-708 -830q36 -1 72.5 -1.5t84.5 -0.5q36 0 72.5 1t96.5 6q39 4 68 28t47 57q14 25 49.5 83.5t56.5 105.5h70l-71 -363h-934l18 83l697 819h-118q-87 0 -124.5 -3t-86.5 -21q-34 -13 -79 -74t-77 -136h-71l62 318h890zM967 1460q0 -45 -20.5 -72.5
t-65.5 -56.5q-49 -32 -155 -90.5t-240 -139.5l-42 38q88 117 136 186.5l83 118.5q43 61 82 82.5t97 21.5q48 0 86.5 -26t38.5 -62z" />
    <glyph glyph-name="Zdotaccent" unicode="&#x17b;" horiz-adv-x="1412" 
d="M1563 1419l-14 -61l-1186 -1271h339q168 0 232.5 16.5t100.5 50.5q66 62 141.5 153.5t131.5 171.5h75l-159 -479h-1322l15 61l1186 1271h-291q-95 0 -138 -5.5t-85 -22.5q-46 -16 -120 -91t-193 -227h-81l144 433h1224zM1083 1681q0 -70 -49 -119t-119 -49t-119 49
t-49 119t49 119t119 49t119 -49t49 -119z" />
    <glyph glyph-name="zdotaccent" unicode="&#x17c;" horiz-adv-x="1059" 
d="M1084 986l-15 -72l-708 -830q36 -1 72.5 -1.5t84.5 -0.5q36 0 72.5 1t96.5 6q39 4 68 28t47 57q14 25 49.5 83.5t56.5 105.5h70l-71 -363h-934l18 83l697 819h-118q-87 0 -124.5 -3t-86.5 -21q-34 -13 -79 -74t-77 -136h-71l62 318h890zM837 1349q0 -70 -49 -119
t-119 -49t-119 49t-49 119t49 119t119 49t119 -49t49 -119z" />
    <glyph glyph-name="Gamma" unicode="&#x393;" horiz-adv-x="1342" 
d="M1532 1419l-98 -425h-75q-14 107 -64.5 212t-110.5 117q-35 6 -77.5 8.5t-92.5 2.5h-198l-256 -1108q-3 -11 -5.5 -26.5t-2.5 -29.5q0 -52 47.5 -68.5t150.5 -28.5l-17 -73h-788l17 73q35 3 83.5 10t66.5 13q40 13 59.5 39.5t27.5 62.5l228 989q3 14 5.5 28.5t2.5 29.5
q0 40 -42 63.5t-138 37.5l17 73h1260z" />
    <glyph glyph-name="Theta" unicode="&#x398;" horiz-adv-x="1685" 
d="M1667 875q0 -178 -68.5 -347t-190.5 -292q-125 -127 -294.5 -201t-383.5 -74q-280 0 -461.5 161.5t-181.5 422.5q0 190 73.5 357.5t202.5 292.5q127 123 297 193t358 70q279 0 464 -158t185 -425zM1148 342q68 130 104.5 294t36.5 336q0 179 -76 286t-217 107
q-121 0 -219 -76.5t-169 -207.5q-68 -125 -105.5 -294t-37.5 -341q0 -175 76 -283.5t218 -108.5q123 0 222.5 80t166.5 208zM1193 954l-113 -490h-62q0 8 0.5 15.5t0.5 13.5q0 22 -2.5 39t-11.5 33q-10 17 -38 24t-117 7t-119.5 -6t-48.5 -25q-23 -24 -32 -41.5t-27 -59.5
h-62l113 490h62q0 -8 -0.5 -15t-0.5 -13q0 -26 2.5 -41t11.5 -30q11 -19 37.5 -25t116.5 -6q82 0 118.5 7t50.5 24q21 25 31.5 41t27.5 58h62z" />
    <glyph glyph-name="Phi" unicode="&#x3a6;" horiz-adv-x="1867" 
d="M1864 798q0 -108 -46 -216t-142 -191q-101 -86 -245 -137t-361 -51h-39q-4 -20 -7.5 -42t-3.5 -28q0 -45 42 -60t139 -20l-17 -73h-744l17 73q25 2 71.5 6.5t66.5 12.5q35 13 54 35.5t26 59.5l7 34q-273 0 -433.5 115t-160.5 323q0 114 43 216t142 189q93 82 246 133.5
t359 51.5h42q3 15 5 26t2 23q0 43 -40 62t-128 30l17 73h735l-17 -73q-29 -1 -68.5 -5.5t-70.5 -14.5q-38 -12 -55.5 -38t-31.5 -82q282 0 439 -109.5t157 -322.5zM1399 486q46 84 69.5 182t23.5 194q0 47 -10.5 101t-35.5 92q-27 40 -74 64.5t-122 24.5l-197 -856h37
q104 0 182 55t127 143zM899 1144h-37q-106 0 -182.5 -56t-126.5 -142q-47 -82 -70 -183.5t-23 -190.5q0 -57 8 -101t38 -91q28 -43 77 -67.5t119 -24.5z" />
    <glyph glyph-name="alpha" unicode="&#x3b1;" horiz-adv-x="1391" 
d="M804 182q-80 -122 -168.5 -168t-215.5 -46q-154 0 -254.5 109.5t-100.5 290.5q0 127 44.5 242t123.5 207q76 89 185 143.5t231 54.5q138 0 211 -56.5t95 -152.5h9l66 180l332 14l12 -14q-27 -76 -86.5 -217l-128.5 -301q-6 -47 -10 -105.5t-4 -89.5q0 -72 25 -111.5
t75 -39.5q35 0 72 8.5t54 16.5l-22 -90q-91 -36 -164 -58.5t-157 -22.5q-106 0 -161 43.5t-55 131.5v14.5v15.5zM862 522q8 37 11.5 74t3.5 78t-7.5 93t-22.5 80q-19 36 -47 55t-80 19q-64 0 -118.5 -54t-94.5 -142q-39 -84 -61.5 -196.5t-22.5 -219.5q0 -108 30.5 -165
t107.5 -57q92 0 178 127t123 308z" />
    <glyph glyph-name="delta" unicode="&#x3b4;" horiz-adv-x="1302" 
d="M1235 599q0 -131 -49.5 -247t-140.5 -202q-96 -89 -219 -135.5t-266 -46.5q-223 0 -358 114.5t-135 304.5q0 118 46.5 217t123.5 174q75 72 176 117t203 58v6q-173 63 -239.5 128t-66.5 159q0 132 151 218t407 86q208 0 325 -62t117 -166q0 -81 -48.5 -130.5
t-130.5 -49.5q-78 0 -117.5 35t-39.5 90q0 44 16 88.5l28 77.5q-20 15 -52.5 25.5t-80.5 10.5q-88 0 -155.5 -52.5t-67.5 -137.5q0 -37 17.5 -66.5t56.5 -61.5q31 -26 101 -69l138 -83q138 -82 199 -174.5t61 -225.5zM803 238q42 90 62 182t20 186q0 101 -43 174t-130 115
q-59 -9 -112.5 -62t-92.5 -131q-41 -81 -64.5 -190.5t-23.5 -226.5q0 -109 37 -175t120 -66q72 0 131 56.5t96 137.5z" />
    <glyph glyph-name="epsilon" unicode="&#x3b5;" horiz-adv-x="1097" 
d="M1085 784q0 -70 -45.5 -114.5t-129.5 -44.5q-69 0 -114 34t-45 91q0 41 22 85.5l38 76.5q-4 8 -25.5 18.5t-63.5 10.5q-91 0 -152 -68.5t-61 -178.5q0 -71 36 -104t136 -33h56l-18 -95h-81q-114 0 -174.5 -56.5t-60.5 -154.5q0 -79 58.5 -117.5t148.5 -38.5
q98 0 196.5 62.5t165.5 156.5l66 -52q-46 -60 -99 -114t-122 -94q-73 -42 -151 -64t-197 -22q-203 0 -318 72.5t-115 188.5q0 63 23.5 113t69.5 90q42 36 100 56t122 24l2 10q-100 19 -152.5 68.5t-52.5 126.5q0 76 43 134t118 96q72 36 168.5 53t198.5 17q205 0 307 -58
t102 -175z" />
    <glyph glyph-name="sigma" unicode="&#x3c3;" horiz-adv-x="1372" 
d="M1235 589q0 -119 -46 -234.5t-138 -201.5q-95 -89 -223 -137t-286 -48q-213 0 -344 113.5t-131 309.5q0 133 49.5 247t138.5 199q88 82 216 130.5t277 48.5q89 0 154.5 -10.5t100.5 -19.5h459l-38 -164h-265l-1 -5q38 -47 57.5 -100.5t19.5 -127.5zM883 712
q0 115 -39 171t-115 56q-73 0 -137 -58t-108 -184q-35 -99 -50 -214.5t-15 -206.5q0 -121 39.5 -175.5t116.5 -54.5q82 0 142 67t95 165q35 96 53 212.5t18 221.5z" />
    <glyph glyph-name="tau" unicode="&#x3c4;" horiz-adv-x="994" 
d="M884 147l-22 -90q-88 -39 -172 -61t-156 -22q-120 0 -190 58.5t-70 148.5q0 37 4.5 69t15.5 85l114 485h-65q-54 0 -93 -19t-68 -52q-24 -27 -42 -65.5t-32 -78.5h-73q3 18 10 55t17 75q31 107 106.5 179t197.5 72h726l-38 -166h-319l-111 -484q-7 -29 -13.5 -68.5
t-6.5 -51.5q0 -57 31.5 -79t96.5 -22q29 0 78 11.5t74 20.5z" />
    <glyph glyph-name="phi" unicode="&#x3c6;" horiz-adv-x="1701" 
d="M1634 614q0 -156 -70 -276.5t-176 -198.5q-107 -78 -239.5 -122t-259.5 -48l-89 -413h-328l89 413q-240 12 -367 128t-127 300q0 234 158 394t424 217l26 -78q-108 -67 -179 -237.5t-71 -368.5q0 -118 38.5 -193t115.5 -78l150 684q17 76 55.5 128.5t95.5 86.5
q52 30 124 46t159 16q96 0 184 -26t150 -74q65 -51 101 -123.5t36 -176.5zM1284 707q0 111 -31 170.5t-77 59.5q-39 0 -62.5 -28t-38.5 -92l-168 -764q72 7 140.5 58.5t120.5 138.5q54 90 85 202.5t31 254.5z" />
    <glyph glyph-name="underscoredbl" unicode="&#x2017;" horiz-adv-x="1440" 
d="M1228 -444h-1450l27 120h1450zM1283 -222h-1450l27 120h1450z" />
    <glyph glyph-name="exclamdbl" unicode="&#x203c;" horiz-adv-x="1361" 
d="M697 1106l-119 -261t-158 -383h-77q12 255 11.5 412t-0.5 227q0 59 2 93t10 70q21 91 89 137t146 46q68 0 112.5 -41t44.5 -102q0 -32 -13.5 -78.5t-47.5 -119.5zM509 156q0 -76 -57.5 -130.5t-134.5 -54.5q-78 0 -135.5 54.5t-57.5 130.5t57.5 131.5t135.5 55.5
q77 0 134.5 -55.5t57.5 -131.5zM1286 1106l-119 -261t-158 -383h-77q12 255 11.5 412t-0.5 227q0 59 2 93t10 70q21 91 89 137t146 46q68 0 112.5 -41t44.5 -102q0 -32 -13.5 -78.5t-47.5 -119.5zM1098 156q0 -76 -57.5 -130.5t-134.5 -54.5q-78 0 -135.5 54.5t-57.5 130.5
t57.5 131.5t135.5 55.5q77 0 134.5 -55.5t57.5 -131.5z" />
    <glyph glyph-name="nsuperior" unicode="&#x207f;" horiz-adv-x="1130" 
d="M1220 762l-19 -78q-84 -35 -136 -50.5t-118 -15.5q-103 0 -162 49t-59 121q0 21 2 52.5t14 75.5l64 218q12 43 15.5 69.5t3.5 36.5q0 42 -24.5 61t-62.5 19q-44 0 -94 -30.5t-85 -63.5l-144 -593h-289l124 505q7 29 14.5 65.5t7.5 51.5q0 45 -19 63.5t-75 18.5
q-30 0 -56.5 -8l-49.5 -15l19 78q61 24 133 44.5t121 20.5q107 0 156 -39.5t66 -105.5h6q85 73 164 113.5t182 40.5q96 0 149.5 -50t53.5 -121q0 -20 -3 -54.5t-14 -71.5l-68 -231q-7 -22 -14.5 -61t-7.5 -57q0 -47 21.5 -64.5t77.5 -17.5q23 0 53.5 7.5t52.5 16.5z" />
    <glyph glyph-name="peseta" unicode="&#x20a7;" horiz-adv-x="2777" 
d="M941 844q48 64 69 137t21 148q0 108 -49 156t-162 48h-31l-146 -630q100 0 175 38t123 103zM1790 127q-4 12 -5.5 24t-1.5 22q0 55 39 99t104 44q53 0 89 -32t57 -74q22 -43 36 -95t19 -74q96 0 148.5 47.5t52.5 130.5q0 51 -32.5 87t-159.5 85q-113 44 -170.5 111
t-57.5 171q0 62 27.5 118.5t82.5 103.5q52 44 138 72t191 28q71 0 126.5 -9t103.5 -32q47 -24 72 -58.5t25 -92.5q0 -49 -35.5 -91.5t-99.5 -42.5q-51 0 -84 29t-54 70t-31.5 82l-19.5 77q-61 -4 -111.5 -51.5t-50.5 -114.5q0 -72 35 -100t146 -72q123 -49 180.5 -113.5
t57.5 -166.5q0 -156 -119 -249t-334 -93q-139 0 -218 29.5t-114 70.5q-82 -40 -163 -67t-156 -27q-110 0 -159 44.5t-49 130.5q0 30 3 52t11 59l138 598h-164q-95 -129 -241.5 -186t-366.5 -57h-52l-89 -385q-3 -9 -5.5 -27.5t-2.5 -27.5q0 -52 39.5 -70t136.5 -31l-17 -73
h-727l17 73q28 3 73.5 8.5t66.5 13.5q39 15 57.5 41.5t25.5 61.5l229 989q3 13 6.5 31.5t3.5 28.5q0 44 -40 63.5t-129 35.5l17 73h673q222 0 327 -71t102 -204q0 -41 -14.5 -96.5t-28.5 -86.5h132l68 297h292l-68 -297h210l-25 -104h-209l-118 -514q-13 -56 -18 -91t-5 -57
q0 -50 25 -64t87 -14q15 0 37.5 3t37.5 7z" />
    <glyph glyph-name="IJ" unicode="&#x132;" horiz-adv-x="2040" 
d="M-61 0l17 73q29 1 79 6.5t77 14.5q39 13 59.5 39.5t28.5 61.5l229 992q5 21 7 35t2 21q0 42 -46.5 65.5t-142.5 37.5l17 73h787l-17 -73q-32 -2 -82 -9.5t-75 -15.5q-41 -13 -60.5 -40.5t-27.5 -61.5l-229 -993q-4 -17 -6.5 -32t-2.5 -23q0 -50 46.5 -69.5t143.5 -28.5
l-17 -73h-787zM1768 432q-26 -112 -85 -201t-139 -149q-89 -64 -173.5 -92t-178.5 -28q-188 0 -295.5 89t-107.5 243q0 93 56.5 156.5t141.5 63.5q89 0 138 -50.5t49 -126.5q0 -40 -17.5 -78t-65.5 -83l-61 -57v-14q9 -24 36 -36.5t56 -12.5q98 0 168.5 80.5t114.5 266.5
l181 784q5 20 7 34.5t2 21.5q0 42 -43.5 65.5t-139.5 37.5l17 73h766l-17 -73q-31 -2 -74 -9.5t-67 -15.5q-42 -13 -60.5 -38t-27.5 -64z" />
    <glyph glyph-name="ij" unicode="&#x133;" horiz-adv-x="1397" 
d="M713 143l-22 -90q-99 -39 -158 -59.5t-137 -20.5q-120 0 -186.5 58.5t-66.5 148.5q0 35 5 71.5t16 82.5l82 292q11 42 18.5 79.5t7.5 68.5q0 56 -23 78t-88 22q-32 0 -65.5 -10t-57.5 -19l22 90q81 33 155 56.5t140 23.5q119 0 183.5 -57.5t64.5 -149.5q0 -19 -4.5 -67
t-16.5 -88l-82 -291q-10 -35 -18 -80t-8 -68q0 -58 26 -79t90 -21q30 0 68 10.5t55 18.5zM734 1364q0 -76 -57.5 -129.5t-138.5 -53.5t-139 53.5t-58 129.5t58 130t139 54t138.5 -54t57.5 -130zM1277 808q0 -19 -2 -52t-10 -73l-62 -324t-71 -299q-27 -102 -81 -191
t-134 -161q-83 -74 -168.5 -113t-191.5 -39q-90 0 -145.5 18t-86.5 46t-42 62t-11 67q0 59 42 103t111 44q54 0 93.5 -28.5t67.5 -68.5q28 -39 49.5 -87l33.5 -75q33 58 64.5 148.5t64.5 236.5q41 181 72.5 337l58.5 300l9.5 56t5.5 59q0 50 -25 75t-89 25q-33 0 -68 -10.5
l-60 -18.5l22 90q81 33 159.5 56.5t144.5 23.5q119 0 184 -57.5t65 -149.5zM1392 1364q0 -76 -57.5 -129.5t-138.5 -53.5t-139 53.5t-58 129.5t58 130t139 54t138.5 -54t57.5 -130z" />
    <glyph glyph-name="napostrophe" unicode="&#x149;" horiz-adv-x="1704" 
d="M1675 153l-22 -90q-99 -39 -158 -59.5t-137 -20.5q-119 0 -185 59.5t-66 147.5q0 24 2.5 61.5t16.5 93.5l72 266q11 43 16.5 77.5t5.5 56.5q0 48 -23 75t-78 27q-34 0 -97 -26.5t-141 -98.5l-165 -722h-331l142 615l15.5 73t9.5 75q0 57 -23.5 78.5t-85.5 21.5
q-32 0 -65.5 -10t-57.5 -19l22 90q81 33 155 56.5t140 23.5q118 0 176.5 -46.5t77.5 -130.5h7q98 89 202.5 138.5t222.5 49.5q111 0 173.5 -61t62.5 -148q0 -23 -3.5 -64.5t-16.5 -88.5l-76 -281q-10 -35 -18 -80t-8 -68q0 -58 25.5 -79t89.5 -21q30 0 68 10.5t55 18.5z
M504 1349q0 -157 -132.5 -301t-323.5 -220l-28 71q46 20 104.5 54.5t93.5 66.5q40 36 72.5 81t50.5 103h-56q-87 0 -130 33t-43 92q0 76 64 138.5t152 62.5q93 0 134.5 -50.5t41.5 -130.5z" />
    <glyph glyph-name="minute" unicode="&#x2032;" horiz-adv-x="658" 
d="M655 1216l-134.5 -161l-210.5 -254h-92l90 297.5l61 194.5q29 89 81 126t137 37q54 0 89 -32t35 -76q0 -31 -15.5 -66t-40.5 -66z" />
    <glyph glyph-name="second" unicode="&#x2033;" horiz-adv-x="1091" 
d="M1102 1216l-144.5 -166l-214.5 -249h-92l101 298l67 194q31 88 85 125.5t139 37.5q54 0 87 -31.5t33 -75.5q0 -33 -17 -67.5t-44 -65.5zM655 1216l-134.5 -161l-210.5 -254h-92l90 297.5l61 194.5q29 89 81 126t137 37q54 0 89 -32t35 -76q0 -31 -15.5 -66t-40.5 -66z
" />
    <glyph glyph-name="afii61248" unicode="&#x2105;" horiz-adv-x="1801" 
d="M902 912q-60 -86 -157 -144.5t-213 -58.5q-168 0 -256.5 80.5t-88.5 219.5q0 89 34 169.5t99 145.5q61 60 155.5 97.5t201.5 37.5q121 0 187 -45t66 -123q0 -71 -38.5 -105.5t-101.5 -34.5q-50 0 -85 24t-35 60q0 37 18 74.5t26 57.5q-7 14 -17 19t-28 5q-45 0 -82 -24
t-69 -73q-30 -45 -49 -114.5t-19 -150.5q0 -94 46 -149t121 -55q67 0 125 34.5t111 103.5zM1692 398q0 -180 -134 -306.5t-324 -126.5q-149 0 -244 87t-95 228q0 182 135.5 307.5t322.5 125.5q150 0 244.5 -87t94.5 -228zM1437 472q0 82 -22 126t-75 44q-84 0 -137 -127.5
t-53 -314.5q0 -78 23 -121t76 -43q81 0 134.5 124.5t53.5 311.5zM1745 1428l-1453 -1428h-155l1450 1428h158z" />
    <glyph glyph-name="afii61289" unicode="&#x2113;" horiz-adv-x="662" 
d="M609 1255q0 -139 -64 -273t-224 -282v-488q0 -85 27 -109.5t58 -24.5q41 0 75.5 16t77.5 60l36 -55q-61 -65 -124 -95t-134 -30q-90 0 -146 60.5t-56 165.5v339l-64 -57l-71 77l135 119v558q0 151 76.5 231.5t186.5 80.5q103 0 157 -77.5t54 -215.5zM497 1242
q0 107 -26 154.5t-63 47.5q-35 0 -61 -40.5t-26 -126.5v-436q90 92 133 188.5t43 212.5z" />
    <glyph glyph-name="H22073" unicode="&#x25a1;" horiz-adv-x="1237" 
d="M146 944h944v-944h-944v944zM222 868v-792h792v792h-792z" />
    <glyph glyph-name="H18543" unicode="&#x25aa;" horiz-adv-x="726" 
d="M594 908v-463h-463v463h463z" />
    <glyph glyph-name="H18551" unicode="&#x25ab;" horiz-adv-x="726" 
d="M594 908v-463h-463v463h463zM518 832h-311v-311h311v311z" />
    <glyph glyph-name="H18533" unicode="&#x25cf;" horiz-adv-x="1237" 
d="M177 576q0 183 129 312t312 129q182 0 311 -129t129 -312q0 -182 -129 -311t-311 -129q-183 0 -312 129t-129 311z" />
    <glyph glyph-name="openbullet" unicode="&#x25e6;" horiz-adv-x="726" 
d="M363 928q104 0 177.5 -73.5t73.5 -177.5t-73.5 -177.5t-177.5 -73.5t-177.5 73.5t-73.5 177.5t73 177.5t178 73.5zM363 852q-73 0 -124 -51.5t-51 -123.5q0 -73 51.5 -124t123.5 -51t123.5 51t51.5 124q0 72 -51 123.5t-124 51.5z" />
    <glyph glyph-name="Amacron" unicode="&#x100;" horiz-adv-x="1553" 
d="M892 571l-87 517l-324 -517h411zM732 0l17 73q103 8 160.5 25.5t57.5 38.5q0 18 -2 31t-5 30l-50 279h-489l-60.5 -97.5l-61.5 -103.5q-38 -68 -44.5 -93t-6.5 -32q0 -30 47 -49.5t144 -28.5l-17 -73h-596l17 73q29 2 73 10t74 24q42 22 79 57t69 85l373 576.5l394 613.5
h198l127.5 -741t88.5 -490q5 -30 19.5 -54.5t46.5 -46.5q24 -16 58.5 -24t64.5 -10l-17 -73h-759zM1357 1646h-748l34 171h748z" />
    <glyph glyph-name="amacron" unicode="&#x101;" horiz-adv-x="1352" 
d="M760 125h-8l-66.5 -55t-79.5 -50q-42 -22 -88.5 -36.5t-102.5 -14.5q-174 0 -262 102.5t-88 280.5q0 137 49 257t131 211q83 90 194 142.5t234 52.5q90 0 157.5 -21t110.5 -57l307 63l14 -16l-147 -615q-8 -31 -17 -77.5t-9 -70.5q0 -57 26 -78.5t90 -21.5q28 0 67.5 11
t55.5 18l-22 -90q-99 -39 -158.5 -59.5t-137.5 -20.5q-103 0 -164.5 40.5t-85.5 104.5zM879 759q0 22 -6 52t-21 51q-18 26 -47 39.5t-72 13.5q-66 0 -121.5 -47.5t-98.5 -126.5q-42 -78 -66 -181.5t-24 -211.5q0 -49 7.5 -91t24.5 -71q18 -31 48.5 -48t76.5 -17
q47 0 90.5 27.5t80.5 67.5zM1139 1247h-748l34 171h748z" />
    <glyph glyph-name="Ccircumflex" unicode="&#x108;" horiz-adv-x="1465" 
d="M721 -38q-137 0 -254 40.5t-202 116.5q-84 76 -131 185.5t-47 247.5q0 183 67.5 345t190.5 289q118 122 288.5 196.5t362.5 74.5q116 0 235 -28t178 -65l75 55h87l-111 -518h-88q-20 227 -120.5 345.5t-258.5 118.5q-116 0 -214 -69t-174 -212q-62 -118 -94.5 -273.5
t-32.5 -291.5q0 -200 97 -311t260 -111q143 0 265 80t235 231l77 -52q-49 -76 -117 -149.5t-155 -127.5q-91 -57 -187.5 -87t-231.5 -30zM1339 1513l-34 -29l-311 203l-384 -203l-32 29l196 198t96 96q28 31 60.5 46t88.5 15q55 0 79.5 -14t44.5 -43l65 -98z" />
    <glyph glyph-name="ccircumflex" unicode="&#x109;" horiz-adv-x="1097" 
d="M557 -33q-230 0 -358.5 115t-128.5 316q0 121 41 229.5t126 197.5q79 84 203 137t277 53q177 0 270.5 -65t93.5 -179q0 -31 -10 -69t-30 -64q-25 -32 -54.5 -49t-88.5 -17q-78 0 -121.5 38.5t-43.5 80.5q0 50 21 99t53 103q-9 11 -36.5 27t-71.5 16q-117 0 -194 -141.5
t-77 -350.5q0 -159 58.5 -241t166.5 -82q110 0 183.5 42.5t150.5 145.5l72 -61q-82 -127 -217 -204t-285 -77zM1039 1132l-54 -29l-278 254l-358 -254l-51 29l172 220.5t116 134.5q28 31 60.5 46t88.5 15q58 0 81.5 -14.5t42.5 -42.5q39 -58 82 -149z" />
    <glyph glyph-name="Cdotaccent" unicode="&#x10a;" horiz-adv-x="1465" 
d="M721 -38q-137 0 -254 40.5t-202 116.5q-84 76 -131 185.5t-47 247.5q0 183 67.5 345t190.5 289q118 122 288.5 196.5t362.5 74.5q116 0 235 -28t178 -65l75 55h87l-111 -518h-88q-20 227 -120.5 345.5t-258.5 118.5q-116 0 -214 -69t-174 -212q-62 -118 -94.5 -273.5
t-32.5 -291.5q0 -200 97 -311t260 -111q143 0 265 80t235 231l77 -52q-49 -76 -117 -149.5t-155 -127.5q-91 -57 -187.5 -87t-231.5 -30zM1153 1681q0 -70 -49 -119t-119 -49t-119 49t-49 119t49 119t119 49t119 -49t49 -119z" />
    <glyph glyph-name="cdotaccent" unicode="&#x10b;" horiz-adv-x="1097" 
d="M557 -33q-230 0 -358.5 115t-128.5 316q0 121 41 229.5t126 197.5q79 84 203 137t277 53q177 0 270.5 -65t93.5 -179q0 -31 -10 -69t-30 -64q-25 -32 -54.5 -49t-88.5 -17q-78 0 -121.5 38.5t-43.5 80.5q0 50 21 99t53 103q-9 11 -36.5 27t-71.5 16q-117 0 -194 -141.5
t-77 -350.5q0 -159 58.5 -241t166.5 -82q110 0 183.5 42.5t150.5 145.5l72 -61q-82 -127 -217 -204t-285 -77zM875 1349q0 -70 -49 -119t-119 -49t-119 49t-49 119t49 119t119 49t119 -49t49 -119z" />
    <glyph glyph-name="Emacron" unicode="&#x112;" horiz-adv-x="1477" 
d="M1520 1419l-83 -362h-76q-14 95 -67.5 174.5t-112.5 92.5q-28 7 -81 8.5t-88 1.5h-196l-128 -555h136q75 0 117.5 16.5t79.5 46.5q28 23 65.5 82.5t53.5 101.5h76l-137 -592h-76v37q0 45 -9.5 92.5t-22.5 66.5q-26 38 -69 50.5t-98 12.5h-136l-91 -395q-7 -30 -13 -65
t-6 -50q0 -64 42 -80.5t155 -16.5q144 0 210 12.5t99 38.5q60 50 144 153t114 152h73l-129 -442h-1321l17 73q25 1 74.5 6.5t73.5 13.5q39 13 59.5 40t28.5 62l229 992q5 21 7 35t2 21q0 42 -42.5 65.5t-138.5 37.5l17 73h1248zM1309 1658h-748l34 171h748z" />
    <glyph glyph-name="emacron" unicode="&#x113;" horiz-adv-x="1141" 
d="M546 -33q-120 0 -210.5 32.5t-149.5 90.5q-58 58 -87 135t-29 170q0 118 44 229t131 200q82 85 208 138t278 53q179 0 272.5 -57t93.5 -171q0 -109 -81 -187.5t-220 -116.5q-110 -33 -187.5 -47t-189.5 -26q2 -44 12 -99t30 -94q24 -45 68 -71.5t112 -26.5
q118 0 200.5 45.5t157.5 144.5l73 -61q-90 -128 -230.5 -204.5t-295.5 -76.5zM772 759q0 85 -31 130.5t-86 45.5q-77 0 -145.5 -125.5t-87.5 -317.5q59 7 117 18t92 26q75 33 108 85t33 138zM1069 1247h-748l34 171h748z" />
    <glyph glyph-name="Ebreve" unicode="&#x114;" horiz-adv-x="1477" 
d="M1520 1419l-83 -362h-76q-14 95 -67.5 174.5t-112.5 92.5q-28 7 -81 8.5t-88 1.5h-196l-128 -555h136q75 0 117.5 16.5t79.5 46.5q28 23 65.5 82.5t53.5 101.5h76l-137 -592h-76v37q0 45 -9.5 92.5t-22.5 66.5q-26 38 -69 50.5t-98 12.5h-136l-91 -395q-7 -30 -13 -65
t-6 -50q0 -64 42 -80.5t155 -16.5q144 0 210 12.5t99 38.5q60 50 144 153t114 152h73l-129 -442h-1321l17 73q25 1 74.5 6.5t73.5 13.5q39 13 59.5 40t28.5 62l229 992q5 21 7 35t2 21q0 42 -42.5 65.5t-138.5 37.5l17 73h1248zM1340 1852q-45 -138 -147 -230t-264 -92
q-132 0 -204.5 77.5t-72.5 199.5q0 12 1 24t1 21l74 16q8 -73 61.5 -119t173.5 -46q111 0 186.5 42t122.5 123z" />
    <glyph glyph-name="ebreve" unicode="&#x115;" horiz-adv-x="1141" 
d="M546 -33q-120 0 -210.5 32.5t-149.5 90.5q-58 58 -87 135t-29 170q0 118 44 229t131 200q82 85 208 138t278 53q179 0 272.5 -57t93.5 -171q0 -109 -81 -187.5t-220 -116.5q-110 -33 -187.5 -47t-189.5 -26q2 -44 12 -99t30 -94q24 -45 68 -71.5t112 -26.5
q118 0 200.5 45.5t157.5 144.5l73 -61q-90 -128 -230.5 -204.5t-295.5 -76.5zM772 759q0 85 -31 130.5t-86 45.5q-77 0 -145.5 -125.5t-87.5 -317.5q59 7 117 18t92 26q75 33 108 85t33 138zM1079 1532q-59 -194 -155.5 -295.5t-244.5 -101.5q-133 0 -197.5 88.5
t-64.5 252.5q0 16 1 30.5t1 25.5l74 16q6 -47 16.5 -91.5t32.5 -76.5q24 -34 61 -53t107 -19q66 0 112 18.5t79 50.5q34 32 61 78t49 93z" />
    <glyph glyph-name="Edotaccent" unicode="&#x116;" horiz-adv-x="1477" 
d="M1520 1419l-83 -362h-76q-14 95 -67.5 174.5t-112.5 92.5q-28 7 -81 8.5t-88 1.5h-196l-128 -555h136q75 0 117.5 16.5t79.5 46.5q28 23 65.5 82.5t53.5 101.5h76l-137 -592h-76v37q0 45 -9.5 92.5t-22.5 66.5q-26 38 -69 50.5t-98 12.5h-136l-91 -395q-7 -30 -13 -65
t-6 -50q0 -64 42 -80.5t155 -16.5q144 0 210 12.5t99 38.5q60 50 144 153t114 152h73l-129 -442h-1321l17 73q25 1 74.5 6.5t73.5 13.5q39 13 59.5 40t28.5 62l229 992q5 21 7 35t2 21q0 42 -42.5 65.5t-138.5 37.5l17 73h1248zM1115 1681q0 -70 -49 -119t-119 -49t-119 49
t-49 119t49 119t119 49t119 -49t49 -119z" />
    <glyph glyph-name="edotaccent" unicode="&#x117;" horiz-adv-x="1141" 
d="M546 -33q-120 0 -210.5 32.5t-149.5 90.5q-58 58 -87 135t-29 170q0 118 44 229t131 200q82 85 208 138t278 53q179 0 272.5 -57t93.5 -171q0 -109 -81 -187.5t-220 -116.5q-110 -33 -187.5 -47t-189.5 -26q2 -44 12 -99t30 -94q24 -45 68 -71.5t112 -26.5
q118 0 200.5 45.5t157.5 144.5l73 -61q-90 -128 -230.5 -204.5t-295.5 -76.5zM772 759q0 85 -31 130.5t-86 45.5q-77 0 -145.5 -125.5t-87.5 -317.5q59 7 117 18t92 26q75 33 108 85t33 138zM872 1349q0 -70 -49 -119t-119 -49t-119 49t-49 119t49 119t119 49t119 -49
t49 -119z" />
    <glyph glyph-name="Gcircumflex" unicode="&#x11c;" horiz-adv-x="1653" 
d="M725 -39q-136 0 -252 38.5t-202 113.5q-87 75 -135.5 183t-48.5 243q0 200 70.5 367.5t196.5 291.5q124 122 296.5 190.5t372.5 68.5q121 0 240.5 -29.5t179.5 -63.5l74 55h87l-110 -518h-88q-22 231 -123.5 347.5t-262.5 116.5q-128 0 -228 -76t-169 -197
q-68 -118 -105.5 -281.5t-37.5 -322.5q0 -198 77.5 -314.5t228.5 -116.5q82 0 142 27t106 66l63 271q4 18 6.5 33.5t2.5 24.5q0 42 -52 65.5t-148 37.5l17 73h768l-17 -73q-31 -2 -72 -10t-66 -15q-42 -13 -61 -40.5t-27 -60.5l-40 -173q-10 -44 -16.5 -79.5l-13.5 -76.5
q-115 -66 -304.5 -116t-348.5 -50zM1354 1513l-34 -29l-311 203l-384 -203l-32 29l196 198t96 96q28 31 60.5 46t88.5 15q55 0 79.5 -14t44.5 -43l65 -98z" />
    <glyph glyph-name="gcircumflex" unicode="&#x11d;" horiz-adv-x="1330" 
d="M750 105h-8q-25 -20 -58 -43t-71 -40q-46 -22 -86 -33.5t-101 -11.5q-174 0 -267.5 102t-93.5 280q0 135 48 253.5t130 209.5q81 89 191.5 141t233.5 52q90 0 159 -19t119 -59l305 63l14 -16l-170 -813q-40 -182 -111 -300.5t-165 -188.5q-96 -71 -200.5 -98.5
t-219.5 -27.5q-123 0 -200.5 18.5t-118.5 47.5q-40 28 -54.5 62.5t-14.5 67.5q0 57 40.5 102.5t112.5 45.5q54 0 96.5 -29t74.5 -70q29 -37 54 -85.5t38 -78.5q46 8 91.5 26t87.5 68q40 48 76.5 133t67.5 241zM884 760q0 25 -6.5 51.5t-25.5 50.5q-19 25 -47 39.5t-76 14.5
q-65 0 -120 -46.5t-97 -124.5q-41 -77 -65 -179.5t-24 -211.5q0 -48 8.5 -88.5t29.5 -72.5t54.5 -48t75.5 -16q49 0 100.5 30t82.5 64zM1112 1132l-54 -29l-278 254l-358 -254l-51 29l172 220.5t116 134.5q28 31 60.5 46t88.5 15q58 0 81.5 -14.5t42.5 -42.5q39 -58 82 -149
z" />
    <glyph glyph-name="Gdotaccent" unicode="&#x120;" horiz-adv-x="1653" 
d="M725 -39q-136 0 -252 38.5t-202 113.5q-87 75 -135.5 183t-48.5 243q0 200 70.5 367.5t196.5 291.5q124 122 296.5 190.5t372.5 68.5q121 0 240.5 -29.5t179.5 -63.5l74 55h87l-110 -518h-88q-22 231 -123.5 347.5t-262.5 116.5q-128 0 -228 -76t-169 -197
q-68 -118 -105.5 -281.5t-37.5 -322.5q0 -198 77.5 -314.5t228.5 -116.5q82 0 142 27t106 66l63 271q4 18 6.5 33.5t2.5 24.5q0 42 -52 65.5t-148 37.5l17 73h768l-17 -73q-31 -2 -72 -10t-66 -15q-42 -13 -61 -40.5t-27 -60.5l-40 -173q-10 -44 -16.5 -79.5l-13.5 -76.5
q-115 -66 -304.5 -116t-348.5 -50zM1182 1681q0 -70 -49 -119t-119 -49t-119 49t-49 119t49 119t119 49t119 -49t49 -119z" />
    <glyph glyph-name="gdotaccent" unicode="&#x121;" horiz-adv-x="1330" 
d="M750 105h-8q-25 -20 -58 -43t-71 -40q-46 -22 -86 -33.5t-101 -11.5q-174 0 -267.5 102t-93.5 280q0 135 48 253.5t130 209.5q81 89 191.5 141t233.5 52q90 0 159 -19t119 -59l305 63l14 -16l-170 -813q-40 -182 -111 -300.5t-165 -188.5q-96 -71 -200.5 -98.5
t-219.5 -27.5q-123 0 -200.5 18.5t-118.5 47.5q-40 28 -54.5 62.5t-14.5 67.5q0 57 40.5 102.5t112.5 45.5q54 0 96.5 -29t74.5 -70q29 -37 54 -85.5t38 -78.5q46 8 91.5 26t87.5 68q40 48 76.5 133t67.5 241zM884 760q0 25 -6.5 51.5t-25.5 50.5q-19 25 -47 39.5t-76 14.5
q-65 0 -120 -46.5t-97 -124.5q-41 -77 -65 -179.5t-24 -211.5q0 -48 8.5 -88.5t29.5 -72.5t54.5 -48t75.5 -16q49 0 100.5 30t82.5 64zM944 1349q0 -70 -49 -119t-119 -49t-119 49t-49 119t49 119t119 49t119 -49t49 -119z" />
    <glyph glyph-name="Gcommaaccent" unicode="&#x122;" horiz-adv-x="1653" 
d="M725 -39q-136 0 -252 38.5t-202 113.5q-87 75 -135.5 183t-48.5 243q0 200 70.5 367.5t196.5 291.5q124 122 296.5 190.5t372.5 68.5q121 0 240.5 -29.5t179.5 -63.5l74 55h87l-110 -518h-88q-22 231 -123.5 347.5t-262.5 116.5q-128 0 -228 -76t-169 -197
q-68 -118 -105.5 -281.5t-37.5 -322.5q0 -198 77.5 -314.5t228.5 -116.5q82 0 142 27t106 66l63 271q4 18 6.5 33.5t2.5 24.5q0 42 -52 65.5t-148 37.5l17 73h768l-17 -73q-31 -2 -72 -10t-66 -15q-42 -13 -61 -40.5t-27 -60.5l-40 -173q-10 -44 -16.5 -79.5l-13.5 -76.5
q-115 -66 -304.5 -116t-348.5 -50zM554 -444l10 64q42 3 80.5 9t62.5 18q26 12 45 33t28 56h-57q-78 0 -107 19.5t-29 63.5q0 48 36 81.5t119 33.5q75 0 113.5 -40.5t38.5 -105.5q0 -115 -91.5 -173.5t-248.5 -58.5z" />
    <glyph glyph-name="gcommaaccent" unicode="&#x123;" horiz-adv-x="1330" 
d="M750 105h-8q-25 -20 -58 -43t-71 -40q-46 -22 -86 -33.5t-101 -11.5q-174 0 -267.5 102t-93.5 280q0 135 48 253.5t130 209.5q81 89 191.5 141t233.5 52q90 0 159 -19t119 -59l305 63l14 -16l-170 -813q-40 -182 -111 -300.5t-165 -188.5q-96 -71 -200.5 -98.5
t-219.5 -27.5q-123 0 -200.5 18.5t-118.5 47.5q-40 28 -54.5 62.5t-14.5 67.5q0 57 40.5 102.5t112.5 45.5q54 0 96.5 -29t74.5 -70q29 -37 54 -85.5t38 -78.5q46 8 91.5 26t87.5 68q40 48 76.5 133t67.5 241zM884 760q0 25 -6.5 51.5t-25.5 50.5q-19 25 -47 39.5t-76 14.5
q-65 0 -120 -46.5t-97 -124.5q-41 -77 -65 -179.5t-24 -211.5q0 -48 8.5 -88.5t29.5 -72.5t54.5 -48t75.5 -16q49 0 100.5 30t82.5 64zM768 1116q-91 0 -137.5 47t-46.5 133q0 71 29 135t85 122q50 53 125.5 98.5t154.5 77.5l31 -64q-97 -41 -175 -103.5t-103 -160.5h53
q86 0 128.5 -28t42.5 -87q0 -66 -54 -118t-133 -52z" />
    <glyph glyph-name="Hcircumflex" unicode="&#x124;" horiz-adv-x="1870" 
d="M1994 1419l-17 -73q-31 -2 -78 -10t-71 -15q-41 -13 -60.5 -40.5t-27.5 -61.5l-229 -993q-4 -17 -6.5 -32t-2.5 -23q0 -45 38.5 -66.5t143.5 -31.5l-17 -73h-767l17 73q26 2 74 6t69 12q39 14 60 40t29 62l113 497h-596l-106 -464q-4 -17 -6.5 -32t-2.5 -23q0 -45 37 -66
t141 -32l-17 -73h-767l17 73q25 1 74.5 6.5t73.5 13.5q39 13 59.5 40t28.5 62l229 992q5 21 7 35t2 21q0 42 -42.5 65.5t-138.5 37.5l17 73h767l-17 -73q-31 -2 -75.5 -10t-69.5 -15q-42 -13 -61 -41.5t-27 -60.5l-99 -431h596l92 399q5 21 7 35t2 21q0 42 -41 64.5
t-136 38.5l17 73h767zM1489 1513l-34 -29l-311 203l-384 -203l-32 29l196 198t96 96q28 31 60.5 46t88.5 15q55 0 79.5 -14t44.5 -43l65 -98z" />
    <glyph glyph-name="hcircumflex" unicode="&#x125;" horiz-adv-x="1383" 
d="M1354 151l-22 -88q-99 -39 -158 -59.5t-137 -20.5q-119 0 -185.5 59.5t-66.5 147.5q0 28 2.5 62t17.5 93l72 266q11 43 16.5 77.5t5.5 56.5q0 48 -23 75t-78 27q-34 0 -97 -26.5t-141 -98.5l-165 -722h-331l264 1144q3 15 5.5 31t2.5 26q0 36 -12 57t-36 34t-55 18t-72 9
l18 74l527 26l11 -16l-130 -563h7q93 82 193 128.5t215 46.5q111 0 173.5 -61t62.5 -148q0 -23 -3.5 -64.5t-16.5 -88.5l-76 -281q-10 -35 -18 -80t-8 -68q0 -58 25.5 -80t89.5 -22q30 0 68 10.5t55 18.5zM1225 1513l-34 -29l-311 203l-384 -203l-32 29l196 198t96 96
q29 30 61 45.5t88 15.5q55 0 79.5 -14t44.5 -43l65 -98z" />
    <glyph glyph-name="Hbar" unicode="&#x126;" horiz-adv-x="1870" 
d="M1994 1419l-17 -73q-31 -2 -78 -10t-71 -15q-41 -13 -60.5 -40.5t-27.5 -61.5l-26 -111h195l-23 -97h-194l-181 -785q-4 -17 -6.5 -32t-2.5 -23q0 -45 38.5 -66.5t143.5 -31.5l-17 -73h-767l17 73q26 2 74 6t69 12q39 14 60 40t29 62l113 497h-596l-106 -464
q-4 -17 -6.5 -32t-2.5 -23q0 -45 37 -66t141 -32l-17 -73h-767l17 73q25 1 74.5 6.5t73.5 13.5q39 13 59.5 40t28.5 62l188 816h-196l23 97h196l18 79q5 21 7 35t2 21q0 42 -42.5 65.5t-138.5 37.5l17 73h767l-17 -73q-31 -2 -75.5 -10t-69.5 -15q-42 -13 -61 -41.5
t-27 -60.5l-25 -111h596l18 79q5 21 7 35t2 21q0 42 -41 64.5t-136 38.5l17 73h767zM742 1011l-52 -223h596l51 223h-595z" />
    <glyph glyph-name="hbar" unicode="&#x127;" horiz-adv-x="1383" 
d="M1354 151l-22 -88q-99 -39 -158 -59.5t-137 -20.5q-119 0 -185.5 59.5t-66.5 147.5q0 28 2.5 62t17.5 93l71 260q11 41 16.5 76.5t5.5 57.5q0 58 -26.5 80t-74.5 22q-27 0 -90.5 -24.5t-147.5 -100.5l-164 -716h-331l267 1152h-249l22 94h248q9 35 11.5 54.5t2.5 29.5
q0 36 -12 57t-36 34t-55 18t-72 9l18 74l527 26l11 -16l-66 -286h353l-22 -94h-353l-73 -318h7q93 82 193 128.5t215 46.5q111 0 173.5 -61t62.5 -148q0 -23 -3.5 -64.5t-16.5 -88.5l-75 -275q-10 -35 -18 -80t-8 -68q0 -58 25.5 -80t89.5 -22q30 0 68 10.5t55 18.5z" />
    <glyph glyph-name="Itilde" unicode="&#x128;" horiz-adv-x="923" 
d="M-61 0l17 73q29 1 79 6.5t77 14.5q39 13 59.5 39.5t28.5 61.5l229 992q5 21 7 35t2 21q0 42 -46.5 65.5t-142.5 37.5l17 73h787l-17 -73q-32 -2 -82 -9.5t-75 -15.5q-41 -13 -60.5 -40.5t-27.5 -61.5l-229 -993q-4 -17 -6.5 -32t-2.5 -23q0 -50 46.5 -69.5t143.5 -28.5
l-17 -73h-787zM1153 1849q-19 -43 -53 -96t-79 -98q-48 -48 -98 -77.5t-111 -29.5q-64 0 -114 19.5t-84 38.5q-36 19 -76.5 36t-79.5 17q-52 0 -84 -45.5l-73 -102.5l-71 30q18 37 54 91.5t76 97.5q41 45 94 77t108 32q51 0 98 -16.5t91 -37.5l80 -39t76 -16q41 0 65.5 8.5
t39.5 26.5q17 21 31 47.5l33 60.5z" />
    <glyph glyph-name="itilde" unicode="&#x129;" horiz-adv-x="749" 
d="M713 143l-22 -90q-99 -39 -158 -59.5t-137 -20.5q-120 0 -186.5 58.5t-66.5 148.5q0 35 5 71.5t16 82.5l82 292q11 42 18.5 79.5t7.5 68.5q0 56 -23 78t-88 22q-32 0 -65.5 -10t-57.5 -19l22 90q81 33 155 56.5t140 23.5q119 0 183.5 -57.5t64.5 -149.5q0 -19 -4.5 -67
t-16.5 -88l-82 -291q-10 -35 -18 -80t-8 -68q0 -58 26 -79t90 -21q30 0 68 10.5t55 18.5zM848 1484q-18 -43 -50.5 -96.5t-73.5 -97.5q-47 -49 -93 -78t-104 -29q-57 0 -103 18.5t-83 39.5t-71 37t-72 16q-25 0 -39.5 -7t-32.5 -27q-16 -17 -35.5 -49l-40.5 -66l-70 31
q22 46 49 91t73 98q38 44 89 76.5t101 32.5q52 0 96 -17t82 -37l74.5 -39.5t69.5 -15.5q65 0 94 38t65 106z" />
    <glyph glyph-name="Imacron" unicode="&#x12a;" horiz-adv-x="923" 
d="M-61 0l17 73q29 1 79 6.5t77 14.5q39 13 59.5 39.5t28.5 61.5l229 992q5 21 7 35t2 21q0 42 -46.5 65.5t-142.5 37.5l17 73h787l-17 -73q-32 -2 -82 -9.5t-75 -15.5q-41 -13 -60.5 -40.5t-27.5 -61.5l-229 -993q-4 -17 -6.5 -32t-2.5 -23q0 -50 46.5 -69.5t143.5 -28.5
l-17 -73h-787zM1056 1658h-748l34 171h748z" />
    <glyph glyph-name="imacron" unicode="&#x12b;" horiz-adv-x="749" 
d="M713 143l-22 -90q-99 -39 -158 -59.5t-137 -20.5q-120 0 -186.5 58.5t-66.5 148.5q0 35 5 71.5t16 82.5l82 292q11 42 18.5 79.5t7.5 68.5q0 56 -23 78t-88 22q-32 0 -65.5 -10t-57.5 -19l22 90q81 33 155 56.5t140 23.5q119 0 183.5 -57.5t64.5 -149.5q0 -19 -4.5 -67
t-16.5 -88l-82 -291q-10 -35 -18 -80t-8 -68q0 -58 26 -79t90 -21q30 0 68 10.5t55 18.5zM740 1247h-698l34 171h698z" />
    <glyph glyph-name="Ibreve" unicode="&#x12c;" horiz-adv-x="923" 
d="M-61 0l17 73q29 1 79 6.5t77 14.5q39 13 59.5 39.5t28.5 61.5l229 992q5 21 7 35t2 21q0 42 -46.5 65.5t-142.5 37.5l17 73h787l-17 -73q-32 -2 -82 -9.5t-75 -15.5q-41 -13 -60.5 -40.5t-27.5 -61.5l-229 -993q-4 -17 -6.5 -32t-2.5 -23q0 -50 46.5 -69.5t143.5 -28.5
l-17 -73h-787zM1091 1852q-45 -138 -147 -230t-264 -92q-132 0 -204.5 77.5t-72.5 199.5q0 12 1 24t1 21l74 16q8 -73 61.5 -119t173.5 -46q111 0 186.5 42t122.5 123z" />
    <glyph glyph-name="ibreve" unicode="&#x12d;" horiz-adv-x="749" 
d="M713 143l-22 -90q-99 -39 -158 -59.5t-137 -20.5q-120 0 -186.5 58.5t-66.5 148.5q0 35 5 71.5t16 82.5l82 292q11 42 18.5 79.5t7.5 68.5q0 56 -23 78t-88 22q-32 0 -65.5 -10t-57.5 -19l22 90q81 33 155 56.5t140 23.5q119 0 183.5 -57.5t64.5 -149.5q0 -19 -4.5 -67
t-16.5 -88l-82 -291q-10 -35 -18 -80t-8 -68q0 -58 26 -79t90 -21q30 0 68 10.5t55 18.5zM763 1532q-70 -214 -161.5 -305.5t-225.5 -91.5q-129 0 -188.5 85t-59.5 242q0 20 1 38t2 32l74 16q5 -48 14 -92t29 -76q22 -36 61.5 -54t100.5 -18q60 0 104.5 17t77.5 52
q28 30 52 72.5t51 98.5z" />
    <glyph glyph-name="Iogonek" unicode="&#x12e;" horiz-adv-x="923" 
d="M-61 0l17 73q29 1 79 6.5t77 14.5q39 13 59.5 39.5t28.5 61.5l229 992q5 21 7 35t2 21q0 42 -46.5 65.5t-142.5 37.5l17 73h787l-17 -73q-32 -2 -82 -9.5t-75 -15.5q-41 -13 -60.5 -40.5t-27.5 -61.5l-229 -993q-4 -17 -6.5 -32t-2.5 -23q0 -50 46.5 -69.5t143.5 -28.5
l-17 -73h-238q-70 -71 -106.5 -136.5t-36.5 -117.5q0 -50 44 -76.5t133 -36.5l-14 -77q-208 0 -295 42t-87 119q0 82 62 149.5t179 133.5h-428z" />
    <glyph glyph-name="iogonek" unicode="&#x12f;" horiz-adv-x="749" 
d="M148 -283q0 74 51.5 136.5t148.5 123.5q-98 13 -151.5 67.5t-53.5 135.5q0 35 5 71.5t16 82.5l82 292q11 42 18.5 79.5t7.5 68.5q0 56 -23 78t-88 22q-32 0 -65.5 -10t-57.5 -19l22 90q81 33 155 56.5t140 23.5q119 0 183.5 -57.5t64.5 -149.5q0 -19 -4.5 -67t-16.5 -88
l-82 -291q-10 -35 -18 -80t-8 -68q0 -58 26 -79t90 -21q30 0 68 10.5t55 18.5l-22 -90l-107.5 -40.5t-85.5 -25.5q-64 -67 -97.5 -129.5t-33.5 -111.5q0 -50 44 -76.5t133 -36.5l-14 -77q-208 0 -295 42t-87 119zM734 1364q0 -76 -57.5 -129.5t-138.5 -53.5t-139 53.5
t-58 129.5t58 130t139 54t138.5 -54t57.5 -130z" />
    <glyph glyph-name="Jcircumflex" unicode="&#x134;" horiz-adv-x="1219" 
d="M947 432q-27 -115 -87.5 -203.5t-139.5 -146.5q-78 -57 -170 -88.5t-186 -31.5q-188 0 -299.5 89t-111.5 243q0 95 55 157.5t147 62.5q89 0 138 -50.5t49 -126.5q0 -40 -19 -78t-67 -83l-62 -58v-13q9 -24 39 -36.5t61 -12.5q104 0 177.5 87.5t112.5 259.5l181 784
q5 21 7 35t2 21q0 42 -43.5 65.5t-139.5 37.5l17 73h766l-17 -73q-31 -2 -73.5 -10t-67.5 -15q-42 -13 -60 -38t-28 -64zM1352 1513l-34 -29l-311 203l-384 -203l-32 29l196 198t96 96q28 31 60.5 46t88.5 15q55 0 79.5 -14t44.5 -43l65 -98z" />
    <glyph glyph-name="jcircumflex" unicode="&#x135;" horiz-adv-x="747" 
d="M627 808q0 -19 -2 -52t-10 -73l-62 -324t-71 -299q-27 -102 -81 -191t-134 -161q-83 -74 -168.5 -113t-191.5 -39q-90 0 -145.5 18t-86.5 46t-42 62t-11 67q0 59 42 103t111 44q54 0 93.5 -28.5t67.5 -68.5q28 -39 49.5 -87l33.5 -75q33 58 64.5 148.5t64.5 236.5
q41 181 72.5 337l58.5 300l9.5 56t5.5 59q0 50 -25 75t-89 25q-33 0 -68 -10.5l-60 -18.5l22 90q81 33 159.5 56.5t144.5 23.5q119 0 184 -57.5t65 -149.5zM741 1132l-54 -29l-278 254l-358 -254l-51 29l172 220.5t116 134.5q28 31 60.5 46t88.5 15q58 0 81.5 -14.5
t42.5 -42.5q39 -58 82 -149z" />
    <glyph glyph-name="Kcommaaccent" unicode="&#x136;" horiz-adv-x="1673" 
d="M560 226q-4 -17 -6.5 -32t-2.5 -23q0 -45 37 -66t141 -32l-17 -73h-767l17 73q25 1 74.5 6.5t73.5 13.5q39 13 59.5 40t28.5 62l229 992q5 21 7 35t2 21q0 42 -42.5 65.5t-138.5 37.5l17 73h767l-17 -73q-31 -2 -75.5 -10t-69.5 -15q-42 -13 -61 -41.5t-27 -60.5
l-111 -483h42l232 180t205 172q93 85 143.5 139t50.5 82q0 15 -32 23.5t-106 13.5l17 73h617l-17 -73q-112 -12 -197.5 -47t-171.5 -99q-139 -105 -238 -190l-210 -176l166.5 -273l197.5 -320q31 -52 64 -86t82 -58q22 -11 53 -17t53 -7l-17 -73h-532q-83 190 -166 331.5
l-194 323.5h-61zM612 -444l10 64q42 3 80.5 9t62.5 18q26 12 45 33t28 56h-57q-78 0 -107 19.5t-29 63.5q0 48 36 81.5t119 33.5q75 0 113.5 -40.5t38.5 -105.5q0 -115 -91.5 -173.5t-248.5 -58.5z" />
    <glyph glyph-name="kcommaaccent" unicode="&#x137;" horiz-adv-x="1313" 
d="M1297 858q0 -71 -51.5 -126t-127.5 -55q-63 0 -117 28.5t-95 59.5l-39 -25.5t-79 -64.5l101 -255t83 -192q33 -63 62.5 -89t103.5 -26q26 0 65 10t64 20l-22 -90q-99 -42 -173 -61t-132 -19q-28 0 -70.5 4t-73.5 18q-39 18 -71.5 50t-63.5 102q-44 99 -62.5 151.5
l-51.5 142.5l-66 -62l-86 -379h-331l294 1273q4 17 6 32t2 25q0 36 -12 57t-36 34t-55 18t-72 9l18 74l527 26l11 -16l-240 -1040h8q120 135 189.5 206.5l150.5 150.5q98 95 156.5 130.5t129.5 35.5q72 0 114 -40t42 -117zM430 -444l10 64q42 3 80.5 9t62.5 18q26 12 45 33
t28 56h-57q-78 0 -107 19.5t-29 63.5q0 48 36 81.5t119 33.5q75 0 113.5 -40.5t38.5 -105.5q0 -115 -91.5 -173.5t-248.5 -58.5z" />
    <glyph glyph-name="kgreenlandic" unicode="&#x138;" horiz-adv-x="1343" 
d="M1327 858q0 -71 -51.5 -126t-127.5 -55q-63 0 -117 28.5t-95 59.5l-39 -25.5t-79 -64.5l101 -255t83 -192q33 -63 62.5 -89t103.5 -26q26 0 65 10t64 20l-22 -90q-99 -42 -173 -61t-132 -19q-28 0 -70.5 4t-73.5 18q-39 18 -71.5 50t-63.5 102q-44 99 -62.5 151.5
l-51.5 142.5l-66 -62l-86 -379h-331l142 615l15.5 73t9.5 75q0 57 -23.5 78.5t-85.5 21.5q-32 0 -65.5 -10t-57.5 -19l22 90q81 33 155 56.5t140 23.5q113 0 181 -51.5t68 -155.5q0 -20 -5.5 -63.5t-17.5 -91.5l-36 -150h9q120 135 189.5 206.5l150.5 150.5
q98 95 156.5 130.5t129.5 35.5q72 0 114 -40t42 -117z" />
    <glyph glyph-name="Lcommaaccent" unicode="&#x13b;" horiz-adv-x="1404" 
d="M1385 455l-133 -455h-1307l17 73q25 1 74.5 7.5t73.5 14.5q40 13 60 39t28 61l229 992q5 21 7 35t2 21q0 42 -42.5 65.5t-138.5 37.5l17 73h780l-17 -73q-32 -2 -82 -9.5t-76 -15.5q-42 -13 -61 -41.5t-27 -60.5l-217 -943q-7 -29 -11 -56.5t-4 -42.5q0 -58 42.5 -74.5
t173.5 -16.5q80 0 159 12t118 44q62 50 138 143.5t124 169.5h73zM535 -444l10 64q42 3 80.5 9t62.5 18q26 12 45 33t28 56h-57q-78 0 -107 19.5t-29 63.5q0 48 36 81.5t119 33.5q75 0 113.5 -40.5t38.5 -105.5q0 -115 -91.5 -173.5t-248.5 -58.5z" />
    <glyph glyph-name="lcommaaccent" unicode="&#x13c;" horiz-adv-x="726" 
d="M746 1532l-269 -1170q-7 -29 -16.5 -77t-9.5 -71q0 -58 29 -79t96 -21q25 0 68 10.5t61 18.5l-22 -90q-99 -39 -162 -59.5t-143 -20.5q-120 0 -189 58.5t-69 148.5q0 37 6.5 77t14.5 77l216 939q4 17 6 32t2 25q0 36 -12 57t-36 34t-55 18t-72 9l18 74l527 26zM193 -444
l10 64q42 3 80.5 9t62.5 18q26 12 45 33t28 56h-57q-78 0 -107 19.5t-29 63.5q0 48 36 81.5t119 33.5q75 0 113.5 -40.5t38.5 -105.5q0 -115 -91.5 -173.5t-248.5 -58.5z" />
    <glyph glyph-name="Ncommaaccent" unicode="&#x145;" horiz-adv-x="1699" 
d="M1883 1419l-17 -73q-28 -3 -81.5 -10.5t-104.5 -39.5q-43 -27 -73.5 -93t-60.5 -193l-235 -1018h-168l-613 1137l-162 -710q-13 -56 -20 -105t-7 -78q0 -41 8 -63.5t23 -37.5q23 -23 80.5 -40t85.5 -22l-17 -73h-610l17 73q27 4 85.5 14t100.5 36q44 28 74 91.5t59 193.5
l154 668q5 23 8.5 43.5t3.5 37.5q0 30 -7 57.5t-26 50.5q-28 34 -69 52.5t-96 28.5l18 73h524l536 -1000l133 581q14 64 20.5 104.5t6.5 75.5q0 39 -8.5 63.5t-24.5 40.5q-22 22 -77.5 39.5t-85.5 22.5l17 73h609zM557 -444l10 64q42 3 80.5 9t62.5 18q26 12 45 33t28 56
h-57q-78 0 -107 19.5t-29 63.5q0 48 36 81.5t119 33.5q75 0 113.5 -40.5t38.5 -105.5q0 -115 -91.5 -173.5t-248.5 -58.5z" />
    <glyph glyph-name="ncommaaccent" unicode="&#x146;" horiz-adv-x="1413" 
d="M1384 153l-22 -90q-99 -39 -158 -59.5t-137 -20.5q-119 0 -185 59.5t-66 147.5q0 24 2.5 61.5t16.5 93.5l72 266q11 43 16.5 77.5t5.5 56.5q0 48 -23 75t-78 27q-34 0 -97 -26.5t-141 -98.5l-165 -722h-331l142 615l15.5 73t9.5 75q0 57 -23.5 78.5t-85.5 21.5
q-32 0 -65.5 -10t-57.5 -19l22 90q81 33 155 56.5t140 23.5q118 0 176.5 -46.5t77.5 -130.5h7q98 89 202.5 138.5t222.5 49.5q111 0 173.5 -61t62.5 -148q0 -23 -3.5 -64.5t-16.5 -88.5l-76 -281q-10 -35 -18 -80t-8 -68q0 -58 25.5 -79t89.5 -21q30 0 68 10.5t55 18.5z
M498 -444l10 64q42 3 80.5 9t62.5 18q26 12 45 33t28 56h-57q-78 0 -107 19.5t-29 63.5q0 48 36 81.5t119 33.5q75 0 113.5 -40.5t38.5 -105.5q0 -115 -91.5 -173.5t-248.5 -58.5z" />
    <glyph glyph-name="Eng" unicode="&#x14a;" horiz-adv-x="1699" 
d="M691 -105q43 0 74 -17.5t51 -46.5q21 -29 36 -67t29 -81q104 8 182 87.5t114 212.5l14 50l-661 1096l-162 -710q-13 -56 -20 -105t-7 -78q0 -41 8 -63.5t23 -37.5q23 -23 80.5 -40t85.5 -22l-17 -73h-610l17 73q27 4 85.5 14t100.5 36q44 28 74 91.5t59 193.5l154 668
q5 23 8.5 43.5t3.5 37.5q0 30 -7 57.5t-26 50.5q-28 34 -69 52.5t-96 28.5l18 73h524l557 -916l112 497q14 64 20.5 104.5t6.5 75.5q0 39 -8.5 63.5t-24.5 40.5q-22 22 -77.5 39.5t-85.5 22.5l17 73h609l-17 -73q-28 -3 -81.5 -10.5t-104.5 -39.5q-43 -27 -73.5 -92
t-60.5 -194l-205 -897q-29 -123 -73 -218t-120 -176q-74 -78 -168.5 -120.5t-211.5 -42.5q-105 0 -170.5 43.5t-65.5 120.5q0 72 45 123.5t114 51.5z" />
    <glyph glyph-name="eng" unicode="&#x14b;" horiz-adv-x="1388" 
d="M265 -292q0 76 44 124t123 48q86 0 124.5 -60t60.5 -178q64 36 106 155.5t74 264.5l126 562q7 32 12 65t5 55q0 56 -25 81.5t-78 25.5q-70 0 -138 -41.5t-109 -87.5l-165 -722h-331l142 615l15.5 73t9.5 75q0 57 -23.5 78.5t-85.5 21.5q-32 0 -65.5 -10t-57.5 -19l22 90
q81 33 155 56.5t140 23.5q118 0 176.5 -46.5t77.5 -130.5h7q37 31 79 63t95 61q49 27 113.5 45.5t135.5 18.5q132 0 190.5 -61t58.5 -167q0 -22 -4 -58.5t-15 -83.5l-122 -531q-25 -107 -84.5 -210.5t-142.5 -179.5q-87 -79 -189.5 -123.5t-230.5 -44.5q-110 0 -168 39.5
t-58 112.5z" />
    <glyph glyph-name="Omacron" unicode="&#x14c;" horiz-adv-x="1679" 
d="M1661 875q0 -180 -67.5 -347.5t-189.5 -291.5q-125 -127 -294 -201t-383 -74q-280 0 -460 161.5t-180 422.5q0 190 73 357.5t202 292.5q126 123 295.5 193t357.5 70q282 0 464 -158t182 -425zM1138 351q68 138 101 300.5t33 320.5q0 183 -70 288t-209 105
q-122 0 -218.5 -82t-162.5 -213t-101 -296t-35 -328q0 -177 70 -284.5t210 -107.5q121 0 219.5 84t162.5 213zM1368 1658h-748l34 171h748z" />
    <glyph glyph-name="omacron" unicode="&#x14d;" horiz-adv-x="1302" 
d="M1235 599q0 -126 -48 -241t-136 -200q-95 -91 -222.5 -140.5t-286.5 -49.5q-213 0 -344 113.5t-131 309.5q0 133 49.5 247t138.5 199q88 83 216 131.5t277 48.5q226 0 356.5 -110.5t130.5 -307.5zM883 712q0 117 -39.5 172t-114.5 55q-77 0 -141 -61.5t-104 -180.5
q-35 -99 -50 -214.5t-15 -206.5q0 -121 40 -175.5t116 -54.5q82 0 142 67t95 165q35 96 53 212.5t18 221.5zM1129 1247h-748l34 171h748z" />
    <glyph glyph-name="Obreve" unicode="&#x14e;" horiz-adv-x="1679" 
d="M1661 875q0 -180 -67.5 -347.5t-189.5 -291.5q-125 -127 -294 -201t-383 -74q-280 0 -460 161.5t-180 422.5q0 190 73 357.5t202 292.5q126 123 295.5 193t357.5 70q282 0 464 -158t182 -425zM1138 351q68 138 101 300.5t33 320.5q0 183 -70 288t-209 105
q-122 0 -218.5 -82t-162.5 -213t-101 -296t-35 -328q0 -177 70 -284.5t210 -107.5q121 0 219.5 84t162.5 213zM1420 1852q-45 -138 -147 -230t-264 -92q-132 0 -204.5 77.5t-72.5 199.5q0 12 1 24t1 21l74 16q8 -73 61.5 -119t173.5 -46q111 0 186.5 42t122.5 123z" />
    <glyph glyph-name="obreve" unicode="&#x14f;" horiz-adv-x="1302" 
d="M1235 599q0 -126 -48 -241t-136 -200q-95 -91 -222.5 -140.5t-286.5 -49.5q-213 0 -344 113.5t-131 309.5q0 133 49.5 247t138.5 199q88 83 216 131.5t277 48.5q226 0 356.5 -110.5t130.5 -307.5zM883 712q0 117 -39.5 172t-114.5 55q-77 0 -141 -61.5t-104 -180.5
q-35 -99 -50 -214.5t-15 -206.5q0 -121 40 -175.5t116 -54.5q82 0 142 67t95 165q35 96 53 212.5t18 221.5zM1134 1532q-59 -194 -155.5 -295.5t-244.5 -101.5q-133 0 -197.5 88.5t-64.5 252.5q0 16 1 30.5t1 25.5l74 16q6 -47 16.5 -91.5t32.5 -76.5q24 -34 61 -53t107 -19
q66 0 112 18.5t79 50.5q34 32 61 78t49 93z" />
    <glyph glyph-name="Rcommaaccent" unicode="&#x156;" horiz-adv-x="1633" 
d="M1147 1121q0 107 -67.5 159.5t-195.5 52.5h-68l-139 -603h97q163 0 268 102.5t105 288.5zM560 226q-4 -17 -6.5 -32t-2.5 -23q0 -45 37 -66t141 -32l-17 -73h-767l17 73q25 1 74.5 7.5t73.5 14.5q39 13 59.5 39t28.5 61l229 992q5 21 7 35t2 21q0 42 -42.5 65.5
t-138.5 37.5l17 73h782q244 0 366.5 -69t122.5 -209q0 -165 -119 -276.5t-336 -163.5l103.5 -186.5l145.5 -256.5q24 -43 62.5 -97.5t81.5 -69.5q21 -7 58 -12t53 -6l-18 -73h-518q-94 215 -160.5 344.5t-166.5 298.5h-72zM617 -444l10 64q42 3 80.5 9t62.5 18q26 12 45 33
t28 56h-57q-78 0 -107 19.5t-29 63.5q0 48 36 81.5t119 33.5q75 0 113.5 -40.5t38.5 -105.5q0 -115 -91.5 -173.5t-248.5 -58.5z" />
    <glyph glyph-name="rcommaaccent" unicode="&#x157;" horiz-adv-x="1093" 
d="M1106 807q0 -45 -13 -87t-39 -72q-29 -34 -61 -50.5t-90 -16.5q-75 0 -118 37t-43 83q0 43 12.5 74l39.5 94q-67 -28 -115 -68.5t-92 -92.5l-158 -708h-331l138 615l15.5 73t9.5 75q0 58 -22.5 79t-86.5 21q-32 0 -65.5 -10t-57.5 -19l22 90q81 33 155 56.5t140 23.5
q118 0 176.5 -46.5t77.5 -130.5h7q99 105 168 146.5t148 41.5q85 0 134 -53.5t49 -154.5zM174 -444l10 64q42 3 80.5 9t62.5 18q26 12 45 33t28 56h-57q-78 0 -107 19.5t-29 63.5q0 48 36 81.5t119 33.5q75 0 113.5 -40.5t38.5 -105.5q0 -115 -91.5 -173.5t-248.5 -58.5z
" />
    <glyph glyph-name="Scircumflex" unicode="&#x15c;" horiz-adv-x="1337" 
d="M575 -38q-118 0 -237.5 29t-209.5 79l-86 -70h-85l106 513h86q12 -75 44 -155.5t83 -143.5q50 -65 127 -108t176 -43q145 0 232 70.5t87 185.5q0 74 -49.5 130t-159.5 96l-135.5 48.5t-124.5 48.5q-117 49 -176 139.5t-59 192.5q0 94 43 180.5t124 154.5
q79 67 195.5 107.5t255.5 40.5q116 0 230 -33.5t168 -64.5l75 60h87l-104 -484h-86q-13 85 -37.5 160t-67.5 135q-42 58 -104.5 92.5t-150.5 34.5q-122 0 -203.5 -68t-81.5 -171q0 -72 49 -126t155 -94l130 -47.5t130 -50.5q116 -48 183 -130.5t67 -195.5q0 -107 -49 -201
t-137 -162q-93 -72 -217 -110.5t-273 -38.5zM1188 1513l-34 -29l-311 203l-384 -203l-32 29l196 198t96 96q28 31 60.5 46t88.5 15q55 0 79.5 -14t44.5 -43l65 -98z" />
    <glyph glyph-name="scircumflex" unicode="&#x15d;" horiz-adv-x="1059" 
d="M435 -33q-126 0 -208.5 20.5t-130.5 52.5q-49 32 -67 68.5t-18 68.5q0 58 43.5 101.5t115.5 43.5q60 0 100.5 -31t67.5 -78q25 -43 42 -95t24 -77q113 0 171 48.5t58 132.5q0 37 -17.5 62t-46.5 44q-29 18 -74 35t-89 32q-121 41 -191.5 113.5t-70.5 180.5
q0 64 29.5 120.5t92.5 104.5q62 46 157 73.5t222 27.5q76 0 141 -9t121 -33q53 -24 82.5 -62.5t29.5 -93.5t-41.5 -94.5t-108.5 -39.5q-58 0 -96.5 30t-62.5 71q-24 42 -38 86.5l-23 74.5q-70 -4 -127.5 -50.5t-57.5 -115.5q0 -42 13.5 -66t36.5 -40q26 -18 65.5 -33.5
t98.5 -35.5q136 -48 205 -115t69 -177q0 -72 -33.5 -138t-95.5 -110q-69 -48 -159 -72.5t-229 -24.5zM990 1132l-54 -29l-278 254l-358 -254l-51 29l172 220.5t116 134.5q28 31 60.5 46t88.5 15q58 0 81.5 -14.5t42.5 -42.5q39 -58 82 -149z" />
    <glyph glyph-name="Tbar" unicode="&#x166;" horiz-adv-x="1401" 
d="M1591 1419l-94 -406h-77q-4 34 -15.5 85t-31.5 101q-21 52 -45.5 86t-58.5 40q-30 4 -76.5 7t-80.5 3h-50l-129 -560h305l-23 -99h-305l-103 -444q-4 -17 -6.5 -32.5t-2.5 -22.5q0 -24 9.5 -42.5t35.5 -29.5q24 -10 70 -19.5t76 -12.5l-17 -73h-791l17 73q28 2 82 8
t77 14q40 16 59.5 43t28.5 64l110 474h-305l23 99h304l130 560h-39q-38 0 -76.5 -2.5t-87.5 -7.5q-36 -5 -80.5 -43t-86.5 -83q-50 -56 -82.5 -101.5t-55.5 -84.5h-77l94 406h1375z" />
    <glyph glyph-name="tbar" unicode="&#x167;" horiz-adv-x="854" 
d="M408 -26q-120 0 -192 58.5t-72 148.5q0 37 5 70t16 85l33 142h-169l22 93h169l69 297h-183l24 103h187l72 303h324l-70 -303h271l-24 -103h-270l-68 -297h233l-22 -93h-232l-33 -142q-7 -28 -13.5 -68t-6.5 -52q0 -57 31.5 -79t96.5 -22q31 0 85.5 12t76.5 20l-22 -90
q-88 -39 -176.5 -61t-161.5 -22z" />
    <glyph glyph-name="Utilde" unicode="&#x168;" horiz-adv-x="1707" 
d="M755 -39q-260 0 -398.5 100.5t-138.5 283.5q0 32 4 64.5t12 70.5l164 709q5 21 7 33t2 21q0 42 -40 65t-139 38l17 73h760l-17 -73q-33 -2 -72 -8.5t-66 -14.5q-41 -12 -60 -39.5t-27 -62.5l-162 -699q-10 -42 -16 -91t-6 -82q0 -129 74 -190.5t216 -61.5
q172 0 297.5 114.5t168.5 303.5l112 486q14 62 20.5 106t6.5 74q0 38 -8.5 63t-24.5 40q-25 23 -82.5 40.5t-83.5 21.5l17 73h615l-17 -73q-30 -3 -86.5 -13.5t-100.5 -36.5q-44 -25 -74.5 -91.5t-60.5 -193.5l-123 -533q-58 -248 -243.5 -382.5t-446.5 -134.5zM1547 1849
q-19 -43 -53 -96t-79 -98q-48 -48 -98 -77.5t-111 -29.5q-64 0 -114 19.5t-84 38.5q-36 19 -76.5 36t-79.5 17q-52 0 -84 -45.5l-73 -102.5l-71 30q18 37 54 91.5t76 97.5q41 45 94 77t108 32q51 0 98 -16.5t91 -37.5l80 -39t76 -16q41 0 65.5 8.5t39.5 26.5q17 21 31 47.5
l33 60.5z" />
    <glyph glyph-name="utilde" unicode="&#x169;" horiz-adv-x="1403" 
d="M803 159h-7q-105 -96 -200 -142t-220 -46q-111 0 -171.5 61t-60.5 148q0 31 3.5 63t18.5 90l75 281q7 28 16.5 76.5t9.5 71.5q0 55 -22.5 77.5t-87.5 22.5q-32 0 -65.5 -10t-57.5 -19l22 90q81 33 155 56.5t140 23.5q119 0 183.5 -59.5t64.5 -147.5q0 -18 -4 -66t-16 -89
l-73 -266q-10 -35 -16 -75.5t-6 -58.5q0 -47 22 -74.5t76 -27.5q39 0 103.5 32.5t127.5 92.5l165 722l319 14l12 -14l-142 -615q-7 -29 -16.5 -77t-9.5 -71q0 -58 25.5 -79t89.5 -21q30 0 68 10.5t55 18.5l-22 -90q-99 -39 -158 -59.5t-137 -20.5q-110 0 -176 49.5
t-83 127.5zM1257 1484q-19 -43 -53 -96t-79 -98q-48 -48 -98 -77.5t-111 -29.5q-64 0 -114 19.5t-84 38.5q-36 19 -76.5 36t-79.5 17q-52 0 -84 -45.5l-73 -102.5l-71 30q18 37 54 91.5t76 97.5q41 45 94 77t108 32q51 0 98 -16.5t91 -37.5l80 -39t76 -16q41 0 65.5 8.5
t39.5 26.5q17 21 31 47.5l33 60.5z" />
    <glyph glyph-name="Umacron" unicode="&#x16a;" horiz-adv-x="1707" 
d="M755 -39q-260 0 -398.5 100.5t-138.5 283.5q0 32 4 64.5t12 70.5l164 709q5 21 7 33t2 21q0 42 -40 65t-139 38l17 73h760l-17 -73q-33 -2 -72 -8.5t-66 -14.5q-41 -12 -60 -39.5t-27 -62.5l-162 -699q-10 -42 -16 -91t-6 -82q0 -129 74 -190.5t216 -61.5
q172 0 297.5 114.5t168.5 303.5l112 486q14 62 20.5 106t6.5 74q0 38 -8.5 63t-24.5 40q-25 23 -82.5 40.5t-83.5 21.5l17 73h615l-17 -73q-30 -3 -86.5 -13.5t-100.5 -36.5q-44 -25 -74.5 -91.5t-60.5 -193.5l-123 -533q-58 -248 -243.5 -382.5t-446.5 -134.5zM1499 1658
h-748l34 171h748z" />
    <glyph glyph-name="umacron" unicode="&#x16b;" horiz-adv-x="1403" 
d="M803 159h-7q-105 -96 -200 -142t-220 -46q-111 0 -171.5 61t-60.5 148q0 31 3.5 63t18.5 90l75 281q7 28 16.5 76.5t9.5 71.5q0 55 -22.5 77.5t-87.5 22.5q-32 0 -65.5 -10t-57.5 -19l22 90q81 33 155 56.5t140 23.5q119 0 183.5 -59.5t64.5 -147.5q0 -18 -4 -66t-16 -89
l-73 -266q-10 -35 -16 -75.5t-6 -58.5q0 -47 22 -74.5t76 -27.5q39 0 103.5 32.5t127.5 92.5l165 722l319 14l12 -14l-142 -615q-7 -29 -16.5 -77t-9.5 -71q0 -58 25.5 -79t89.5 -21q30 0 68 10.5t55 18.5l-22 -90q-99 -39 -158 -59.5t-137 -20.5q-110 0 -176 49.5
t-83 127.5zM1146 1247h-748l34 171h748z" />
    <glyph glyph-name="Ubreve" unicode="&#x16c;" horiz-adv-x="1707" 
d="M755 -39q-260 0 -398.5 100.5t-138.5 283.5q0 32 4 64.5t12 70.5l164 709q5 21 7 33t2 21q0 42 -40 65t-139 38l17 73h760l-17 -73q-33 -2 -72 -8.5t-66 -14.5q-41 -12 -60 -39.5t-27 -62.5l-162 -699q-10 -42 -16 -91t-6 -82q0 -129 74 -190.5t216 -61.5
q172 0 297.5 114.5t168.5 303.5l112 486q14 62 20.5 106t6.5 74q0 38 -8.5 63t-24.5 40q-25 23 -82.5 40.5t-83.5 21.5l17 73h615l-17 -73q-30 -3 -86.5 -13.5t-100.5 -36.5q-44 -25 -74.5 -91.5t-60.5 -193.5l-123 -533q-58 -248 -243.5 -382.5t-446.5 -134.5zM1473 1852
q-45 -138 -147 -230t-264 -92q-132 0 -204.5 77.5t-72.5 199.5q0 12 1 24t1 21l74 16q8 -73 61.5 -119t173.5 -46q111 0 186.5 42t122.5 123z" />
    </font>
</defs>
</svg>
